<svg width="134" height="203" viewBox="0 0 134 203" fill="none" xmlns="http://www.w3.org/2000/svg">
<path d="M62.3799 120.813L72.024 121.914L71.3106 197.886L45.8226 194.975L62.3799 120.813Z" fill="#93642D"/>
<path d="M62.3107 120.805L71.8918 121.899L71.443 162.782L53.5306 160.736L62.3107 120.805Z" fill="#714D22"/>
<path fill-rule="evenodd" clip-rule="evenodd" d="M28.5408 81.0561C29.8188 69.8647 39.9273 61.8284 51.1186 63.1064C62.31 64.3845 70.3463 74.4929 69.0683 85.6843L68.903 87.1317C68.8161 87.8923 68.6885 88.6383 68.5225 89.3678C76.6764 92.7822 81.9512 101.271 80.8978 110.496L80.7325 111.943C79.4545 123.135 69.346 131.171 58.1546 129.893C52.1024 129.202 46.9729 125.928 43.7403 121.297C39.5468 125.08 33.8113 127.113 27.7591 126.422C16.5677 125.144 8.53135 115.035 9.80939 103.844L9.97469 102.396C11.0861 92.6646 18.8748 85.3185 28.2465 84.4083C28.2599 83.7779 28.3025 83.1425 28.3755 82.5035L28.5408 81.0561Z" fill="#66A865"/>
<path fill-rule="evenodd" clip-rule="evenodd" d="M67.0429 148.074C59.2307 155.551 46.8362 155.279 39.3591 147.467C31.882 139.655 32.1537 127.26 39.9659 119.783L40.9762 118.816C41.5072 118.308 42.0593 117.836 42.6295 117.399C38.706 109.874 40.0221 100.37 46.4615 94.2068L47.4718 93.2398C55.284 85.7627 67.6785 86.0343 75.1556 93.8466C79.1992 98.0714 80.9766 103.636 80.5207 109.039C85.9381 108.82 91.4198 110.84 95.4634 115.064C102.94 122.877 102.669 135.271 94.8566 142.748L93.8463 143.715C87.0528 150.217 76.7943 150.86 69.3175 145.78C68.9207 146.237 68.4992 146.68 68.0532 147.107L67.0429 148.074Z" fill="#66A865"/>
<path fill-rule="evenodd" clip-rule="evenodd" d="M69.9911 79.1751C71.2833 67.8594 81.5041 59.7338 92.8198 61.026C104.136 62.3183 112.261 72.539 110.969 83.8547L110.802 85.3182C110.714 86.0873 110.585 86.8416 110.417 87.5792C118.661 91.0316 123.995 99.6148 122.93 108.942L122.763 110.405C121.47 121.721 111.25 129.847 99.9339 128.555C93.8144 127.856 88.6279 124.546 85.3593 119.863C81.1193 123.688 75.32 125.744 69.2005 125.045C57.8848 123.753 49.7592 113.532 51.0514 102.216L51.2185 100.753C52.3423 90.9125 60.2177 83.4848 69.6936 82.5646C69.7071 81.9272 69.7502 81.2847 69.824 80.6386L69.9911 79.1751Z" fill="#66A865"/>
<path fill-rule="evenodd" clip-rule="evenodd" d="M65.8176 49.5247C67.1099 38.209 77.3306 30.0834 88.6463 31.3756C99.9621 32.6679 108.088 42.8886 106.795 54.2043L106.628 55.6678C106.54 56.4369 106.411 57.1912 106.244 57.9288C114.488 61.3812 119.821 69.9644 118.756 79.2915L118.589 80.755C117.297 92.0707 107.076 100.196 95.7604 98.9041C89.6409 98.2053 84.4544 94.8952 81.1859 90.2129C76.9458 94.0377 71.1465 96.0933 65.027 95.3944C53.7113 94.1022 45.5857 83.8814 46.8779 72.5657L47.0451 71.1022C48.1688 61.2621 56.0442 53.8344 65.5201 52.9142C65.5336 52.2768 65.5767 51.6343 65.6505 50.9882L65.8176 49.5247Z" fill="#66A865"/>
<path fill-rule="evenodd" clip-rule="evenodd" d="M35.5663 54.6011C36.6266 45.3164 45.0129 38.6493 54.2976 39.7096C63.5823 40.7699 70.2495 49.1561 69.1892 58.4408L69.052 59.6416C68.98 60.2726 68.8741 60.8916 68.7364 61.4968C75.501 64.3295 79.8771 71.3722 79.0032 79.0252L78.866 80.226C77.8057 89.5107 69.4195 96.1779 60.1348 95.1176C55.1136 94.5442 50.858 91.8282 48.1761 87.9862C44.6971 91.1246 39.9387 92.8112 34.9176 92.2378C25.6329 91.1774 18.9657 82.7912 20.026 73.5065L20.1631 72.3057C21.0852 64.2318 27.5471 58.1372 35.3222 57.3822C35.3333 56.8592 35.3687 56.332 35.4292 55.8019L35.5663 54.6011Z" fill="#66A865"/>
<path fill-rule="evenodd" clip-rule="evenodd" d="M91.4304 44.5667C97.0365 52.0434 95.5202 62.6491 88.0435 68.2553C80.5668 73.8614 69.9611 72.345 64.3549 64.8684L63.6299 63.9014C63.2489 63.3932 62.9008 62.8707 62.5852 62.3362C55.7228 64.9233 47.7051 62.8101 43.0841 56.6473L42.3591 55.6803C36.7529 48.2036 38.2693 37.5979 45.746 31.9917C49.7893 28.9599 54.7479 28.0112 59.3358 28.9618C59.7091 24.2912 62.0093 19.7973 66.0526 16.7655C73.5293 11.1593 84.135 12.6757 89.7412 20.1524L90.4662 21.1194C95.3413 27.621 94.8304 36.4888 89.6977 42.3776C90.0489 42.7654 90.3853 43.1729 90.7053 43.5997L91.4304 44.5667Z" fill="#83C082"/>
<path fill-rule="evenodd" clip-rule="evenodd" d="M122.018 100.615C118.529 104.688 113.506 107.344 107.963 107.774C106.997 110.755 105.3 113.545 102.878 115.864L101.867 116.831C95.0739 123.333 84.8154 123.975 77.3386 118.895C76.9418 119.352 76.5204 119.795 76.0744 120.222L75.064 121.189C67.2518 128.666 54.8573 128.394 47.3802 120.582C43.0028 116.009 41.2812 109.864 42.1737 104.056C39.0205 105.41 35.4823 105.985 31.8288 105.568C23.683 104.638 17.2087 99.0294 14.781 91.7303C12.1746 94.7324 10.4169 98.5262 9.93169 102.775L9.76639 104.222C8.48835 115.413 16.5247 125.522 27.716 126.8C30.4669 127.114 33.1524 126.865 35.6573 126.146C32.4132 133.228 33.6018 141.875 39.316 147.845C46.7931 155.657 59.1876 155.929 66.9998 148.452L68.0101 147.485C68.4561 147.058 68.8776 146.615 69.2744 146.158C76.7512 151.238 87.0097 150.596 93.8032 144.094L94.8135 143.126C98.8209 139.291 100.844 134.162 100.855 129.02C111.782 129.759 121.464 121.777 122.72 110.784L122.887 109.32C123.233 106.29 122.903 103.338 122.018 100.615Z" fill="#458244"/>
</svg>
