<svg width="319" height="433" viewBox="0 0 319 433" fill="none" xmlns="http://www.w3.org/2000/svg">
<g clip-path="url(#clip0_266_413)">
<path d="M260.399 107.881L260.418 107.88C260.39 107.5 260.297 107.154 260.159 106.848C259.577 105.104 257.946 103.952 255.955 103.952C255.296 103.952 254.629 104.084 254.102 104.303C252.39 104.94 250.884 105.596 249.505 106.306C245.667 108.275 242.124 110.842 238.979 113.934C233.8 119.021 229.237 125.498 224.607 134.322C222.541 138.258 220.611 142.328 218.745 146.264C216.515 150.965 214.231 155.786 211.691 160.421C210.573 157.492 209.326 154.629 208.104 151.83C206.428 147.986 204.696 144.008 203.373 140.002C201.69 134.91 201.07 130.484 201.478 126.47C201.771 123.631 202.594 121.184 203.931 119.202C205.432 116.98 207.737 115.359 210.182 113.643C210.847 113.175 211.511 112.71 212.152 112.234C216.782 108.82 221.253 104.203 225.085 98.8875C227.682 95.2956 229.537 91.3065 231.223 87.5291C233.057 83.4096 234.438 79.1045 235.769 74.9423L235.871 74.6221C236.126 73.832 236.397 73.0515 236.668 72.2711L236.786 71.9303C237.481 69.9433 237.357 68.2697 236.422 66.9615C235.597 65.8045 234.339 65.1408 232.964 65.1408C231.32 65.1408 229.771 66.067 228.926 67.551C228.523 68.2477 228.295 68.9388 228.064 69.6355C227.834 70.3253 227.564 71.0069 227.296 71.6857L226.87 72.7795C226.124 74.7499 225.319 76.8496 224.437 78.9313C222.652 83.1114 220.698 86.8407 218.628 90.0121C216.417 93.4007 213.452 96.3674 210.851 98.8215C209.265 100.314 207.706 101.57 206.08 102.657C205.286 103.191 204.472 103.708 203.667 104.223C202.626 104.885 201.587 105.548 200.581 106.243C196.617 108.961 193.778 112.053 191.898 115.694C190.003 119.356 188.887 123.826 188.575 128.982C188.318 133.209 188.836 137.74 190.154 142.837C191.34 147.415 192.999 151.859 194.604 156.157C196.104 160.179 197.658 164.34 198.774 168.511C199.021 169.431 199.396 170.775 199.778 172.142C200.122 173.372 200.551 174.899 200.83 175.918C200.471 176.233 200.094 176.568 199.77 176.853L199.188 177.367C198.081 178.344 196.944 179.23 195.817 180.002C192.167 182.492 187.848 184.107 183.219 184.729L181.772 144.56L181.459 135.915C181.448 135.528 181.437 135.142 181.403 134.771C181.236 133.041 180.431 131.704 179.719 130.525C179.542 130.229 147.999 84.2849 147.774 83.8864L147.09 73.2865C146.974 71.8245 146.859 70.361 146.757 68.8962C146.199 60.8509 146.006 52.4496 150.254 45.9336C151.403 44.1706 152.45 42.9353 153.549 42.049C154.881 40.9744 156.582 40.3217 158.072 39.8257C159.11 39.4808 160.157 39.1551 161.198 38.8294C164.228 37.8854 167.359 36.9112 170.352 35.4382C174.149 33.5707 177.423 31.6319 180.383 29.5075C183.803 27.041 186.995 24.1196 190.139 20.5744C192.766 17.616 195.185 14.472 197.525 11.4312L198.555 10.09C198.725 9.87292 198.933 9.63795 199.152 9.38786C200.383 7.9794 202.67 5.35898 201.216 2.46237C200.475 0.982454 198.933 0.0164579 197.246 0.00134277C195.832 0.00134277 194.583 0.667784 193.558 1.94708L192.096 3.70181C187.673 9.01548 183.105 14.5119 177.648 18.6686C174.584 21.0018 171.256 22.9819 167.762 24.5552C164.324 26.1025 160.728 27.1399 156.386 28.2213C152.919 29.0857 148.893 30.3443 145.364 33.1283C142.576 35.3282 140.09 38.3458 137.978 42.0984C135.244 46.9696 133.957 52.2778 133.354 57.0528C130.797 51.9274 128.754 46.7635 127.259 41.6312C125.026 33.9527 124.449 26.9476 125.533 20.863C125.879 19.1481 126.338 17.1241 127.098 15.1151C127.414 14.2728 127.763 13.4662 128.166 12.6404C128.219 12.5263 128.284 12.4095 128.346 12.29C128.611 11.8008 128.936 11.1921 129.086 10.4432C129.467 8.52767 128.308 6.58468 126.445 6.01993C124.891 5.54448 123.252 6.11199 122.179 7.48472C121.108 8.84783 119.855 10.4913 118.714 12.3394C114.479 19.2086 112.266 27.9932 112.145 38.4516C112.075 44.5292 112.716 50.8474 114.115 57.7646C115.245 63.3751 116.74 68.8784 118.581 74.1962C118.581 74.1962 127.822 97.1877 129.365 101.299C132.304 109.111 135.31 117.269 138.311 125.546C139.553 128.976 140.796 132.405 142.025 135.832L143.576 140.226L129.731 205.904C129.61 205.614 129.483 205.316 129.368 205.037L128.653 203.302C127.186 199.712 125.666 196.001 123.712 192.493C121.136 187.864 115.419 179.793 106.074 177.773C104.523 177.44 103.084 177.456 101.693 177.47C101.054 177.475 100.413 177.485 99.7642 177.449C98.0149 177.36 96.5227 176.523 95.9126 176.038C94.6484 175.045 93.8349 173.473 93.266 172.215C92.6353 170.822 92.109 169.394 91.5484 167.883L90.9424 166.269C90.6071 165.382 90.1537 164.214 89.6219 163.073L89.4872 162.767C89.0819 161.824 88.3976 160.251 86.5892 159.674C84.9362 159.149 83.007 159.846 82.0561 161.319C80.9692 163.024 81.5325 164.783 81.8953 165.904C82.4243 167.576 82.7294 169.334 83.0523 171.197C83.3642 172.99 83.683 174.847 84.2299 176.684C84.4237 177.341 84.6353 177.966 84.8634 178.555C84.1365 178.485 83.3986 178.386 82.6621 178.254C80.6792 177.897 78.6799 177.205 76.8111 176.511C75.0028 175.839 73.0804 175.031 70.9286 174.041C70.1508 173.683 69.3854 173.291 68.6173 172.901C67.5332 172.35 66.4133 171.778 65.2466 171.285C64.047 170.779 62.7939 170.647 61.7152 170.913C60.1748 171.289 59.0742 172.423 58.7045 174.022C58.361 175.514 58.5465 177.643 61.3717 179.312L62.1796 179.789C64.5005 181.158 66.8983 182.569 69.3483 183.858C78.269 188.552 87.0056 190.5 95.3121 189.647C95.8438 189.594 96.377 189.532 96.9088 189.467C98.4437 189.282 99.8933 189.107 101.294 189.174C102.754 189.242 104.069 189.72 105.566 190.726C108.229 192.516 110.375 195.348 112.13 199.388C113.354 202.205 114.335 205.224 115.286 208.141C115.635 209.205 116.351 211.373 116.351 211.373C118.621 218.766 122.103 223.482 125.39 226.476L118.992 256.837L110.9 294.185C105.643 296.665 81.7139 307.948 79.5154 308.962L76.2573 310.469C75.4384 310.834 74.2017 311.386 73.5036 312.797C72.8413 314.134 72.91 315.67 73.6809 316.911C74.4806 318.2 75.9427 319.001 77.4913 319.001H217.612C218.473 319.001 219.917 319.001 221.176 317.872C222.595 316.597 222.947 314.505 222.024 312.778C221.316 311.459 220.194 310.901 219.456 310.534L210.443 306.039C203.605 302.63 191.134 296.41 187.183 294.438C187.1 292.191 186.928 287.413 186.755 282.587L185.354 243.798C185.034 234.947 184.713 226.095 184.395 217.245L183.762 199.714C192.171 198.458 199.865 195.002 206.068 189.675C207.528 188.416 209.028 186.947 210.785 185.045C213.631 181.948 217.315 176.281 218.556 174.172C219.564 172.452 220.563 170.616 221.597 168.557C224.264 163.241 226.569 157.688 228.794 152.321C229.886 149.694 230.973 147.066 232.106 144.462C234.156 139.764 235.946 136.005 237.745 132.634C239.376 129.589 241.614 125.655 244.521 122.232C246.928 119.396 249.707 116.951 252.785 114.962C254.105 114.108 255.547 113.426 257.18 112.651C260.294 111.173 260.517 108.987 260.399 107.881Z" fill="#714D22"/>
</g>
<g clip-path="url(#clip1_266_413)">
<path d="M13.0007 327.999L13.078 304.322L29.1268 300.283L39.2443 306.749L42.9957 297.047L54.6169 299.474L58.3651 289.772L80.0137 297.663L84.5121 298.472L127.333 289.772C127.333 289.772 153.187 308.787 155.064 309.596C156.938 310.405 218.783 299.897 218.783 299.897L231.151 289.772L259.256 302.321L293.067 309.617L293.002 327.999H13.0007Z" fill="#679A45"/>
<path d="M33.3933 323.323L45.3913 305.946L65.1594 323.524L33.3933 323.323Z" fill="#35813F"/>
<path d="M89.2391 323.323L97.7626 313.624H103.388L118.291 305.738L121.939 314.833L160.734 311.801L176.194 322.715L89.2391 323.323Z" fill="#35813F"/>
<path d="M214.429 322.105L216.674 316.451L232.79 314.021L237.482 307.961L275.704 322.712L214.429 322.105Z" fill="#35813F"/>
</g>
<defs>
<clipPath id="clip0_266_413">
<rect width="319" height="319" fill="white"/>
</clipPath>
<clipPath id="clip1_266_413">
<rect width="280" height="280" fill="white" transform="translate(13 153)"/>
</clipPath>
</defs>
</svg>
