<svg width="34" height="52" viewBox="0 0 34 52" fill="none" xmlns="http://www.w3.org/2000/svg">
<path d="M1.99999 41.5001L17.3232 26.1769C17.4364 26.0637 17.5 25.9102 17.5 25.7501C17.5 25.59 17.4364 25.4365 17.3232 25.3233L1.99999 10.0001C-0.209144 7.79098 -0.209146 4.20925 1.99999 2.00012C4.20913 -0.209023 7.79085 -0.209023 9.99999 2.00012L33.3233 25.3234C33.4364 25.4365 33.5 25.59 33.5 25.7501C33.5 25.9101 33.4364 26.0636 33.3233 26.1767L9.99999 49.5001C7.79085 51.7093 4.20913 51.7093 1.99999 49.5001C-0.209146 47.291 -0.209144 43.7093 1.99999 41.5001Z" fill="#C8F6D1"/>
</svg>
