<svg width="101" height="93" viewBox="0 0 101 93" fill="none" xmlns="http://www.w3.org/2000/svg">
<path d="M40.1187 22.0931L40.1044 26.0062L0.728914 29.0517L0.766671 18.7099L40.1187 22.0931Z" fill="#93642D"/>
<path d="M40.1189 22.065L40.1047 25.9526L18.9116 27.5655L18.9381 20.2974L40.1189 22.065Z" fill="#714D22"/>
<path fill-rule="evenodd" clip-rule="evenodd" d="M61.1551 6.79755C65.6961 6.81413 69.3638 10.5087 69.3472 15.0497C69.3306 19.5906 65.636 23.2583 61.0951 23.2418L56.8334 23.2262C55.8103 26.6189 52.655 29.0841 48.9303 29.0705L43.3656 29.0502C38.8247 29.0336 35.157 25.339 35.1735 20.7981C35.1825 18.3423 36.2672 16.142 37.9796 14.6416C36.2782 13.1288 35.2096 10.9206 35.2186 8.46488C35.2351 3.92394 38.9297 0.256215 43.4707 0.272794L49.0354 0.29311C52.9715 0.30748 56.2516 3.08537 57.0447 6.78255L61.1551 6.79755Z" fill="#66A865"/>
<path fill-rule="evenodd" clip-rule="evenodd" d="M25.9225 24.9307C21.7945 22.2535 21.3777 17.3763 24.9914 14.0373C28.6052 10.6983 34.8811 10.1619 39.0091 12.8392L40.2692 13.6564C40.4416 13.7682 40.6074 13.8838 40.7668 14.0029C44.3907 12.0907 49.2335 12.1206 52.6258 14.3207L53.8859 15.1379C58.0139 17.8152 58.4308 22.6923 54.817 26.0313C52.8627 27.837 50.1298 28.8231 47.3791 28.9245C47.7319 31.0388 46.9564 33.2944 45.0021 35.1002C41.3883 38.4392 35.1124 38.9756 30.9844 36.2983L29.7243 35.4811C26.1427 33.1582 25.3548 29.1793 27.5693 25.9858C27.4384 25.9095 27.3095 25.8303 27.1826 25.748L25.9225 24.9307Z" fill="#66A865"/>
<path fill-rule="evenodd" clip-rule="evenodd" d="M64.5447 23.3263C69.1361 23.3431 72.8446 27.0787 72.8278 31.6701C72.8111 36.2615 69.0754 39.97 64.484 39.9532L60.1753 39.9375C59.1407 43.3677 55.9505 45.8602 52.1845 45.8465L46.5579 45.8259C41.9665 45.8092 38.2581 42.0735 38.2748 37.4821C38.2839 34.9991 39.3806 32.7743 41.112 31.2573C39.3917 29.7277 38.3113 27.495 38.3204 25.012C38.3371 20.4206 42.0728 16.7121 46.6642 16.7289L52.2907 16.7494C56.2707 16.7639 59.5872 19.5728 60.389 23.3111L64.5447 23.3263Z" fill="#66A865"/>
<path fill-rule="evenodd" clip-rule="evenodd" d="M79.6562 20.3536C84.2476 20.3704 87.956 24.106 87.9393 28.6974C87.9225 33.2888 84.1869 36.9973 79.5955 36.9805L75.2868 36.9648C74.2523 40.3951 71.062 42.8877 67.2959 42.874L61.6694 42.8534C57.078 42.8367 53.3695 39.101 53.3863 34.5096C53.3953 32.0266 54.492 29.8018 56.2236 28.2847C54.5032 26.7551 53.4227 24.5224 53.4318 22.0393C53.4486 17.4479 57.1842 13.7394 61.7756 13.7562L67.4022 13.7768C71.3821 13.7913 74.6986 16.6001 75.5005 20.3384L79.6562 20.3536Z" fill="#66A865"/>
<path fill-rule="evenodd" clip-rule="evenodd" d="M74.8479 8.45144C78.6152 8.46519 81.658 11.5303 81.6443 15.2976C81.6305 19.0649 78.5654 22.1078 74.7981 22.094L71.2631 22.0811C70.4143 24.8958 67.7966 26.9409 64.7065 26.9296L60.0898 26.9128C56.3225 26.899 53.2797 23.8339 53.2935 20.0666C53.3009 18.0292 54.2007 16.2038 55.6214 14.9591C54.2099 13.704 53.3234 11.872 53.3308 9.83465C53.3446 6.06735 56.4097 3.0245 60.177 3.03825L64.7937 3.05511C68.0592 3.06703 70.7804 5.37168 71.4384 8.43899L74.8479 8.45144Z" fill="#66A865"/>
<path fill-rule="evenodd" clip-rule="evenodd" d="M81.1794 30.4572C77.6815 32.9954 72.1435 32.8234 68.8099 30.073C65.4763 27.3226 65.6095 23.0353 69.1074 20.4971L69.7474 20.0327C69.9571 19.8805 70.1741 19.7381 70.3975 19.6054C68.6584 16.9781 69.2573 13.7024 72.1374 11.6125L72.7774 11.1481C76.2753 8.60986 81.8133 8.78189 85.1469 11.5323C86.9496 13.0197 87.7385 14.9565 87.5298 16.8231C89.9508 16.7814 92.3985 17.5148 94.2014 19.0023C97.535 21.7527 97.4018 26.04 93.9039 28.5782L93.2639 29.0426C90.2247 31.248 85.6453 31.4073 82.3099 29.607C82.1545 29.7395 81.991 29.8683 81.8194 29.9928L81.1794 30.4572Z" fill="#83C082"/>
<path fill-rule="evenodd" clip-rule="evenodd" d="M53.8537 45.6423C51.6246 44.5076 49.9765 42.3973 49.4697 39.8759C47.9969 39.6358 46.5875 39.125 45.3662 38.3329L44.1061 37.5156C40.5245 35.1928 39.7366 31.2138 41.9511 28.0203C41.8203 27.9441 41.6914 27.8648 41.5645 27.7825L40.3044 26.9653C36.1764 24.288 35.7595 19.4109 39.3733 16.0719C41.4349 14.167 44.363 13.1743 47.2644 13.17C46.6134 11.9872 46.2451 10.6271 46.2504 9.18129C46.2646 5.30163 48.9636 2.05937 52.5813 1.20768C51.4597 0.627241 50.1872 0.297381 48.8375 0.292453L43.2728 0.272137C38.7318 0.255558 35.0372 3.92328 35.0206 8.46422C35.0168 9.52453 35.2138 10.5387 35.5759 11.4707C31.8559 10.5732 27.5495 11.4894 24.7926 14.0367C21.1788 17.3757 21.5957 22.2528 25.7237 24.9301L26.9838 25.7473C27.1107 25.8296 27.2396 25.9089 27.3704 25.9851C25.1559 29.1786 25.9438 33.1575 29.5254 35.4804L30.7855 36.2977C32.8768 37.654 35.5195 38.1855 38.0879 37.9457C38.3128 42.322 41.9244 45.8091 46.36 45.8253L51.9865 45.8458C52.6282 45.8481 53.2532 45.7777 53.8537 45.6423Z" fill="#458244"/>
<path d="M40.4504 44.976L40.4361 48.8891L1.06061 51.9346L1.09837 41.5927L40.4504 44.976Z" fill="#93642D"/>
<path d="M40.4506 44.9478L40.4364 48.8354L19.2433 50.4483L19.2698 43.1802L40.4506 44.9478Z" fill="#714D22"/>
<path fill-rule="evenodd" clip-rule="evenodd" d="M61.4868 29.6804C66.0278 29.697 69.6955 33.3916 69.6789 37.9325C69.6623 42.4735 65.9677 46.1412 61.4268 46.1246L57.1651 46.109C56.142 49.5017 52.9867 51.9669 49.262 51.9533L43.6973 51.933C39.1564 51.9165 35.4887 48.2219 35.5052 43.6809C35.5142 41.2252 36.5988 39.0248 38.3113 37.5245C36.6098 36.0117 35.5413 33.8035 35.5503 31.3477C35.5668 26.8068 39.2614 23.1391 43.8024 23.1556L49.3671 23.176C53.3032 23.1903 56.5833 25.9682 57.3764 29.6654L61.4868 29.6804Z" fill="#96924E"/>
<path fill-rule="evenodd" clip-rule="evenodd" d="M26.2542 47.8136C22.1262 45.1363 21.7094 40.2592 25.3231 36.9202C28.9369 33.5812 35.2128 33.0448 39.3408 35.722L40.6009 36.5393C40.7733 36.651 40.9391 36.7666 41.0985 36.8858C44.7224 34.9736 49.5652 35.0034 52.9575 37.2035L54.2176 38.0208C58.3456 40.698 58.7624 45.5752 55.1487 48.9142C53.1944 50.7199 50.4615 51.7059 47.7108 51.8074C48.0636 53.9216 47.2881 56.1772 45.3338 57.983C41.72 61.322 35.4441 61.8584 31.3161 59.1812L30.056 58.3639C26.4744 56.041 25.6865 52.0621 27.901 48.8686C27.7701 48.7924 27.6412 48.7131 27.5143 48.6308L26.2542 47.8136Z" fill="#96924E"/>
<path fill-rule="evenodd" clip-rule="evenodd" d="M64.8764 46.2092C69.4678 46.2259 73.1763 49.9616 73.1595 54.553C73.1428 59.1444 69.4071 62.8528 64.8157 62.8361L60.507 62.8203C59.4724 66.2506 56.2822 68.7431 52.5162 68.7293L46.8896 68.7088C42.2982 68.692 38.5898 64.9564 38.6065 60.365C38.6156 57.882 39.7123 55.6572 41.4437 54.1402C39.7234 52.6105 38.643 50.3778 38.6521 47.8948C38.6688 43.3034 42.4045 39.5949 46.9959 39.6117L52.6224 39.6323C56.6023 39.6468 59.9189 42.4556 60.7207 46.194L64.8764 46.2092Z" fill="#96924E"/>
<path fill-rule="evenodd" clip-rule="evenodd" d="M79.9879 43.2364C84.5793 43.2532 88.2877 46.9889 88.271 51.5802C88.2542 56.1716 84.5186 59.8801 79.9272 59.8634L75.6185 59.8476C74.584 63.278 71.3937 65.7706 67.6276 65.7568L62.0011 65.7363C57.4097 65.7195 53.7012 61.9839 53.718 57.3925C53.727 54.9094 54.8237 52.6846 56.5553 51.1676C54.8349 49.638 53.7544 47.4052 53.7635 44.9222C53.7803 40.3308 57.5159 36.6223 62.1073 36.6391L67.7339 36.6596C71.7138 36.6741 75.0303 39.4829 75.8322 43.2213L79.9879 43.2364Z" fill="#96924E"/>
<path fill-rule="evenodd" clip-rule="evenodd" d="M75.1796 31.3343C78.9469 31.348 81.9897 34.4132 81.976 38.1805C81.9622 41.9478 78.8971 44.9906 75.1298 44.9769L71.5948 44.964C70.746 47.7786 68.1283 49.8238 65.0382 49.8125L60.4215 49.7956C56.6542 49.7819 53.6114 46.7167 53.6251 42.9494C53.6326 40.9121 54.5324 39.0866 55.9531 37.8419C54.5416 36.5868 53.6551 34.7548 53.6625 32.7175C53.6763 28.9502 56.7414 25.9073 60.5087 25.9211L65.1254 25.938C68.3909 25.9499 71.1121 28.2545 71.7701 31.3218L75.1796 31.3343Z" fill="#96924E"/>
<path fill-rule="evenodd" clip-rule="evenodd" d="M81.5111 53.3401C78.0132 55.8783 72.4752 55.7062 69.1416 52.9558C65.808 50.2054 65.9412 45.9181 69.4391 43.3799L70.0791 42.9155C70.2888 42.7634 70.5058 42.6209 70.7292 42.4882C68.9901 39.861 69.589 36.5852 72.4691 34.4953L73.1091 34.0309C76.607 31.4927 82.145 31.6647 85.4786 34.4152C87.2813 35.9025 88.0702 37.8394 87.8615 39.706C90.2825 39.6643 92.7302 40.3976 94.5331 41.8851C97.8667 44.6355 97.7335 48.9228 94.2356 51.461L93.5956 51.9254C90.5564 54.1308 85.977 54.2901 82.6416 52.4898C82.4862 52.6224 82.3227 52.7511 82.1511 52.8757L81.5111 53.3401Z" fill="#B6B262"/>
<path fill-rule="evenodd" clip-rule="evenodd" d="M54.1854 68.5251C51.9563 67.3904 50.3082 65.2802 49.8014 62.7588C48.3286 62.5186 46.9192 62.0079 45.6979 61.2157L44.4378 60.3985C40.8562 58.0756 40.0683 54.0967 42.2828 50.9032C42.152 50.8269 42.0231 50.7477 41.8962 50.6654L40.6361 49.8481C36.5081 47.1709 36.0912 42.2937 39.705 38.9547C41.7666 37.0499 44.6947 36.0571 47.5961 36.0528C46.9451 34.87 46.5768 33.51 46.5821 32.0641C46.5963 28.1845 49.2953 24.9422 52.913 24.0905C51.7914 23.5101 50.5189 23.1802 49.1692 23.1753L43.6045 23.155C39.0635 23.1384 35.3689 26.8061 35.3523 31.3471C35.3485 32.4074 35.5455 33.4215 35.9076 34.3535C32.1876 33.456 27.8812 34.3722 25.1243 36.9195C21.5105 40.2585 21.9274 45.1357 26.0554 47.8129L27.3155 48.6302C27.4424 48.7125 27.5713 48.7917 27.7021 48.868C25.4876 52.0615 26.2755 56.0404 29.8571 58.3633L31.1172 59.1805C33.2085 60.5369 35.8512 61.0684 38.4196 60.8285C38.6445 65.2049 42.2561 68.6919 46.6917 68.7081L52.3182 68.7286C52.9599 68.731 53.5849 68.6606 54.1854 68.5251Z" fill="#827F44"/>
<path d="M40.4504 68.976L40.4361 72.8891L1.06061 75.9346L1.09837 65.5927L40.4504 68.976Z" fill="#93642D"/>
<path d="M40.4506 68.9478L40.4364 72.8354L19.2433 74.4483L19.2698 67.1802L40.4506 68.9478Z" fill="#714D22"/>
<path fill-rule="evenodd" clip-rule="evenodd" d="M61.4868 53.6804C66.0278 53.697 69.6955 57.3916 69.6789 61.9325C69.6623 66.4735 65.9677 70.1412 61.4268 70.1246L57.1651 70.109C56.142 73.5017 52.9867 75.9669 49.262 75.9533L43.6973 75.933C39.1564 75.9165 35.4887 72.2219 35.5052 67.6809C35.5142 65.2252 36.5988 63.0248 38.3113 61.5245C36.6098 60.0117 35.5413 57.8035 35.5503 55.3477C35.5668 50.8068 39.2614 47.1391 43.8024 47.1556L49.3671 47.176C53.3032 47.1903 56.5833 49.9682 57.3764 53.6654L61.4868 53.6804Z" fill="#CF8128"/>
<path fill-rule="evenodd" clip-rule="evenodd" d="M26.2542 71.8136C22.1262 69.1363 21.7094 64.2592 25.3231 60.9202C28.9369 57.5812 35.2128 57.0448 39.3408 59.722L40.6009 60.5393C40.7733 60.651 40.9391 60.7666 41.0985 60.8858C44.7224 58.9736 49.5652 59.0034 52.9575 61.2035L54.2176 62.0208C58.3456 64.698 58.7624 69.5752 55.1487 72.9142C53.1944 74.7199 50.4615 75.7059 47.7108 75.8074C48.0636 77.9216 47.2881 80.1772 45.3338 81.983C41.72 85.322 35.4441 85.8584 31.3161 83.1812L30.056 82.3639C26.4744 80.041 25.6865 76.0621 27.901 72.8686C27.7701 72.7924 27.6412 72.7131 27.5143 72.6308L26.2542 71.8136Z" fill="#CF8128"/>
<path fill-rule="evenodd" clip-rule="evenodd" d="M64.8764 70.2092C69.4678 70.2259 73.1763 73.9616 73.1595 78.553C73.1428 83.1444 69.4071 86.8528 64.8157 86.8361L60.507 86.8203C59.4724 90.2506 56.2822 92.7431 52.5162 92.7293L46.8896 92.7088C42.2982 92.692 38.5898 88.9564 38.6065 84.365C38.6156 81.882 39.7123 79.6572 41.4437 78.1402C39.7234 76.6105 38.643 74.3778 38.6521 71.8948C38.6688 67.3034 42.4045 63.5949 46.9959 63.6117L52.6224 63.6323C56.6023 63.6468 59.9189 66.4556 60.7207 70.194L64.8764 70.2092Z" fill="#CF8128"/>
<path fill-rule="evenodd" clip-rule="evenodd" d="M79.9879 67.2364C84.5793 67.2532 88.2877 70.9889 88.271 75.5802C88.2542 80.1716 84.5186 83.8801 79.9272 83.8634L75.6185 83.8476C74.584 87.278 71.3937 89.7706 67.6276 89.7568L62.0011 89.7363C57.4097 89.7195 53.7012 85.9839 53.718 81.3925C53.727 78.9094 54.8237 76.6846 56.5553 75.1676C54.8349 73.638 53.7544 71.4052 53.7635 68.9222C53.7803 64.3308 57.5159 60.6223 62.1073 60.6391L67.7339 60.6596C71.7138 60.6741 75.0303 63.4829 75.8322 67.2213L79.9879 67.2364Z" fill="#CF8128"/>
<path fill-rule="evenodd" clip-rule="evenodd" d="M75.1796 55.3343C78.9469 55.348 81.9897 58.4132 81.976 62.1805C81.9622 65.9478 78.8971 68.9906 75.1298 68.9769L71.5948 68.964C70.746 71.7786 68.1283 73.8238 65.0382 73.8125L60.4215 73.7956C56.6542 73.7819 53.6114 70.7167 53.6251 66.9494C53.6326 64.9121 54.5324 63.0866 55.9531 61.8419C54.5416 60.5868 53.6551 58.7548 53.6625 56.7175C53.6763 52.9502 56.7414 49.9073 60.5087 49.9211L65.1254 49.938C68.3909 49.9499 71.1121 52.2545 71.7701 55.3218L75.1796 55.3343Z" fill="#CF8128"/>
<path fill-rule="evenodd" clip-rule="evenodd" d="M81.5111 77.3401C78.0132 79.8783 72.4752 79.7062 69.1416 76.9558C65.808 74.2054 65.9412 69.9181 69.4391 67.3799L70.0791 66.9155C70.2888 66.7634 70.5058 66.6209 70.7292 66.4882C68.9901 63.861 69.589 60.5852 72.4691 58.4953L73.1091 58.0309C76.607 55.4927 82.145 55.6647 85.4786 58.4152C87.2813 59.9025 88.0702 61.8394 87.8615 63.706C90.2825 63.6643 92.7302 64.3976 94.5331 65.8851C97.8667 68.6355 97.7335 72.9228 94.2356 75.461L93.5956 75.9254C90.5564 78.1308 85.977 78.2901 82.6416 76.4898C82.4862 76.6224 82.3227 76.7511 82.1511 76.8757L81.5111 77.3401Z" fill="#F2A144"/>
<path fill-rule="evenodd" clip-rule="evenodd" d="M54.1854 92.5251C51.9563 91.3904 50.3082 89.2802 49.8014 86.7588C48.3286 86.5186 46.9192 86.0079 45.6979 85.2157L44.4378 84.3985C40.8562 82.0756 40.0683 78.0967 42.2828 74.9032C42.152 74.8269 42.0231 74.7477 41.8962 74.6654L40.6361 73.8481C36.5081 71.1709 36.0912 66.2937 39.705 62.9547C41.7666 61.0499 44.6947 60.0571 47.5961 60.0528C46.9451 58.87 46.5768 57.51 46.5821 56.0641C46.5963 52.1845 49.2953 48.9422 52.913 48.0905C51.7914 47.5101 50.5189 47.1802 49.1692 47.1753L43.6045 47.155C39.0635 47.1384 35.3689 50.8061 35.3523 55.3471C35.3485 56.4074 35.5455 57.4215 35.9076 58.3535C32.1876 57.456 27.8812 58.3722 25.1243 60.9195C21.5105 64.2585 21.9274 69.1357 26.0554 71.8129L27.3155 72.6302C27.4424 72.7125 27.5713 72.7917 27.7021 72.868C25.4876 76.0615 26.2755 80.0404 29.8571 82.3633L31.1172 83.1805C33.2085 84.5369 35.8512 85.0684 38.4196 84.8285C38.6445 89.2049 42.2561 92.6919 46.6917 92.7081L52.3182 92.7286C52.9599 92.731 53.5849 92.6606 54.1854 92.5251Z" fill="#B66F40"/>
</svg>
