<svg width="57" height="57" viewBox="0 0 57 57" fill="none" xmlns="http://www.w3.org/2000/svg">
<circle cx="28.25" cy="28.25" r="28.25" fill="#66A865"/>
<path d="M38.7129 35.7949C39.082 36.2051 39.082 36.8203 38.6719 37.1895L37.5234 38.3379C37.1543 38.748 36.5391 38.748 36.1289 38.3379L32.0684 34.2773C31.8633 34.0723 31.7812 33.8262 31.7812 33.5801V32.8828C30.3047 34.0312 28.5 34.6875 26.5312 34.6875C21.8145 34.6875 18 30.873 18 26.1562C18 21.4805 21.8145 17.625 26.5312 17.625C31.207 17.625 35.0625 21.4805 35.0625 26.1562C35.0625 28.166 34.3652 29.9707 33.2578 31.4062H33.9141C34.1602 31.4062 34.4062 31.5293 34.6113 31.6934L38.7129 35.7949ZM26.5312 31.4062C29.4023 31.4062 31.7812 29.0684 31.7812 26.1562C31.7812 23.2852 29.4023 20.9062 26.5312 20.9062C23.6191 20.9062 21.2812 23.2852 21.2812 26.1562C21.2812 29.0684 23.6191 31.4062 26.5312 31.4062Z" fill="white"/>
</svg>
