<svg width="273" height="310" viewBox="0 0 273 310" fill="none" xmlns="http://www.w3.org/2000/svg">
<rect x="19.4073" y="86.7493" width="116.929" height="113.927" rx="56.9633" fill="#66A865"/>
<path d="M107.104 124.725C107.104 108.995 119.856 96.2434 135.586 96.2434H136.336C136.336 111.973 123.584 124.725 107.854 124.725H107.104Z" fill="#66A865"/>
<path d="M60.5523 114.558C45.9403 113.216 35.2408 100.288 36.6542 85.6822L37.339 85.7451C51.951 87.0875 62.6505 100.016 61.2371 114.621L60.5523 114.558Z" fill="#66A865"/>
<path d="M38.4103 162.146C26.9338 171.541 9.68534 170.127 -1.53043e-05 158.895C11.4765 149.501 28.725 150.914 38.4103 162.146Z" fill="#66A865"/>
<path d="M146.858 171.218C135.381 180.613 118.133 179.2 108.447 167.967C119.924 158.573 137.172 159.986 146.858 171.218Z" fill="#66A865"/>
<rect width="114.677" height="116.193" rx="57.3385" transform="matrix(-0.507315 0.861761 -0.872932 -0.487842 206.496 161.023)" fill="#66A865"/>
<path d="M129.385 216.431C143.207 224.156 147.9 241.479 139.867 255.124L139.536 254.939C125.715 247.214 121.022 229.891 129.054 216.247L129.385 216.431Z" fill="#66A865"/>
<path d="M160.871 182.509C169.555 170.525 186.438 167.581 198.581 175.934L198.866 176.131C190.182 188.115 173.298 191.058 161.156 182.705L160.871 182.509Z" fill="#66A865"/>
<path d="M129.917 139.57C127.251 125.132 137.137 111.316 151.922 108.724C154.588 123.163 144.702 136.979 129.917 139.57Z" fill="#66A865"/>
<path d="M67.8822 226.712C65.2165 212.274 75.1021 198.458 89.8874 195.867C92.553 210.305 82.6675 224.121 67.8822 226.712Z" fill="#66A865"/>
<rect width="114.677" height="116.193" rx="57.3385" transform="matrix(-0.507315 0.861761 -0.872932 -0.487842 262.037 120.437)" fill="#66A865"/>
<path d="M184.926 175.845C198.747 183.57 203.44 200.893 195.408 214.537L195.077 214.352C181.255 206.628 176.562 189.305 184.595 175.66L184.926 175.845Z" fill="#66A865"/>
<path d="M216.412 141.923C225.096 129.939 241.979 126.996 254.121 135.349L254.407 135.545C245.722 147.529 228.839 150.472 216.697 142.119L216.412 141.923Z" fill="#66A865"/>
<path d="M185.458 98.9842C182.792 84.5459 192.677 70.73 207.463 68.1386C210.128 82.5769 200.243 96.3929 185.458 98.9842Z" fill="#66A865"/>
<path d="M123.422 186.127C120.757 171.688 130.642 157.872 145.428 155.281C148.093 169.719 138.208 183.535 123.422 186.127Z" fill="#66A865"/>
<rect width="107.34" height="108.759" rx="53.6702" transform="matrix(-0.507315 0.861761 -0.872932 -0.487842 232.978 68.4106)" fill="#66A865"/>
<path d="M160.799 120.274C173.737 127.505 178.129 143.719 170.611 156.491L170.301 156.318C157.364 149.088 152.971 132.873 160.49 120.101L160.799 120.274Z" fill="#66A865"/>
<path d="M190.271 88.5224C198.4 77.3051 214.203 74.5499 225.568 82.3685L225.835 82.5522C217.706 93.7695 201.903 96.5247 190.538 88.7062L190.271 88.5224Z" fill="#66A865"/>
<path d="M161.298 48.3305C158.802 34.8159 168.056 21.8838 181.895 19.4582C184.39 32.9729 175.137 45.9049 161.298 48.3305Z" fill="#66A865"/>
<path d="M103.231 129.898C100.736 116.384 109.989 103.451 123.829 101.026C126.324 114.541 117.071 127.473 103.231 129.898Z" fill="#66A865"/>
<path fill-rule="evenodd" clip-rule="evenodd" d="M21.5388 128.921C20.2205 133.729 19.5165 138.791 19.5165 144.018C19.5165 147.114 19.7634 150.152 20.2386 153.113C13.2028 152.46 5.91696 154.446 0.109253 159.2C6.41717 166.516 15.9331 169.666 24.9733 168.379C33.4 186.164 50.768 198.889 71.2727 200.747C71.8801 202.513 72.5766 204.249 73.3604 205.95C68.7445 211.701 66.5606 219.269 67.9911 227.017C73.6476 226.026 78.5868 223.392 82.3806 219.708C86.4579 224.277 91.3695 228.264 97.0528 231.441L98.3759 232.18C107.291 237.162 117.017 239.539 126.641 239.558C128.756 245.973 133.212 251.648 139.645 255.243L139.976 255.428C143.379 249.647 144.498 243.205 143.606 237.113C157.398 233.035 169.732 223.965 177.517 210.74C179.594 207.213 181.245 203.563 182.486 199.847C184.708 205.902 189.047 211.227 195.186 214.658L195.517 214.843C198.92 209.062 200.039 202.62 199.147 196.528C212.939 192.45 225.272 183.379 233.058 170.155C237.603 162.434 240.111 154.124 240.745 145.827C246.109 144.093 250.989 140.717 254.516 135.85L254.23 135.654C249.858 132.646 244.871 131.103 239.874 130.919C239.054 126.721 237.753 122.624 235.993 118.715C234.697 123.286 232.795 127.778 230.259 132.086C218.821 151.516 197.565 161.978 176.293 160.817C176.007 161.338 175.712 161.856 175.409 162.372C159.343 189.662 123.911 199.261 96.2673 183.812L94.9443 183.073C85.9876 178.067 78.9477 171.046 74.0691 162.914H73.6809C50.3941 162.914 30.3709 148.94 21.5388 128.921Z" fill="#458244"/>
<path d="M128.274 187.134H144.473L157.676 310H114.863L128.274 187.134Z" fill="#93642D"/>
<path d="M128.158 187.134H144.589L151.546 253.264H121.161L128.158 187.134Z" fill="#714D22"/>
<path fill-rule="evenodd" clip-rule="evenodd" d="M123.725 239.49C98.3901 221.717 95.3106 195.013 97.0831 183.356L108.529 185.008C107.216 193.645 109.536 215.644 130.486 230.34L123.725 239.49Z" fill="#714D22"/>
<path fill-rule="evenodd" clip-rule="evenodd" d="M142.859 221.451C168.194 203.679 171.273 176.975 169.501 165.318L158.055 166.97C159.368 175.606 157.047 197.606 136.098 212.302L142.859 221.451Z" fill="#714D22"/>
<rect width="82.1732" height="83.2592" rx="41.0866" transform="matrix(-0.507315 0.861761 -0.872932 -0.487842 186.801 144.059)" fill="#66A865"/>
<path d="M131.545 183.763C141.449 189.297 144.812 201.711 139.056 211.488L138.819 211.355C128.915 205.82 125.553 193.407 131.308 183.63L131.545 183.763Z" fill="#66A865"/>
<path d="M154.107 159.455C160.33 150.868 172.428 148.759 181.129 154.744L181.333 154.885C175.11 163.472 163.012 165.581 154.312 159.596L154.107 159.455Z" fill="#66A865"/>
<path d="M131.927 128.687C130.017 118.341 137.1 108.441 147.695 106.584C149.605 116.93 142.521 126.83 131.927 128.687Z" fill="#66A865"/>
<path d="M87.4746 191.129C85.5645 180.784 92.6481 170.884 103.243 169.027C105.153 179.373 98.0691 189.273 87.4746 191.129Z" fill="#66A865"/>
<rect width="109.388" height="106.7" rx="53.3498" transform="matrix(0.989651 0.143495 -0.150987 0.988536 49.5819 13.4702)" fill="#83C082"/>
<path d="M125.404 60.4018C127.628 45.8386 141.25 35.7464 155.83 37.8604L156.495 37.9569C154.271 52.5201 140.648 62.6123 126.069 60.4983L125.404 60.4018Z" fill="#83C082"/>
<path d="M83.7698 44.746C70.4167 41.538 62.3269 28.1296 65.7008 14.7973L66.2991 14.941C79.6523 18.149 87.742 31.5574 84.3681 44.8897L83.7698 44.746Z" fill="#83C082"/>
<path d="M56.5135 85.8256C44.5575 92.984 28.7905 89.3587 21.4119 77.6595C33.3679 70.5011 49.1349 74.1264 56.5135 85.8256Z" fill="#83C082"/>
<path d="M155.634 108.783C143.678 115.942 127.911 112.316 120.533 100.617C132.489 93.4589 148.256 97.0841 155.634 108.783Z" fill="#83C082"/>
</svg>
