<svg width="140" height="326" viewBox="0 0 140 326" fill="none" xmlns="http://www.w3.org/2000/svg">
<path d="M60.6936 172.275H80.4381L96.5298 325.975H44.348L60.6936 172.275Z" fill="#93642D"/>
<path d="M60.5519 172.275H80.1674L88.6959 255.002H52.0234L60.5519 172.275Z" fill="#714D22"/>
<path d="M129.748 240.961C149.431 242.945 136.39 219.274 126.876 198.225C117.361 177.176 96.7759 137.58 65.1792 137.58C39.2875 137.58 -9.77495 230.488 1.71474 239.23C10.9065 246.223 32.4829 240.736 46.845 229.728C51.1536 239.441 57.6591 243.987 67.9998 244.764C78.3405 245.541 84.3716 238.469 92.5101 229.728C95.3826 232.966 112.576 239.23 129.748 240.961Z" fill="#66A865"/>
<path fill-rule="evenodd" clip-rule="evenodd" d="M126.036 195.87C114.172 172.519 93.6619 141.573 64.5462 141.573C49.5707 141.573 27.4608 170.18 11.9399 198.369C22.5034 197.3 35.0433 192.218 44.6266 184.873C49.3078 195.425 56.9929 206.398 68.2278 207.242C79.4627 208.086 87.8433 197.077 94.2406 184.873C96.8752 187.842 110.599 193.155 126.036 195.87Z" fill="#458244"/>
<path d="M129.748 187.476C148.586 193.518 136.39 165.789 126.876 144.74C117.361 123.691 96.7759 84.095 65.1792 84.095C39.2875 84.095 -9.77495 177.004 1.71474 185.745C10.9065 192.738 32.4829 175.598 46.845 164.591C51.1536 174.303 57.6591 190.502 67.9998 191.279C78.3405 192.056 84.3716 173.332 92.5101 164.591C95.3826 167.828 112.576 181.969 129.748 187.476Z" fill="#83C082"/>
<path fill-rule="evenodd" clip-rule="evenodd" d="M117.155 123.106C121.714 132.815 125.051 139.921 124.516 139.867C109.922 138.401 93.0014 131.959 90.5603 129.216C85.5562 138.73 77.8688 144.79 69.0807 144.131C60.2925 143.473 52.274 136.154 48.6123 127.927C36.4065 137.25 13.7609 140.72 15.3514 138.162C18.0718 133.785 20.6142 128.95 23.0343 123.867C37.5889 100.555 55.3153 80.1677 67.9574 80.1677C83.2321 80.1677 96.1382 88.6849 106.67 100.154C107.213 101.522 107.757 102.825 108.312 104.048C111.321 110.682 114.453 117.351 117.155 123.106Z" fill="#458244"/>
<path d="M123.663 124.516C137.308 129.206 127.126 105.011 119.399 87.8434C111.672 70.6756 92.1731 43.605 66.5779 41.7854C42.6424 40.0839 3.46182 114.828 12.7927 121.957C20.2573 127.661 40.0251 116.417 51.6886 107.438C55.1877 115.36 60.4708 128.572 68.8685 129.206C77.2663 129.84 82.1641 114.568 88.7735 107.438C91.1062 110.079 111.495 120.334 123.663 124.516Z" fill="#66A865"/>
<path fill-rule="evenodd" clip-rule="evenodd" d="M112.655 74.9106C115.432 79.8105 117.133 82.81 116.84 82.7264C116.207 82.5455 115.426 82.3273 114.533 82.0777C107.007 79.9744 91.4859 75.6367 88.6961 72.4923C86.9914 74.63 85.4518 76.6168 84.0422 78.4357C77.799 86.492 74.108 91.2549 69.9334 91.2549C64.6924 91.2549 61.5759 86.7508 57.6108 81.0201C55.7525 78.3344 53.7079 75.3794 51.1708 72.4923C35.5668 84.4519 24.7325 83.5793 24.7325 83.5793C24.7325 83.5793 30.4956 62.2269 40.5906 42.9154C49.7818 32.5157 58.881 25.5855 66.2519 25.5854C75.3148 25.5854 83.5439 28.5838 90.9379 33.4182C91.0431 33.6477 91.1487 33.8797 91.2547 34.1141C98.0481 49.1429 107.331 65.5182 112.655 74.9106Z" fill="#458244"/>
<path d="M110.809 70.719C122.356 77.3631 115.259 55.8838 108.885 41.485C102.51 27.0862 88.7184 -6.45787e-06 67.549 3.68021e-06C50.202 1.19878e-05 17.3308 63.5553 25.0287 69.535C31.1871 74.3187 45.643 62.5938 55.2654 55.0638C58.1521 61.7079 62.5107 72.789 69.4388 73.3206C76.367 73.8521 80.4077 61.0435 85.8604 55.0638C87.7849 57.2785 101.572 65.4037 110.809 70.719Z" fill="#83C082"/>
</svg>
