<svg width="55" height="87" viewBox="0 0 55 87" fill="none" xmlns="http://www.w3.org/2000/svg">
<path d="M26.3666 52.5774H31.0925L34.9441 87H22.4543L26.3666 52.5774Z" fill="#93642D"/>
<path d="M26.3328 52.5774H31.0278L33.0691 71.1048H24.2915L26.3328 52.5774Z" fill="#714D22"/>
<path fill-rule="evenodd" clip-rule="evenodd" d="M7.80188 36.6638C7.80188 31.3491 12.1103 27.0406 17.425 27.0406H18.0383C23.353 27.0406 27.6614 31.3491 27.6614 36.6638C27.6614 37.1075 27.6314 37.5442 27.5732 37.972C31.7053 39.0529 34.7542 42.8116 34.7542 47.2825C34.7542 52.5972 30.4458 56.9056 25.1311 56.9056H24.5178C21.685 56.9056 19.1381 55.6816 17.3771 53.7336C15.6161 55.6816 13.0692 56.9056 10.2364 56.9056H9.62311C4.30841 56.9056 0 52.5972 0 47.2825C0 42.5664 3.39261 38.6426 7.87046 37.8186C7.82518 37.44 7.80188 37.0546 7.80188 36.6638Z" fill="#66A865"/>
<path fill-rule="evenodd" clip-rule="evenodd" d="M30.2023 64.5913C26.7954 68.4256 20.7517 68.9807 16.7034 65.8312C12.655 62.6818 12.135 57.0204 15.5419 53.1862L15.8286 52.8635C16.0831 52.5771 16.3523 52.309 16.6343 52.0594C14.3224 48.8453 14.46 44.4378 17.271 41.2741L17.5578 40.9514C20.9647 37.1172 27.0084 36.5621 31.0567 39.7115C33.2461 41.4147 34.4035 43.8526 34.466 46.3388C37.0899 45.9424 39.8628 46.5622 42.0522 48.2654C46.1006 51.4148 46.6206 57.0762 43.2137 60.9104L42.9269 61.2331C39.962 64.57 34.9999 65.4233 31.094 63.5126C30.9083 63.7713 30.7067 64.0237 30.489 64.2686L30.2023 64.5913Z" fill="#66A865"/>
<path fill-rule="evenodd" clip-rule="evenodd" d="M27.7482 33.6736C27.7482 28.2999 32.1045 23.9436 37.4782 23.9436H38.0984C43.4721 23.9436 47.8284 28.2999 47.8284 33.6736C47.8284 34.1223 47.798 34.5638 47.7393 34.9964C51.9172 36.0893 54.9999 39.8898 54.9999 44.4103C54.9999 49.784 50.6436 54.1403 45.2698 54.1403H44.6497C41.7854 54.1403 39.2102 52.9027 37.4297 50.933C35.6491 52.9027 33.0739 54.1403 30.2096 54.1403H29.5895C24.2158 54.1403 19.8595 49.784 19.8595 44.4103C19.8595 39.6417 23.2898 35.6743 27.8175 34.8412C27.7717 34.4584 27.7482 34.0688 27.7482 33.6736Z" fill="#66A865"/>
<path fill-rule="evenodd" clip-rule="evenodd" d="M24.0916 20.4692C24.0916 15.0954 28.4479 10.7391 33.8217 10.7391H34.4418C39.8156 10.7391 44.1718 15.0954 44.1718 20.4692C44.1718 20.9178 44.1415 21.3593 44.0827 21.7919C48.2606 22.8848 51.3433 26.6853 51.3433 31.2058C51.3433 36.5795 46.987 40.9358 41.6133 40.9358H40.9932C38.1289 40.9358 35.5537 39.6982 33.7731 37.7285C31.9926 39.6982 29.4174 40.9358 26.5531 40.9358H25.933C20.5592 40.9358 16.2029 36.5795 16.2029 31.2058C16.2029 26.4372 19.6333 22.4698 24.161 21.6367C24.1152 21.2539 24.0916 20.8643 24.0916 20.4692Z" fill="#66A865"/>
<path fill-rule="evenodd" clip-rule="evenodd" d="M9.73887 24.2702C9.73887 19.861 13.3133 16.2866 17.7225 16.2866H18.2313C22.6406 16.2866 26.2149 19.861 26.2149 24.2702C26.2149 24.6384 26.19 25.0006 26.1418 25.3555C29.5698 26.2523 32.0992 29.3706 32.0992 33.0798C32.0992 37.489 28.5248 41.0634 24.1156 41.0634H23.6068C21.2566 41.0634 19.1436 40.0479 17.6826 38.4318C16.2217 40.0479 14.1087 41.0634 11.7585 41.0634H11.2497C6.84047 41.0634 3.26608 37.489 3.26608 33.0798C3.26608 29.1671 6.08075 25.9118 9.79576 25.2282C9.7582 24.9141 9.73887 24.5944 9.73887 24.2702Z" fill="#66A865"/>
<path fill-rule="evenodd" clip-rule="evenodd" d="M36.1859 16.5446C39.3224 19.6505 39.1843 24.5386 35.8774 27.4625C32.5705 30.3864 27.347 30.2388 24.2104 27.1329L23.8489 26.7748C23.6291 26.5572 23.4255 26.3309 23.2379 26.0971C20.0583 27.6219 16.0535 27.0722 13.4674 24.5113L13.1058 24.1533C9.96923 21.0474 10.1073 16.1593 13.4143 13.2354C15.2026 11.6542 17.5514 10.9712 19.8276 11.1687C19.7457 9.03105 20.6073 6.87538 22.3957 5.29416C25.7026 2.37029 30.9261 2.51786 34.0627 5.62379L34.4242 5.98183C37.1524 8.68334 37.4031 12.7332 35.2461 15.666C35.4456 15.8291 35.6386 16.0026 35.8243 16.1865L36.1859 16.5446Z" fill="#83C082"/>
<path fill-rule="evenodd" clip-rule="evenodd" d="M54.0408 40.3663C52.5657 42.4559 50.2881 43.9385 47.6564 44.3654C47.343 45.7755 46.6643 47.1394 45.6084 48.3277L45.3217 48.6504C42.3567 51.9873 37.3946 52.8406 33.4887 50.9298C33.303 51.1884 33.1014 51.4408 32.8838 51.6857L32.5971 52.0084C29.1902 55.8426 23.1465 56.3977 19.0981 53.2483C16.7461 51.4185 15.585 48.7408 15.6931 46.0661C14.3171 46.825 12.7354 47.2567 11.0529 47.2567H10.4396C6.64171 47.2567 3.35768 45.0566 1.79252 41.8614C0.66412 43.4379 0 45.3694 0 47.4561C0 52.7708 4.30841 57.0792 9.62311 57.0792H10.2364C11.4754 57.0792 12.6597 56.845 13.7475 56.4186C12.5966 59.7988 13.6395 63.6213 16.7034 66.0049C20.7518 69.1544 26.7955 68.5992 30.2024 64.765L30.4891 64.4423C30.7068 64.1973 30.9084 63.9449 31.0941 63.6862C35 65.5969 39.962 64.7436 42.927 61.4067L43.2137 61.084C44.9648 59.1133 45.6785 56.6598 45.4089 54.3129C50.7185 54.2385 54.9999 49.9112 54.9999 44.5838C54.9999 43.0728 54.6554 41.6422 54.0408 40.3663Z" fill="#458244"/>
</svg>
