<svg width="192" height="168" viewBox="0 0 192 168" fill="none" xmlns="http://www.w3.org/2000/svg">
<path d="M14.6912 136.976C14.21 136.02 14.0912 135.117 14.3347 134.267C14.5738 133.408 15.2114 132.717 16.2474 132.196C16.8727 131.881 17.505 131.713 18.1445 131.694C18.775 131.679 19.377 131.851 19.9504 132.212C20.5105 132.568 20.9951 133.153 21.4044 133.965C21.917 134.984 22.0246 135.864 21.7271 136.608C21.4206 137.355 20.7717 137.979 19.7803 138.478C19.3337 138.703 18.878 138.865 18.4131 138.965C17.9483 139.064 17.4944 139.075 17.0515 138.995C16.5951 138.912 16.1696 138.712 15.7752 138.395C15.3673 138.074 15.006 137.601 14.6912 136.976Z" fill="#345D33"/>
<path d="M15.8263 111.89C16.1087 113.312 15.963 114.427 15.3893 115.234C14.8155 116.041 13.9009 116.569 12.6454 116.819C11.6744 117.012 10.7772 116.986 9.95382 116.741C9.11871 116.489 8.41626 116.032 7.84646 115.371C7.26491 114.701 6.86993 113.842 6.66152 112.792C6.47064 111.831 6.51091 111.058 6.78235 110.474C7.05379 109.89 7.523 109.532 8.18997 109.399C8.66078 109.306 9.06467 109.389 9.40163 109.648C9.72684 109.9 9.94691 110.315 10.0618 110.893C10.1066 111.119 10.1446 111.336 10.1757 111.544C10.197 111.754 10.2202 111.948 10.2455 112.126C10.2707 112.305 10.2989 112.472 10.3301 112.629C10.4022 112.992 10.5361 113.256 10.732 113.421C10.926 113.576 11.1799 113.623 11.4938 113.561C11.7782 113.504 11.9696 113.364 12.068 113.141C12.1663 112.917 12.1824 112.639 12.1162 112.305C12.087 112.158 12.0391 111.994 11.9727 111.814C11.8945 111.625 11.8193 111.426 11.747 111.216C11.6747 111.006 11.6181 110.798 11.5772 110.592C11.4876 110.141 11.5411 109.743 11.7377 109.398C11.9245 109.055 12.2582 108.836 12.7388 108.741C13.2194 108.645 13.6675 108.694 14.083 108.887C14.4887 109.081 14.8432 109.429 15.1465 109.93C15.438 110.422 15.6646 111.076 15.8263 111.89Z" fill="#345D33"/>
<path d="M14.201 95.2067C14.2136 95.7865 14.092 96.1743 13.8362 96.3699C13.5702 96.5557 13.1472 96.6499 12.5671 96.6526L12.6365 96.396C13.738 96.9121 14.3054 97.9351 14.3387 99.4647C14.3539 100.165 14.2465 100.747 14.0166 101.212C13.7764 101.667 13.4589 102.014 13.064 102.253C12.6689 102.482 12.2264 102.601 11.7365 102.612C10.9067 102.63 10.2452 102.339 9.75207 101.74C9.2487 101.131 8.98593 100.316 8.96374 99.2966C8.95026 98.6767 9.03338 98.1298 9.21311 97.6557C9.39285 97.1817 9.64919 96.7811 9.98215 96.4537L9.9626 96.9343C9.18278 96.9512 8.63107 97.1083 8.30745 97.4054C7.98384 97.7025 7.82812 98.131 7.8403 98.6908C7.84552 98.9308 7.89117 99.1899 7.97724 99.4681C8.05309 99.7365 8.13417 100.015 8.22046 100.303C8.29675 100.591 8.33815 100.886 8.34468 101.185C8.35338 101.585 8.25526 101.903 8.05031 102.137C7.83514 102.362 7.5576 102.478 7.21768 102.485C6.75779 102.495 6.34365 102.309 5.97525 101.927C5.60685 101.545 5.31072 101.036 5.08685 100.401C4.86276 99.7559 4.74256 99.0583 4.72625 98.3085C4.70493 97.3287 4.8714 96.4749 5.22565 95.747C5.56991 95.0194 6.11879 94.5023 6.87231 94.1958C7.41739 93.9639 8.03387 93.7955 8.72175 93.6905C9.40941 93.5755 10.1432 93.5095 10.923 93.4926C11.7728 93.4741 12.4339 93.5197 12.9064 93.6295C13.3789 93.7392 13.7131 93.927 13.9089 94.1928C14.0945 94.4488 14.1919 94.7868 14.201 95.2067ZM12.0755 98.1936C12.0711 97.9937 12.0368 97.7944 11.9725 97.5957C11.8979 97.3873 11.7991 97.2144 11.6761 97.077C11.5431 96.9399 11.3866 96.8733 11.2067 96.8772C11.0267 96.8811 10.8829 96.9393 10.7753 97.0516C10.6678 97.164 10.591 97.3157 10.5452 97.5067C10.4991 97.6878 10.4784 97.8833 10.4829 98.0932C10.4912 98.4731 10.5778 98.7763 10.7428 99.0028C10.9077 99.2293 11.1102 99.3399 11.3501 99.3347C11.5701 99.3299 11.7479 99.226 11.8835 99.023C12.0189 98.81 12.0829 98.5335 12.0755 98.1936Z" fill="#345D33"/>
<path d="M8.9175 78.6296C8.53352 78.4545 8.20382 78.2083 7.92841 77.891C7.65301 77.5738 7.45667 77.2156 7.3394 76.8166C7.21418 76.4058 7.19376 75.9794 7.27812 75.5374C7.37935 75.007 7.59212 74.5589 7.91642 74.1932C8.24073 73.8276 8.70532 73.5803 9.31021 73.4514C9.9151 73.3225 10.6841 73.3471 11.6173 73.5252C12.0691 73.6114 12.527 73.7192 12.991 73.8485C13.4452 73.9759 13.868 74.1075 14.2595 74.2433C14.6412 74.3772 14.958 74.5038 15.2101 74.6232C15.6689 74.8329 15.9853 75.1224 16.1592 75.4915C16.3349 75.8508 16.3788 76.2613 16.2906 76.723C16.2063 77.165 16.0169 77.4903 15.7226 77.6988C15.4283 77.9073 15.0553 77.9685 14.6034 77.8822C14.4364 77.8504 14.2152 77.7827 13.9397 77.6792C13.6544 77.5739 13.3504 77.4599 13.0277 77.3372C12.7049 77.2145 12.3911 77.0986 12.0861 76.9895C11.7714 76.8785 11.5059 76.8024 11.2898 76.7612C10.9755 76.7012 10.7236 76.7142 10.5341 76.8002C10.3367 76.8745 10.2183 77.0148 10.1789 77.2211C10.1264 77.4961 10.2611 77.7509 10.5828 77.9853C10.9045 78.2198 11.3956 78.4204 12.0561 78.5872C12.5612 78.7142 13.0056 78.8397 13.3891 78.9638C13.7745 79.0781 14.0905 79.2096 14.3369 79.3585C14.676 79.5555 14.9154 79.7946 15.0552 80.0758C15.187 80.3453 15.2145 80.6814 15.1376 81.0842C15.0533 81.5262 14.863 81.8564 14.5668 82.0747C14.2608 82.2912 13.8407 82.3586 13.3065 82.277C13.01 82.2306 12.6603 82.169 12.2576 82.0921C11.8567 82.0054 11.4599 81.9246 11.0669 81.8496C10.6759 81.7648 10.3508 81.7078 10.0917 81.6787C9.7245 81.629 9.44523 81.6521 9.25387 81.7479C9.05457 81.832 8.93335 81.9871 8.89024 82.213C8.84337 82.4586 8.93451 82.6745 9.16365 82.8607C9.3928 83.047 9.73352 83.2087 10.1858 83.346C10.4099 83.3989 10.6889 83.4572 11.0228 83.521C11.3568 83.5847 11.6908 83.6485 12.0248 83.7122C12.3508 83.7642 12.6258 83.8167 12.8499 83.8697C13.5533 84.0243 14.0311 84.2682 14.2831 84.6013C14.5351 84.9345 14.6143 85.3466 14.5205 85.8378C14.4155 86.3878 14.1855 86.7664 13.8304 86.9735C13.4753 87.1806 12.9532 87.2489 12.2642 87.1785C11.8736 87.1447 11.4849 87.1011 11.098 87.0476C10.7112 86.9941 10.3262 86.9308 9.94316 86.8577C9.56007 86.7846 9.15524 86.6921 8.72867 86.5801C8.29227 86.4663 7.88137 86.3522 7.49596 86.238C6.85283 86.0338 6.33767 85.7726 5.95046 85.4543C5.55531 85.1244 5.40928 84.6893 5.51239 84.1491C5.60613 83.6579 5.81604 83.3315 6.14215 83.1698C6.45843 83.0062 6.90634 82.9797 7.48587 83.0903C7.68233 83.1278 7.86124 83.1772 8.0226 83.2385L7.71948 83.2265C7.1185 82.9082 6.68525 82.4844 6.41975 81.9553C6.14442 81.4242 6.06018 80.8788 6.16704 80.3189C6.30389 79.6018 6.63667 79.0851 7.16538 78.7686C7.68426 78.4502 8.34036 78.3463 9.13368 78.457L8.9175 78.6296Z" fill="#345D33"/>
<path d="M10.7487 63.3691C10.9079 62.9913 11.1928 62.7532 11.6032 62.6549C12.0082 62.5435 12.5658 62.5723 13.2759 62.7414L13.3056 63.0958C12.7305 62.658 12.3676 62.1415 12.217 61.5463C12.0664 60.951 12.1212 60.3447 12.3814 59.7273C12.63 59.1376 12.9969 58.6791 13.4821 58.3519C13.9673 58.0246 14.5638 57.8582 15.2715 57.8527C15.9739 57.8341 16.772 58.0131 17.6658 58.3899C19.1126 58.9997 20.0669 59.7221 20.5288 60.5571C20.9854 61.379 21.0215 62.2461 20.6369 63.1584C20.3767 63.7758 20.0326 64.2059 19.6047 64.4487C19.1806 64.6824 18.7414 64.7848 18.2868 64.756L18.2738 64.5552C18.8209 64.699 19.3576 64.8546 19.8838 65.0222C20.4047 65.1767 20.8541 65.3335 21.2319 65.4928C21.7019 65.6909 22.0476 65.9777 22.2691 66.3532C22.4999 66.7326 22.5065 67.1804 22.289 67.6964C22.087 68.1756 21.775 68.4781 21.3529 68.6041C20.9439 68.7247 20.4528 68.7184 19.8795 68.5853C19.4784 68.4813 18.9759 68.3346 18.3721 68.1452C17.759 67.9519 17.1038 67.73 16.4064 67.4794C15.7128 67.2196 15.0343 66.9499 14.3708 66.6702C13.7166 66.3944 13.1135 66.1131 12.5616 65.8262C12.0044 65.5262 11.5616 65.2636 11.2333 65.0384C10.9273 64.8117 10.7361 64.5575 10.6595 64.2756C10.5869 63.9846 10.6166 63.6824 10.7487 63.3691ZM14.2491 61.7843C14.1054 62.1252 14.1593 62.4735 14.4109 62.8292C14.6664 63.1756 15.066 63.4634 15.6097 63.6926C16.1718 63.9295 16.6338 64.0049 16.9957 63.9187C17.3576 63.8325 17.6084 63.6236 17.7483 63.2918C17.9192 62.8864 17.8829 62.5347 17.6396 62.2368C17.4001 61.9296 17.0315 61.6712 16.5339 61.4614C15.9073 61.1973 15.3999 61.1136 15.0118 61.2105C14.6276 61.2981 14.3734 61.4894 14.2491 61.7843Z" fill="#345D33"/>
<path d="M28.8607 48.801C28.6363 49.1442 28.3885 49.3585 28.1175 49.4441C27.838 49.5242 27.5551 49.5184 27.2686 49.4266C26.9792 49.321 26.6964 49.1779 26.4202 48.9972L26.4111 48.9016C26.6888 49.2625 26.8726 49.6575 26.9624 50.0866C27.0576 50.5074 27.0696 50.9275 26.9984 51.3469C26.9243 51.7525 26.7805 52.1185 26.5671 52.4449C26.2441 52.9387 25.8686 53.2845 25.4404 53.4824C25.0038 53.6749 24.4828 53.7225 23.8773 53.6252C23.369 53.5437 22.7487 53.3411 22.0164 53.0175C21.2896 52.6855 20.5705 52.2869 19.8591 51.8216C19.5328 51.6081 19.2439 51.4013 18.9925 51.201C18.7382 50.9869 18.5382 50.7903 18.3924 50.6113C18.14 50.3029 18.0152 49.9823 18.0178 49.6494C18.0259 49.3082 18.1394 48.9702 18.3583 48.6354C18.6156 48.2421 18.9479 48.0173 19.3551 47.961C19.7594 47.8909 20.2012 47.9827 20.6805 48.2364C20.948 48.3755 21.2504 48.5434 21.5877 48.7402C21.9167 48.9314 22.2415 49.12 22.5621 49.3057C22.8827 49.4915 23.1615 49.6499 23.3984 49.781C23.7299 49.95 24.0093 50.0252 24.2366 50.0066C24.4555 49.9825 24.6334 49.8658 24.7702 49.6566C24.9289 49.4139 24.9322 49.1532 24.78 48.8744C24.6248 48.5817 24.3381 48.2986 23.9196 48.0249C23.6936 47.8771 23.4302 47.7227 23.1292 47.5617C22.8337 47.3923 22.5466 47.2284 22.2679 47.07C21.9807 46.9061 21.7493 46.7667 21.5735 46.6518C21.0045 46.2796 20.6697 45.9053 20.5693 45.529C20.4744 45.1443 20.5583 44.7511 20.8211 44.3494C21.0345 44.023 21.289 43.7891 21.5846 43.6479C21.8717 43.5011 22.1806 43.4582 22.5112 43.5191C22.8305 43.5606 23.2268 43.6764 23.7 43.8664C24.1732 44.0564 24.6898 44.2987 25.2499 44.5933C25.8016 44.8825 26.3704 45.2186 26.9562 45.6018C27.8935 46.2148 28.5308 46.775 28.8681 47.2824C29.1971 47.7843 29.1946 48.2905 28.8607 48.801Z" fill="#345D33"/>
<path d="M29.5653 33.3423C30.3043 32.5546 30.9731 32.1194 31.5718 32.0366C32.17 31.9397 32.6843 32.0931 33.1146 32.4968C33.3844 32.7499 33.5214 33.0497 33.5253 33.3963C33.5362 33.7355 33.3911 34.0656 33.09 34.3865C32.8711 34.6198 32.5986 34.8373 32.2725 35.0387C31.946 35.226 31.6219 35.491 31.3003 35.8338C31.1498 35.9942 31.0627 36.1456 31.0389 36.2878C31.022 36.4228 31.061 36.5347 31.1558 36.6237C31.2506 36.7126 31.3719 36.7441 31.5196 36.7182C31.6669 36.6781 31.9059 36.5184 32.2365 36.239C32.8003 35.7258 33.3257 35.3411 33.8127 35.085C34.3066 34.8216 34.7845 34.7215 35.2464 34.7846C35.7009 34.8408 36.1689 35.0947 36.6502 35.5463C37.3577 36.2099 37.6221 36.9585 37.4435 37.7919C37.2718 38.6181 36.7446 39.5015 35.862 40.4423C35.2531 41.0914 34.7019 41.5547 34.2085 41.8322C33.7078 42.1029 33.2622 42.2197 32.872 42.1826C32.4744 42.1387 32.1261 41.9765 31.8271 41.696C31.5353 41.4223 31.3982 41.1154 31.4156 40.7753C31.4326 40.421 31.5643 40.1126 31.8106 39.85C31.9679 39.6823 32.1611 39.5276 32.39 39.3858C32.6117 39.2373 32.8472 39.0812 33.0967 38.9176C33.3462 38.754 33.5735 38.5628 33.7788 38.344C34.0525 38.0523 34.1054 37.8277 33.9377 37.6704C33.8793 37.6156 33.8112 37.586 33.7332 37.5814C33.6548 37.5627 33.546 37.5909 33.4069 37.6661C33.2674 37.7271 33.0841 37.8568 32.8569 38.0551C32.3402 38.489 31.8558 38.8298 31.4039 39.0777C30.952 39.3256 30.5133 39.4351 30.0879 39.4063C29.6552 39.3706 29.2273 39.1543 28.8043 38.7575C28.1188 38.1143 27.8314 37.3099 27.942 36.3442C28.0527 35.3785 28.5938 34.3779 29.5653 33.3423Z" fill="#345D33"/>
<path d="M48.4508 18.2947C49.3647 17.7383 50.2553 17.5473 51.1225 17.7218C51.9983 17.891 52.7378 18.4711 53.341 19.4619C53.705 20.0598 53.9225 20.6767 53.9935 21.3125C54.0593 21.9398 53.9355 22.5537 53.6221 23.1543C53.312 23.7411 52.7683 24.2711 51.9911 24.7443C51.0173 25.3371 50.1481 25.5151 49.3834 25.2782C48.6135 25.0328 47.9399 24.436 47.3627 23.4879C47.1027 23.0609 46.9043 22.6197 46.7676 22.1643C46.6309 21.709 46.5842 21.2574 46.6277 20.8095C46.6744 20.3479 46.8396 19.9078 47.1233 19.4892C47.4104 19.0569 47.8529 18.6587 48.4508 18.2947Z" fill="#345D33"/>
<path d="M69.5225 8.99504L69.3782 9.03598C69.21 8.62633 69.1111 8.223 69.0817 7.82597C69.0494 7.41932 69.1256 7.06507 69.3103 6.76322C69.4922 6.45175 69.8188 6.22914 70.2902 6.09541C70.7712 5.95894 71.1538 5.96995 71.4378 6.12844C71.7218 6.28694 71.9198 6.5634 72.0317 6.95783C72.1736 7.45809 72.1797 7.91895 72.0497 8.3404L71.9261 8.34429C72.211 8.06598 72.5554 7.86951 72.9595 7.75487C73.4597 7.61295 73.8931 7.61993 74.2596 7.77583C74.6329 7.91938 74.9001 8.27496 75.0611 8.84255C75.2113 9.37167 75.1527 9.82485 74.8855 10.2021C74.6156 10.5697 74.2209 10.8272 73.7014 10.9746C73.5186 11.0265 73.3187 11.0728 73.1016 11.1136C72.8914 11.1421 72.6819 11.1547 72.4731 11.1516L72.5002 10.9724C72.7072 11.2255 72.9202 11.5185 73.1394 11.8513C73.3558 12.1745 73.5633 12.521 73.7617 12.8909C73.9671 13.2484 74.1471 13.608 74.3016 13.9695C74.4631 14.3187 74.5847 14.6376 74.6666 14.9262C74.8413 15.5419 74.8252 16.0714 74.6183 16.5147C74.4211 16.9553 74.0098 17.2643 73.3845 17.4417C72.9997 17.5508 72.6583 17.5749 72.3603 17.5139C72.0624 17.4529 71.8023 17.324 71.5801 17.1272C71.358 16.9303 71.1668 16.6779 71.0067 16.37C70.8438 16.0523 70.7078 15.7011 70.5986 15.3163C70.5058 14.9892 70.4262 14.6168 70.3596 14.1991C70.3 13.7691 70.2603 13.3178 70.2406 12.8452C70.2209 12.3727 70.2258 11.9139 70.2555 11.4689L70.5022 11.7887C70.2653 12.1262 69.9111 12.3618 69.4397 12.4955C68.9106 12.6456 68.4601 12.6331 68.0882 12.458C67.7135 12.2732 67.4484 11.9067 67.2928 11.3583C67.1318 10.7907 67.1664 10.308 67.3965 9.91004C67.6362 9.50939 68.0303 9.23128 68.5787 9.0757C68.7518 9.02658 68.9208 8.99942 69.0857 8.99423C69.2478 8.97942 69.3934 8.97969 69.5225 8.99504Z" fill="#345D33"/>
<path d="M82.1845 8.92977C82.0523 7.77733 82.1012 6.93124 82.3312 6.39152C82.5601 5.84187 82.9328 5.53742 83.4494 5.47817C83.7972 5.43829 84.0879 5.51568 84.3216 5.71032C84.5541 5.89502 84.7334 6.14121 84.8592 6.44887C84.9939 6.74546 85.0795 7.05271 85.1159 7.37063L85.038 7.34937C85.1454 6.79351 85.3457 6.30249 85.6391 5.87629C85.9324 5.45009 86.3225 5.20908 86.8093 5.15325C87.4551 5.07919 87.961 5.27784 88.3271 5.7492C88.6932 6.22056 88.9201 6.83874 89.0078 7.60372C89.1229 8.60714 89.0448 9.33075 88.7736 9.77454C88.5112 10.2073 88.1217 10.4532 87.6051 10.5125C87.2077 10.5581 86.9021 10.4824 86.6883 10.2855C86.4832 10.0775 86.3694 9.74326 86.3468 9.28284C86.3279 8.94277 86.2868 8.71598 86.2235 8.60246C86.1689 8.47786 86.0969 8.42069 86.0075 8.43095C85.8784 8.44576 85.7925 8.53109 85.75 8.68695C85.7064 8.83288 85.6993 9.03499 85.729 9.2933C85.7518 9.492 85.8051 9.73752 85.8889 10.0299C85.9728 10.3222 86.065 10.6438 86.1657 10.9946C86.2651 11.3355 86.3597 11.677 86.4492 12.019C86.5388 12.361 86.6001 12.6761 86.6331 12.9642C86.7037 13.5802 86.6048 14.0344 86.3364 14.3269C86.068 14.6194 85.6655 14.7964 85.1291 14.8579C84.6224 14.916 84.1903 14.8347 83.8328 14.614C83.4853 14.3921 83.2233 13.9944 83.0468 13.4208C82.9461 13.07 82.8353 12.6297 82.7141 12.1001C82.6029 11.5693 82.5 11.0225 82.4052 10.4596C82.3093 9.88678 82.2357 9.37684 82.1845 8.92977Z" fill="#345D33"/>
<path d="M100.536 14.3824C99.3082 14.3159 98.3385 14.0981 97.6274 13.7291C96.9163 13.3602 96.4128 12.8572 96.1168 12.2203C95.8308 11.5839 95.711 10.8363 95.7575 9.97757C95.8164 8.88916 96.0911 7.97768 96.5815 7.24312C97.0825 6.49911 97.7385 5.94376 98.5495 5.57707C99.3705 5.21092 100.285 5.05514 101.294 5.10974C102.492 5.17461 103.358 5.46184 103.891 5.97141C104.425 6.47099 104.671 7.10522 104.629 7.8741C104.596 8.48321 104.398 9.00324 104.034 9.4342C103.68 9.86571 103.197 10.1851 102.585 10.3923C101.983 10.6 101.292 10.6828 100.514 10.6407C100.154 10.6212 99.806 10.5773 99.4692 10.509C99.1324 10.4407 98.8314 10.3593 98.5661 10.2648L98.971 9.44551C98.928 9.68354 98.9001 9.92238 98.8871 10.162C98.8639 10.5914 99.0022 10.9043 99.302 11.1008C99.6118 11.2979 100.046 11.4115 100.605 11.4418C101.145 11.471 101.607 11.4409 101.992 11.3516C102.378 11.2524 102.719 11.1556 103.015 11.0615C103.311 10.9573 103.588 10.9123 103.848 10.9263C104.028 10.9361 104.21 10.991 104.395 11.0911C104.58 11.1913 104.732 11.3397 104.852 11.5365C104.971 11.7332 105.022 11.9914 105.005 12.3109C104.981 12.7503 104.795 13.1358 104.447 13.4674C104.098 13.7991 103.594 14.0472 102.934 14.2117C102.284 14.3768 101.485 14.4337 100.536 14.3824ZM99.9506 9.10798C100.43 9.13393 100.851 9.04153 101.212 8.83079C101.575 8.61006 101.765 8.32995 101.784 7.99044C101.796 7.77076 101.725 7.5867 101.573 7.43826C101.421 7.28981 101.205 7.20802 100.926 7.19289C100.616 7.17613 100.318 7.22009 100.032 7.32478C99.7561 7.43001 99.528 7.57289 99.348 7.75342C99.168 7.93395 99.0717 8.13905 99.0593 8.36871C99.0474 8.58839 99.1181 8.76247 99.2714 8.89094C99.4347 9.01996 99.6611 9.0923 99.9506 9.10798Z" fill="#345D33"/>
<path d="M115.084 16.5379C113.887 16.2523 112.972 15.8642 112.339 15.3737C111.706 14.8832 111.3 14.2981 111.123 13.6184C110.956 12.941 110.972 12.1841 111.172 11.3476C111.425 10.2874 111.859 9.43997 112.473 8.80525C113.099 8.16313 113.844 7.73441 114.708 7.51908C115.581 7.30608 116.509 7.31686 117.491 7.55142C118.659 7.8301 119.459 8.2679 119.892 8.86483C120.328 9.45203 120.456 10.1201 120.277 10.8691C120.135 11.4624 119.847 11.9384 119.412 12.2971C118.986 12.6582 118.454 12.8858 117.815 12.9799C117.185 13.0763 116.491 13.0339 115.732 12.8528C115.382 12.7692 115.047 12.6636 114.728 12.536C114.409 12.4084 114.128 12.2744 113.884 12.1338L114.429 11.4004C114.344 11.6269 114.274 11.8568 114.218 12.0903C114.118 12.5085 114.198 12.8412 114.458 13.0882C114.727 13.3376 115.134 13.5274 115.679 13.6574C116.204 13.7828 116.664 13.8362 117.059 13.8174C117.457 13.7889 117.809 13.7549 118.117 13.7152C118.427 13.6659 118.708 13.6714 118.961 13.7318C119.136 13.7736 119.306 13.8603 119.47 13.992C119.634 14.1236 119.757 14.2969 119.839 14.5119C119.921 14.7269 119.925 14.9901 119.851 15.3013C119.749 15.7293 119.497 16.0752 119.094 16.339C118.692 16.6027 118.152 16.7564 117.473 16.8C116.804 16.8459 116.008 16.7586 115.084 16.5379ZM115.453 11.244C115.92 11.3555 116.35 11.34 116.744 11.1976C117.14 11.0454 117.378 10.804 117.457 10.4733C117.508 10.2593 117.472 10.0656 117.349 9.89232C117.226 9.71899 117.028 9.59981 116.756 9.53478C116.454 9.46279 116.153 9.45264 115.853 9.50433C115.563 9.55835 115.313 9.65802 115.103 9.80334C114.894 9.94867 114.762 10.1332 114.709 10.3569C114.658 10.5709 114.696 10.7548 114.824 10.9087C114.961 11.0649 115.171 11.1767 115.453 11.244Z" fill="#345D33"/>
<path d="M140.239 16.4933C141.172 17.0165 141.776 17.6986 142.049 18.5398C142.332 19.3859 142.19 20.3149 141.622 21.3268C141.28 21.9374 140.85 22.4297 140.33 22.8037C139.816 23.1689 139.221 23.3624 138.544 23.3842C137.88 23.4021 137.151 23.1886 136.358 22.7437C135.363 22.1864 134.781 21.5165 134.612 20.734C134.448 19.9427 134.638 19.0629 135.18 18.0946C135.425 17.6585 135.712 17.2691 136.041 16.9265C136.371 16.5839 136.741 16.3215 137.153 16.1395C137.578 15.9536 138.043 15.8815 138.547 15.9232C139.064 15.9611 139.628 16.1511 140.239 16.4933Z" fill="#345D33"/>
<path d="M158.26 29.4615C158.549 29.7519 158.662 30.1057 158.598 30.5228C158.547 30.9399 158.309 31.445 157.884 32.0382L157.545 31.9315C158.168 31.5649 158.783 31.4247 159.391 31.5107C159.999 31.5966 160.54 31.877 161.012 32.3516C161.464 32.805 161.75 33.3182 161.869 33.8912C161.988 34.4641 161.916 35.0792 161.653 35.7363C161.404 36.3935 160.936 37.0643 160.249 37.7489C159.137 38.857 158.107 39.4668 157.159 39.5781C156.226 39.6895 155.41 39.3946 154.711 38.6932C154.238 38.2186 153.97 37.7373 153.907 37.2492C153.852 36.7683 153.923 36.323 154.122 35.9132L154.313 35.9772C153.973 36.4291 153.625 36.8669 153.271 37.2905C152.931 37.7141 152.615 38.0706 152.325 38.36C151.964 38.7199 151.567 38.9313 151.136 38.9942C150.697 39.0641 150.28 38.9007 149.885 38.5039C149.518 38.1356 149.356 37.7322 149.4 37.2939C149.443 36.8697 149.635 36.4175 149.975 35.9373C150.223 35.6054 150.549 35.1959 150.953 34.7088C151.364 34.2145 151.818 33.6921 152.314 33.1415C152.817 32.598 153.323 32.0721 153.833 31.564C154.336 31.0628 154.825 30.6112 155.299 30.209C155.788 29.8069 156.199 29.4965 156.532 29.2779C156.857 29.0806 157.165 28.9998 157.455 29.0357C157.752 29.0787 158.02 29.2206 158.26 29.4615ZM158.401 33.3013C158.14 33.0392 157.797 32.9573 157.373 33.0555C156.956 33.1608 156.538 33.4216 156.12 33.838C155.688 34.2686 155.443 34.6676 155.386 35.0352C155.329 35.4028 155.427 35.7141 155.681 35.9691C155.992 36.2808 156.331 36.3805 156.699 36.268C157.074 36.1627 157.453 35.9194 157.835 35.5383C158.317 35.0583 158.586 34.6204 158.644 34.2246C158.708 33.8358 158.627 33.528 158.401 33.3013Z" fill="#345D33"/>
<path d="M165.609 42.12C166.556 41.4505 167.322 41.087 167.906 41.0294C168.498 40.9661 168.944 41.1468 169.244 41.5714C169.446 41.8572 169.518 42.1494 169.459 42.4479C169.409 42.7406 169.279 43.016 169.07 43.2742C168.874 43.5348 168.646 43.7574 168.385 43.9421L168.366 43.8636C168.905 43.6907 169.432 43.6306 169.947 43.6831C170.461 43.7357 170.86 43.962 171.143 44.3621C171.518 44.8929 171.587 45.4321 171.349 45.9796C171.112 46.5271 170.679 47.0231 170.05 47.4675C169.225 48.0505 168.553 48.3296 168.033 48.3049C167.528 48.2827 167.125 48.0592 166.825 47.6346C166.594 47.3079 166.513 47.0035 166.583 46.7214C166.667 46.4416 166.906 46.1813 167.299 45.9403C167.588 45.7603 167.767 45.6153 167.836 45.5053C167.919 45.3976 167.935 45.307 167.883 45.2335C167.808 45.1273 167.692 45.093 167.535 45.1306C167.386 45.1624 167.205 45.2533 166.993 45.4034C166.829 45.5188 166.64 45.6836 166.424 45.8975C166.207 46.1115 165.97 46.3469 165.71 46.6037C165.459 46.8547 165.205 47.1016 164.948 47.3445C164.691 47.5873 164.444 47.7924 164.208 47.9598C163.701 48.3176 163.255 48.4491 162.87 48.3542C162.484 48.2593 162.136 47.9913 161.824 47.5504C161.53 47.1339 161.394 46.7159 161.415 46.2963C161.443 45.8849 161.666 45.4641 162.084 45.0337C162.344 44.7769 162.676 44.4682 163.083 44.1075C163.495 43.755 163.925 43.402 164.373 43.0485C164.83 42.6893 165.241 42.3798 165.609 42.12Z" fill="#345D33"/>
<path d="M169.464 60.2887C169.075 59.4771 168.893 58.6936 168.919 57.9381C168.958 57.1873 169.196 56.5025 169.631 55.8835C170.071 55.2736 170.701 54.772 171.521 54.3786C172.378 53.968 173.206 53.776 174.006 53.8028C174.807 53.8295 175.532 54.0585 176.182 54.4898C176.837 54.9301 177.359 55.556 177.748 56.3676C178.163 57.2332 178.346 58.066 178.296 58.8658C178.261 59.6703 178.016 60.3975 177.562 61.0475C177.109 61.6974 176.467 62.2212 175.638 62.6189C174.79 63.0252 173.973 63.195 173.187 63.1282C172.405 63.0705 171.694 62.8015 171.053 62.3212C170.413 61.8409 169.883 61.1634 169.464 60.2887ZM172.341 59.1423C172.509 59.494 172.779 59.7087 173.149 59.7864C173.523 59.8732 173.936 59.8085 174.386 59.5924C174.837 59.3762 175.146 59.0951 175.313 58.749C175.484 58.4119 175.485 58.0676 175.317 57.7159C175.144 57.3552 174.87 57.1315 174.496 57.0447C174.126 56.967 173.716 57.0362 173.265 57.2523C172.814 57.4685 172.503 57.7451 172.332 58.0821C172.165 58.4282 172.168 58.7816 172.341 59.1423Z" fill="#345D33"/>
<path d="M170.668 71.4211C170.542 71.0099 170.51 70.6327 170.573 70.2895C170.626 69.9491 170.753 69.6645 170.955 69.4354C171.154 69.1968 171.397 69.0337 171.683 68.9459C172.037 68.8377 172.341 68.839 172.594 68.9497C172.848 69.0605 173.018 69.2593 173.106 69.5461C173.188 69.8139 173.181 70.0984 173.085 70.3997C172.989 70.701 172.781 71.0311 172.462 71.3901L172.44 71.3183C173.473 70.6261 174.486 70.0393 175.478 69.558C176.471 69.0767 177.383 68.7088 178.215 68.4544C179.238 68.1415 180.045 68.0257 180.634 68.1068C181.233 68.1851 181.618 68.5015 181.787 69.0562C181.96 69.6204 181.806 70.159 181.325 70.6721C180.847 71.1947 179.924 71.6651 178.556 72.0833C177.963 72.2646 177.343 72.4231 176.694 72.5587C176.058 72.701 175.443 72.8105 174.849 72.8874C174.256 72.9643 173.732 72.9939 173.277 72.9762C172.525 72.9448 171.941 72.7989 171.527 72.5387C171.103 72.2813 170.817 71.9088 170.668 71.4211ZM182.249 68.6169C182.123 68.2057 182.113 67.848 182.219 67.5438C182.328 67.2492 182.564 67.0463 182.927 66.9352C183.367 66.8007 183.779 66.8316 184.163 67.0278C184.56 67.2307 184.841 67.6047 185.008 68.1497C185.151 68.6183 185.148 69.001 184.998 69.2978C184.851 69.6041 184.596 69.8128 184.233 69.9239C183.774 70.0643 183.364 70.0066 183.004 69.7509C182.656 69.5018 182.404 69.1238 182.249 68.6169Z" fill="#345D33"/>
<path d="M176.725 84.2379C176.546 83.0211 176.566 82.0275 176.786 81.2571C177.006 80.4868 177.398 79.8931 177.963 79.4761C178.53 79.069 179.239 78.8027 180.089 78.6772C181.168 78.518 182.116 78.6056 182.933 78.9398C183.762 79.2825 184.437 79.8146 184.958 80.5363C185.48 81.2679 185.815 82.1332 185.963 83.1324C186.138 84.3196 186.029 85.2252 185.636 85.8493C185.253 86.4719 184.68 86.8394 183.919 86.9518C183.315 87.0409 182.766 86.9501 182.271 86.6794C181.778 86.4186 181.369 86.009 181.044 85.4504C180.72 84.9018 180.501 84.2417 180.387 83.47C180.335 83.1139 180.308 82.764 180.308 82.4203C180.308 82.0767 180.328 81.7654 180.368 81.4867L181.251 81.7202C181.009 81.7255 180.77 81.7457 180.532 81.7808C180.107 81.8435 179.828 82.0414 179.695 82.3744C179.564 82.7172 179.539 83.1656 179.621 83.7196C179.699 84.2539 179.821 84.7009 179.985 85.0608C180.159 85.4192 180.322 85.7338 180.473 86.0046C180.634 86.274 180.734 86.5373 180.772 86.7945C180.798 86.9726 180.781 87.1622 180.719 87.3633C180.658 87.5644 180.543 87.7431 180.374 87.8995C180.205 88.0558 179.962 88.1573 179.646 88.204C179.21 88.2683 178.795 88.1627 178.401 87.8874C178.007 87.612 177.663 87.1674 177.37 86.5535C177.079 85.9496 176.864 85.1777 176.725 84.2379ZM181.777 82.6129C181.847 83.0878 182.022 83.4816 182.3 83.7942C182.589 84.1054 182.901 84.2362 183.238 84.1866C183.455 84.1545 183.622 84.0491 183.737 83.8703C183.852 83.6916 183.889 83.4637 183.848 83.1867C183.803 82.8801 183.7 82.597 183.541 82.3375C183.383 82.0879 183.197 81.8929 182.984 81.7525C182.772 81.612 182.551 81.5586 182.324 81.5922C182.106 81.6243 181.95 81.7283 181.854 81.9041C181.761 82.0898 181.735 82.3261 181.777 82.6129Z" fill="#345D33"/>
<path d="M177.491 98.1362C177.532 96.6868 177.921 95.6322 178.66 94.9724C179.398 94.3127 180.407 94.0006 181.687 94.0361C182.676 94.0636 183.545 94.2878 184.294 94.7087C185.052 95.14 185.636 95.7414 186.045 96.513C186.463 97.2949 186.657 98.2207 186.628 99.2903C186.601 100.27 186.39 101.014 185.996 101.524C185.601 102.033 185.064 102.278 184.385 102.259C183.905 102.246 183.529 102.075 183.258 101.748C182.997 101.43 182.875 100.977 182.891 100.387C182.897 100.157 182.908 99.9373 182.924 99.7276C182.95 99.5183 182.97 99.3238 182.985 99.1441C183 98.9645 183.01 98.7947 183.015 98.6347C183.025 98.2649 182.953 97.9778 182.798 97.7734C182.644 97.579 182.406 97.4774 182.087 97.4685C181.797 97.4605 181.579 97.5545 181.434 97.7505C181.288 97.9465 181.211 98.2145 181.201 98.5544C181.197 98.7043 181.207 98.8747 181.232 99.0654C181.266 99.2664 181.296 99.4773 181.319 99.6981C181.343 99.9188 181.352 100.134 181.346 100.344C181.334 100.804 181.193 101.18 180.925 101.473C180.667 101.766 180.293 101.905 179.803 101.892C179.313 101.878 178.887 101.731 178.525 101.451C178.172 101.171 177.904 100.754 177.719 100.198C177.544 99.6533 177.468 98.9659 177.491 98.1362Z" fill="#345D33"/>
<path d="M185.295 112.018L185.324 111.871C185.765 111.908 186.17 112.003 186.537 112.158C186.913 112.314 187.194 112.543 187.379 112.845C187.573 113.149 187.623 113.541 187.527 114.021C187.43 114.512 187.246 114.847 186.976 115.028C186.705 115.209 186.369 115.259 185.967 115.18C185.457 115.078 185.044 114.874 184.728 114.566L184.78 114.455C184.899 114.835 184.917 115.231 184.835 115.643C184.734 116.153 184.53 116.536 184.225 116.791C183.927 117.058 183.489 117.134 182.91 117.019C182.371 116.912 181.994 116.654 181.779 116.244C181.575 115.837 181.525 115.368 181.63 114.838C181.667 114.652 181.717 114.453 181.78 114.241C181.85 114.041 181.934 113.849 182.032 113.664L182.179 113.77C181.859 113.839 181.502 113.895 181.106 113.939C180.719 113.985 180.316 114.012 179.897 114.02C179.485 114.04 179.083 114.037 178.69 114.01C178.306 113.995 177.967 113.958 177.672 113.9C177.045 113.775 176.581 113.52 176.28 113.134C175.977 112.757 175.889 112.251 176.016 111.613C176.094 111.221 176.228 110.906 176.418 110.668C176.608 110.431 176.841 110.258 177.117 110.15C177.394 110.041 177.705 109.986 178.052 109.984C178.409 109.983 178.784 110.022 179.176 110.1C179.51 110.166 179.878 110.264 180.28 110.395C180.69 110.538 181.11 110.708 181.54 110.905C181.969 111.103 182.376 111.316 182.758 111.545L182.361 111.619C182.169 111.255 182.12 110.832 182.216 110.351C182.323 109.812 182.539 109.417 182.864 109.165C183.199 108.916 183.646 108.846 184.205 108.957C184.784 109.072 185.198 109.323 185.448 109.709C185.695 110.105 185.764 110.582 185.653 111.141C185.618 111.318 185.565 111.48 185.494 111.63C185.434 111.781 185.367 111.91 185.295 112.018Z" fill="#345D33"/>
<path d="M177.211 136.717C176.73 137.673 176.075 138.306 175.247 138.617C174.415 138.936 173.48 138.835 172.444 138.314C171.819 137.999 171.308 137.59 170.911 137.088C170.524 136.591 170.304 136.005 170.252 135.329C170.205 134.667 170.386 133.93 170.795 133.117C171.308 132.099 171.951 131.488 172.725 131.284C173.509 131.085 174.396 131.235 175.387 131.735C175.834 131.959 176.236 132.229 176.593 132.543C176.949 132.857 177.228 133.216 177.428 133.619C177.633 134.035 177.725 134.496 177.706 135.001C177.691 135.52 177.526 136.092 177.211 136.717Z" fill="#345D33"/>
<path d="M117.5 133.27C132.35 135.485 154 143.191 154 143.191C154 143.191 133 168.377 93.5 167.996C54 167.614 34 143.191 34 143.191C34 143.191 56.2922 135.562 70 133.27C89.0736 130.08 98.3363 130.412 117.5 133.27Z" fill="#714D22"/>
<path d="M89.9133 88.6083H96.5295L101.922 136.8H84.4361L89.9133 88.6083Z" fill="#93642D"/>
<path d="M89.866 88.6084H96.4389L99.2968 114.547H87.0081L89.866 88.6084Z" fill="#714D22"/>
<path fill-rule="evenodd" clip-rule="evenodd" d="M63.9226 66.3293C63.9226 58.8887 69.9544 52.8569 77.395 52.8569H78.2536C85.6942 52.8569 91.726 58.8887 91.726 66.3293C91.726 66.9505 91.684 67.5619 91.6026 68.1608C97.3874 69.674 101.656 74.9363 101.656 81.1955C101.656 88.6361 95.6241 94.6679 88.1835 94.6679H87.3249C83.359 94.6679 79.7933 92.9542 77.3279 90.227C74.8626 92.9542 71.2969 94.6679 67.331 94.6679H66.4724C59.0318 94.6679 53 88.6361 53 81.1955C53 74.5929 57.7497 69.0996 64.0187 67.9461C63.9553 67.416 63.9226 66.8764 63.9226 66.3293Z" fill="#66A865"/>
<path fill-rule="evenodd" clip-rule="evenodd" d="M95.2835 105.428C90.5139 110.796 82.0527 111.573 76.385 107.164C70.7173 102.755 69.9893 94.8287 74.759 89.4608L75.1604 89.009C75.5167 88.6081 75.8935 88.2327 76.2883 87.8832C73.0517 83.3835 73.2443 77.213 77.1798 72.7839L77.5812 72.3321C82.3509 66.9642 90.812 66.187 96.4797 70.5963C99.5448 72.9808 101.165 76.3938 101.253 79.8745C104.926 79.3195 108.808 80.1871 111.873 82.5717C117.541 86.9809 118.269 94.9068 113.499 100.275L113.098 100.727C108.947 105.398 102 106.593 96.5319 103.918C96.2719 104.28 95.9897 104.633 95.685 104.976L95.2835 105.428Z" fill="#66A865"/>
<path fill-rule="evenodd" clip-rule="evenodd" d="M91.8475 62.1431C91.8475 54.6198 97.9463 48.521 105.47 48.521H106.338C113.861 48.521 119.96 54.6198 119.96 62.1431C119.96 62.7712 119.917 63.3893 119.835 63.9949C125.684 65.5249 130 70.8456 130 77.1744C130 84.6976 123.901 90.7964 116.378 90.7964H115.51C111.5 90.7964 107.894 89.0637 105.402 86.3062C102.909 89.0637 99.3035 90.7964 95.2935 90.7964H94.4253C86.902 90.7964 80.8032 84.6976 80.8032 77.1744C80.8032 70.4983 85.6058 64.944 91.9445 63.7777C91.8804 63.2417 91.8475 62.6963 91.8475 62.1431Z" fill="#66A865"/>
<path fill-rule="evenodd" clip-rule="evenodd" d="M86.7283 43.6567C86.7283 36.1335 92.8271 30.0347 100.35 30.0347H101.219C108.742 30.0347 114.841 36.1335 114.841 43.6567C114.841 44.2848 114.798 44.903 114.716 45.5085C120.565 47.0386 124.881 52.3593 124.881 58.688C124.881 66.2113 118.782 72.3101 111.259 72.3101H110.39C106.38 72.3101 102.775 70.5774 100.282 67.8198C97.7896 70.5774 94.1843 72.3101 90.1743 72.3101H89.3061C81.7829 72.3101 75.6841 66.2113 75.6841 58.688C75.6841 52.012 80.4866 46.4576 86.8253 45.2913C86.7613 44.7554 86.7283 44.2099 86.7283 43.6567Z" fill="#66A865"/>
<path fill-rule="evenodd" clip-rule="evenodd" d="M66.6344 48.9783C66.6344 42.8054 71.6386 37.8012 77.8115 37.8012H78.5238C84.6968 37.8012 89.7009 42.8054 89.7009 48.9783C89.7009 49.4937 89.666 50.0009 89.5985 50.4977C94.3977 51.7532 97.9389 56.1189 97.9389 61.3116C97.9389 67.4846 92.9347 72.4887 86.7618 72.4887H86.0494C82.7592 72.4887 79.801 71.067 77.7557 68.8045C75.7103 71.067 72.7522 72.4887 69.4619 72.4887H68.7496C62.5766 72.4887 57.5725 67.4846 57.5725 61.3116C57.5725 55.8339 61.513 51.2765 66.714 50.3195C66.6615 49.8798 66.6344 49.4322 66.6344 48.9783Z" fill="#66A865"/>
<path fill-rule="evenodd" clip-rule="evenodd" d="M103.66 38.1624C108.051 42.5107 107.858 49.3541 103.228 53.4475C98.5986 57.5409 91.2858 57.3343 86.8946 52.986L86.3884 52.4848C86.0808 52.1802 85.7957 51.8633 85.533 51.536C81.0816 53.6707 75.4749 52.9011 71.8543 49.3159L71.3481 48.8147C66.9569 44.4664 67.1502 37.623 71.7799 33.5296C74.2836 31.3159 77.572 30.3598 80.7586 30.6361C80.644 27.6435 81.8502 24.6256 84.3539 22.4119C88.9836 18.3184 96.2965 18.525 100.688 22.8733L101.194 23.3746C105.013 27.1567 105.364 32.8265 102.345 36.9324C102.624 37.1608 102.894 37.4037 103.154 37.6612L103.66 38.1624Z" fill="#83C082"/>
<path fill-rule="evenodd" clip-rule="evenodd" d="M128.657 71.5128C126.592 74.4382 123.403 76.5138 119.719 77.1115C119.28 79.0857 118.33 80.9951 116.852 82.6587L116.45 83.1105C112.299 87.7822 105.352 88.9767 99.8841 86.3016C99.6242 86.6638 99.342 87.0171 99.0373 87.3599L98.6359 87.8117C93.8662 93.1796 85.4051 93.9568 79.7374 89.5476C76.4445 86.9859 74.819 83.2371 74.9703 79.4926C73.0439 80.5549 70.8296 81.1594 68.4741 81.1594H67.6154C62.2984 81.1594 57.7007 78.0792 55.5095 73.6059C53.9298 75.8131 53 78.5172 53 81.4384C53 88.879 59.0318 94.9108 66.4724 94.9108H67.331C69.0656 94.9108 70.7236 94.583 72.2465 93.9859C70.6352 98.7183 72.0952 104.07 76.3848 107.407C82.0525 111.816 90.5137 111.039 95.2833 105.671L95.6847 105.219C95.9895 104.876 96.2718 104.523 96.5318 104.161C102 106.836 108.947 105.641 113.098 100.969L113.499 100.518C115.951 97.7585 116.95 94.3237 116.572 91.038C124.006 90.9338 130 84.8755 130 77.4173C130 75.3018 129.518 73.2991 128.657 71.5128Z" fill="#458244"/>
</svg>
