<svg width="212" height="199" viewBox="0 0 212 199" fill="none" xmlns="http://www.w3.org/2000/svg">
<path d="M196.065 195.058L12.1366 167.765C6.47903 166.926 2.67686 161.521 3.79854 155.913L32.617 11.8201C33.6638 6.586 38.6369 3.09675 43.9149 3.89319L199.025 27.2985C203.916 28.0366 207.533 32.2399 207.533 37.1865L207.533 185.166C207.533 191.274 202.106 195.954 196.065 195.058Z" fill="#458244" stroke="#E0FFDF" stroke-width="7" stroke-dasharray="14 28 42 56"/>
<path d="M90.0133 70.0596C89.4752 69.9798 89.1337 69.7189 88.989 69.2769C88.8625 68.8214 88.8514 68.1323 88.9559 67.2096L89.1757 67.3635C88.0336 68.9572 86.228 69.571 83.759 69.2049C82.6353 69.0383 81.7308 68.702 81.0456 68.196C80.3628 67.6742 79.8887 67.0539 79.6232 66.3352C79.3759 65.603 79.311 64.8413 79.4283 64.0499C79.6302 62.6888 80.2646 61.683 81.3315 61.0324C82.4008 60.3661 83.7189 60.1491 85.2858 60.3814C86.3145 60.534 87.1865 60.8169 87.9016 61.2303C88.6167 61.6437 89.2034 62.1593 89.6617 62.7772L89.2651 62.6699C89.3914 61.0549 89.2122 59.8638 88.7275 59.0964C88.261 58.3155 87.4976 57.8464 86.4372 57.6892C85.8199 57.5977 85.236 57.6081 84.6856 57.7206C84.1351 57.8331 83.6231 57.9593 83.1494 58.0994C82.6939 58.2259 82.2763 58.261 81.8964 58.2047C81.5166 58.1484 81.2346 57.9772 81.0506 57.6911C80.8824 57.4073 80.8276 57.0676 80.8863 56.672C80.9708 56.1022 81.3197 55.604 81.9329 55.1773C82.5619 54.753 83.351 54.4495 84.3001 54.2667C85.2491 54.0839 86.2539 54.0712 87.3143 54.2284C88.5963 54.4185 89.6505 54.8903 90.4769 55.6436C91.3033 56.397 91.8659 57.4024 92.1647 58.6598C92.426 59.7338 92.551 60.9088 92.5397 62.185C92.5284 63.4611 92.4171 64.8114 92.2059 66.2358C92.0463 67.3121 91.8677 68.1348 91.6701 68.7039C91.4724 69.2731 91.2373 69.6588 90.9647 69.861C90.7103 70.0497 90.3931 70.1159 90.0133 70.0596ZM85.1609 66.6226C85.6832 66.7001 86.224 66.7075 86.7832 66.6448C87.3448 66.5664 87.8299 66.4038 88.2385 66.157C88.6471 65.9103 88.8843 65.5653 88.95 65.1222C89.0063 64.7423 88.8938 64.4103 88.6125 64.1259C88.3494 63.8281 87.9739 63.5783 87.4862 63.3766C87.0144 63.1772 86.4936 63.0353 85.9238 62.9508C84.9584 62.8076 84.1978 62.8647 83.642 63.122C83.1021 63.3816 82.7911 63.7883 82.7089 64.3423C82.6197 64.9437 82.78 65.4446 83.1897 65.8451C83.6175 66.232 84.2746 66.4912 85.1609 66.6226ZM96.7787 71.0628C96.4305 71.0112 96.1633 70.8502 95.9769 70.58C95.8063 70.3121 95.6906 69.9471 95.6297 69.4852C95.5993 68.8175 95.6141 67.9544 95.674 66.8957C95.7522 65.8236 95.8804 64.6861 96.0588 63.4832C96.1597 62.8027 96.2893 62.0374 96.4477 61.1874C96.6061 60.3375 96.7736 59.4808 96.9502 58.6173C97.1449 57.7404 97.3302 56.9268 97.5062 56.1765C97.698 55.4285 97.8687 54.823 98.0182 54.3599C98.2481 53.6823 98.5111 53.1633 98.8071 52.8028C99.1214 52.4289 99.5476 52.2818 100.086 52.3616C100.64 52.4437 101.012 52.7173 101.201 53.1821C101.394 53.6312 101.444 54.1643 101.352 54.7816C101.249 55.478 101.072 56.2928 100.82 57.2259C100.584 58.1615 100.291 59.1046 99.9396 60.0554L99.3803 60.5548C99.6529 59.9158 100.028 59.3487 100.506 58.8535C100.984 58.3582 101.547 57.9969 102.195 57.7695C102.846 57.5264 103.567 57.4634 104.358 57.5808C105.909 57.8108 107.062 58.5478 107.815 59.7918C108.587 61.0223 108.801 62.8009 108.456 65.1274C108.214 66.7576 107.767 68.0824 107.114 69.1017C106.477 70.1233 105.699 70.8489 104.778 71.2785C103.875 71.6945 102.893 71.8239 101.833 71.6667C100.836 71.5188 100.017 71.0981 99.3754 70.4046C98.75 69.7134 98.4166 68.7986 98.3751 67.6602L98.6688 67.9706C98.4365 69.1008 98.1538 69.9161 97.8208 70.4167C97.5059 70.9038 97.1586 71.1191 96.7787 71.0628ZM101.553 68.8107C102.344 68.9281 103.093 68.6752 103.8 68.0522C104.507 67.4292 104.974 66.358 105.199 64.8386C105.387 63.5724 105.302 62.5085 104.944 61.6467C104.603 60.7873 103.886 60.2766 102.794 60.1147C101.907 59.9833 101.142 60.2338 100.499 60.8662C99.8573 61.4828 99.431 62.5033 99.2198 63.9277C99.0273 65.2255 99.1379 66.3337 99.5517 67.2523C99.9677 68.1551 100.635 68.6746 101.553 68.8107ZM116.011 73.7449C114.745 73.5572 113.678 73.1159 112.811 72.4211C111.961 71.7129 111.353 70.7978 110.986 69.6757C110.634 68.5561 110.565 67.2761 110.779 65.8358C111.002 64.3323 111.457 63.0574 112.146 62.0111C112.835 60.9648 113.702 60.1956 114.745 59.7033C115.804 59.2134 116.967 59.0623 118.233 59.2501C119.594 59.4519 120.728 59.9354 121.633 60.7005C122.541 61.4498 123.191 62.4115 123.583 63.5857C123.975 64.7599 124.063 66.0751 123.847 67.5312C123.627 69.0189 123.16 70.2598 122.446 71.2539C121.733 72.248 120.826 72.9627 119.726 73.3981C118.626 73.8335 117.388 73.9491 116.011 73.7449ZM116.819 70.5892C117.8 70.7348 118.633 70.462 119.318 69.771C120.021 69.0665 120.468 68.0653 120.661 66.7675C120.856 65.4539 120.718 64.3659 120.247 63.5035C119.792 62.6435 119.074 62.1407 118.093 61.9952C117.08 61.845 116.223 62.1143 115.523 62.8029C114.822 63.4916 114.374 64.4928 114.18 65.8064C113.987 67.1042 114.125 68.1922 114.593 69.0704C115.064 69.9328 115.806 70.439 116.819 70.5892ZM136.362 76.5444C135.935 76.4811 135.624 76.2893 135.429 75.9692C135.252 75.6357 135.158 75.2335 135.146 74.7628C135.138 74.2763 135.172 73.7718 135.25 73.2496L135.382 73.1722C135.123 73.8293 134.728 74.3691 134.196 74.7917C133.664 75.2143 133.078 75.5155 132.436 75.6954C131.797 75.8594 131.177 75.8968 130.576 75.8077C129.769 75.688 129.061 75.3889 128.452 74.9105C127.844 74.4321 127.416 73.7702 127.17 72.9249C126.93 72.0321 126.801 70.9373 126.783 69.6407C126.768 68.3282 126.86 66.9993 127.059 65.654C127.167 64.9259 127.298 64.258 127.453 63.6501C127.608 63.0423 127.786 62.5511 127.987 62.1765C128.175 61.7838 128.409 61.5112 128.691 61.3589C128.975 61.1907 129.314 61.1359 129.71 61.1946C130.169 61.2626 130.498 61.4975 130.697 61.899C130.915 62.2871 131.008 62.8024 130.978 63.4449C130.963 63.9765 130.907 64.6313 130.808 65.4092C130.727 66.1736 130.636 66.9447 130.537 67.7226C130.456 68.4869 130.401 69.1338 130.371 69.6631C130.325 70.6268 130.466 71.3675 130.793 71.8852C131.123 72.387 131.573 72.6802 132.143 72.7646C132.982 72.889 133.67 72.6675 134.207 72.1002C134.744 71.5328 135.097 70.6794 135.266 69.5398C135.35 68.9701 135.414 68.3244 135.456 67.6028C135.501 66.8653 135.534 66.1505 135.556 65.4582C135.593 64.7682 135.645 64.2017 135.711 63.7585C135.821 63.0147 136.026 62.5033 136.326 62.2243C136.629 61.9295 137.002 61.8149 137.445 61.8806C137.825 61.9369 138.126 62.0868 138.349 62.3301C138.587 62.5757 138.759 62.8923 138.863 63.2798C139.014 63.7874 139.108 64.4645 139.144 65.311C139.18 66.1574 139.169 67.11 139.109 68.1687C139.049 69.2273 138.933 70.3343 138.762 71.4897C138.499 73.2623 138.183 74.5742 137.814 75.4253C137.448 76.2606 136.964 76.6336 136.362 76.5444ZM147.45 63.7282L146.975 63.6577C147.031 62.9543 147.144 62.2998 147.315 61.6943C147.488 61.073 147.729 60.5912 148.038 60.2489C148.366 59.8931 148.775 59.7516 149.266 59.8243C149.709 59.8901 150.012 60.0806 150.176 60.396C150.339 60.7114 150.384 61.1223 150.309 61.6288C150.161 62.6259 149.844 63.4524 149.359 64.1083L148.938 63.9974C149.838 63.8234 150.825 63.8163 151.902 63.9758C152.582 64.0768 153.1 64.2911 153.456 64.6188C153.83 64.9331 153.971 65.3988 153.88 66.0161C153.793 66.6017 153.49 67.0096 152.97 67.2399C152.451 67.4702 151.835 67.5326 151.123 67.427C150.696 67.3636 150.239 67.2797 149.753 67.1753C149.285 67.0574 148.829 66.9169 148.384 66.7539L148.862 66.3152C148.915 66.9378 148.947 67.6462 148.959 68.4405C148.989 69.2213 148.998 70.0314 148.987 70.8709C148.975 71.7103 148.944 72.5225 148.892 73.3074C148.841 74.0923 148.769 74.7933 148.677 75.4106C148.527 76.4235 148.25 77.1993 147.847 77.738C147.444 78.2766 146.933 78.5002 146.316 78.4087C145.825 78.3359 145.46 78.128 145.22 77.7851C144.995 77.4445 144.854 77.0353 144.795 76.5575C144.755 76.0663 144.756 75.5651 144.8 75.0539C144.859 74.5451 144.919 74.085 144.98 73.6735C145.083 72.9771 145.231 72.1984 145.424 71.3373C145.618 70.4603 145.84 69.5632 146.09 68.6458C146.355 67.7308 146.631 66.8498 146.918 66.0028L147.333 66.4768C146.465 66.7686 145.437 66.8265 144.25 66.6505C143.522 66.5425 142.981 66.3247 142.625 65.9969C142.269 65.6692 142.133 65.2205 142.218 64.6507C142.309 64.0334 142.601 63.5915 143.094 63.3248C143.589 63.0424 144.208 62.9563 144.952 63.0666C145.442 63.1393 145.897 63.2391 146.315 63.3657C146.751 63.4789 147.129 63.5997 147.45 63.7282ZM96.6554 85.513L96.1806 85.4426C96.2364 84.7392 96.3496 84.0847 96.5203 83.4792C96.6933 82.8579 96.9346 82.376 97.2441 82.0337C97.5719 81.678 97.981 81.5365 98.4717 81.6092C98.9148 81.6749 99.2182 81.8655 99.3817 82.1809C99.5452 82.4963 99.5894 82.9072 99.5143 83.4137C99.3664 84.4108 99.0497 85.2373 98.5643 85.8931L98.144 85.7823C99.0432 85.6083 100.031 85.6011 101.107 85.7607C101.788 85.8616 102.306 86.076 102.662 86.4037C103.036 86.7179 103.177 87.1837 103.085 87.8009C102.999 88.3865 102.695 88.7945 102.176 89.0248C101.657 89.2551 101.041 89.3174 100.329 89.2118C99.9012 89.1485 99.4446 89.0646 98.9587 88.9602C98.4909 88.8423 98.0346 88.7018 97.5897 88.5388L98.0672 88.1001C98.1204 88.7226 98.1529 89.4311 98.1645 90.2254C98.1943 91.0062 98.2035 91.8163 98.1923 92.6557C98.181 93.4952 98.1496 94.3073 98.0979 95.0922C98.0462 95.8771 97.9746 96.5782 97.883 97.1955C97.7328 98.2084 97.456 98.9842 97.0527 99.5228C96.6493 100.061 96.139 100.285 95.5217 100.194C95.0311 100.121 94.6656 99.9129 94.4253 99.57C94.2009 99.2293 94.0594 98.8202 94.0008 98.3424C93.9604 97.8512 93.962 97.35 94.0054 96.8388C94.0647 96.33 94.1248 95.8699 94.1859 95.4584C94.2891 94.762 94.4369 93.9832 94.6293 93.1221C94.8241 92.2452 95.0461 91.3481 95.2953 90.4307C95.5604 89.5157 95.8366 88.6347 96.124 87.7877L96.539 88.2617C95.6708 88.5535 94.6432 88.6114 93.4561 88.4353C92.7281 88.3274 92.1862 88.1095 91.8304 87.7818C91.4746 87.4541 91.339 87.0053 91.4235 86.4356C91.515 85.8183 91.807 85.3764 92.2994 85.1097C92.7942 84.8272 93.4136 84.7411 94.1574 84.8515C94.6481 84.9242 95.1023 85.0239 95.5203 85.1506C95.9564 85.2638 96.3348 85.3846 96.6554 85.513ZM108.798 82.7038C109.304 82.7789 109.623 83.0283 109.755 83.4522C109.902 83.8784 109.916 84.4871 109.799 85.2785C109.698 85.959 109.532 86.8078 109.3 87.8248C109.069 88.8418 108.819 89.8158 108.552 90.7466L108.409 90.7255C109.077 89.8217 109.867 89.1301 110.779 88.6507C111.691 88.1713 112.606 87.9997 113.524 88.1358C114.331 88.2555 115.022 88.5601 115.597 89.0497C116.173 89.5234 116.599 90.2011 116.872 91.0828C117.126 91.8806 117.264 92.8068 117.285 93.8614C117.309 94.9001 117.253 95.8785 117.117 96.7964C116.898 98.2684 116.622 99.4243 116.287 100.264C115.968 101.107 115.605 101.7 115.198 102.044C114.794 102.372 114.354 102.501 113.879 102.431C112.882 102.283 112.505 101.394 112.746 99.7635C112.864 98.9721 113.024 98.1629 113.228 97.3358C113.447 96.5111 113.608 95.7505 113.711 95.0541C113.888 93.8671 113.829 92.9526 113.536 92.3107C113.261 91.6553 112.776 91.2759 112.079 91.1727C111.209 91.0436 110.447 91.3269 109.794 92.0226C109.141 92.7184 108.713 93.7468 108.511 95.1079C108.406 95.8201 108.353 96.6129 108.353 97.4864C108.355 98.344 108.304 99.121 108.201 99.8173C108.086 100.593 107.853 101.132 107.5 101.436C107.166 101.726 106.769 101.837 106.31 101.769C105.962 101.717 105.664 101.6 105.416 101.418C105.182 101.254 104.999 100.96 104.868 100.536C104.755 100.099 104.695 99.4672 104.688 98.6412C104.684 98.0099 104.696 97.2757 104.723 96.4386C104.75 95.6015 104.799 94.7272 104.869 93.8157C104.94 92.9042 105.015 92.0176 105.094 91.1559C105.192 90.2807 105.293 89.487 105.399 88.7748C105.732 86.5274 106.187 84.9289 106.765 83.9793C107.345 83.014 108.022 82.5888 108.798 82.7038ZM126.192 104.693C124.435 104.433 123.073 103.964 122.106 103.286C121.139 102.609 120.498 101.746 120.185 100.697C119.871 99.6474 119.816 98.4421 120.017 97.081C120.273 95.3559 120.807 93.9388 121.618 92.8299C122.448 91.7074 123.473 90.9051 124.693 90.4228C125.928 89.9429 127.267 89.8097 128.707 90.0233C130.4 90.2744 131.584 90.8543 132.258 91.763C132.934 92.6559 133.179 93.7354 132.991 95.0015C132.841 96.0145 132.441 96.853 131.793 97.517C131.163 98.1676 130.351 98.6215 129.359 98.8787C128.366 99.1359 127.261 99.1742 126.042 98.9934C125.362 98.8925 124.718 98.7081 124.11 98.4401C123.503 98.1721 122.969 97.8502 122.507 97.4744L123.231 96.5143C123.128 96.8871 123.048 97.2635 122.991 97.6433C122.827 98.7512 123.057 99.6021 123.68 100.196C124.306 100.774 125.26 101.158 126.542 101.348C127.539 101.496 128.351 101.528 128.979 101.443C129.606 101.358 130.137 101.267 130.572 101.169C131.009 101.056 131.426 101.029 131.821 101.088C132.043 101.121 132.231 101.213 132.387 101.366C132.56 101.505 132.686 101.693 132.764 101.931C132.858 102.172 132.881 102.45 132.834 102.767C132.764 103.241 132.458 103.665 131.918 104.038C131.38 104.395 130.622 104.646 129.646 104.793C128.689 104.926 127.537 104.893 126.192 104.693ZM125.966 96.7257C127.09 96.8924 128.027 96.7887 128.778 96.4149C129.529 96.041 129.956 95.5058 130.059 94.8094C130.141 94.2555 130.018 93.7763 129.69 93.3717C129.38 92.9537 128.829 92.6861 128.038 92.5687C127.294 92.4584 126.601 92.5011 125.957 92.6968C125.331 92.879 124.82 93.1671 124.421 93.5609C124.023 93.9548 123.786 94.4129 123.708 94.9352C123.64 95.3942 123.801 95.782 124.191 96.0986C124.599 96.4017 125.19 96.6107 125.966 96.7257ZM66.6059 109.937C67.0332 110.001 67.3517 110.307 67.5615 110.856C67.7736 111.388 67.8553 112.201 67.8065 113.294L67.2411 113.671C67.6902 112.605 68.346 111.837 69.2084 111.367C70.0707 110.896 71.0321 110.739 72.0925 110.897C73.0738 111.042 73.9067 111.424 74.5913 112.044C75.2759 112.663 75.7556 113.518 76.0303 114.61C76.3233 115.689 76.3559 116.996 76.1283 118.531C75.7598 121.016 75.0365 122.785 73.9583 123.838C72.8984 124.878 71.6008 125.284 70.0655 125.056C68.9577 124.892 68.1224 124.526 67.5597 123.957C66.997 123.388 66.6396 122.745 66.4872 122.027L66.7932 121.927C66.779 122.895 66.7423 123.852 66.6829 124.797C66.6418 125.729 66.5696 126.544 66.4663 127.24C66.3607 127.952 66.1449 128.535 65.8189 128.988C65.4929 129.441 65.0529 129.627 64.499 129.544C63.9609 129.465 63.5878 129.199 63.3798 128.748C63.1717 128.296 63.0549 127.721 63.0292 127.022C63.0375 126.311 63.0751 125.403 63.1421 124.297C63.2091 123.19 63.3048 122 63.4292 120.724C63.5695 119.451 63.7288 118.213 63.9072 117.01C64.0903 115.776 64.3012 114.626 64.5399 113.562C64.7968 112.484 65.039 111.614 65.2666 110.952C65.436 110.573 65.6219 110.301 65.8241 110.137C66.0446 109.959 66.3051 109.893 66.6059 109.937ZM70.7143 113.482C69.8596 113.356 69.1078 113.681 68.4588 114.458C67.8279 115.222 67.4151 116.26 67.2203 117.574C67.0208 118.919 67.125 119.962 67.5329 120.702C67.9566 121.444 68.58 121.876 69.403 121.998C70.3526 122.139 71.0883 121.868 71.6101 121.185C72.1501 120.489 72.5093 119.539 72.6876 118.336C72.9153 116.801 72.8208 115.639 72.4041 114.849C71.9898 114.044 71.4265 113.588 70.7143 113.482ZM79.4541 115.943C79.6794 114.424 79.9838 113.353 80.3672 112.73C80.753 112.092 81.2071 111.811 81.7294 111.889C82.1409 111.95 82.4395 112.172 82.6253 112.556C82.8134 112.923 82.9253 113.368 82.961 113.891C82.999 114.398 82.9805 114.905 82.9054 115.412L82.7937 115.346C83.1895 114.532 83.7101 113.857 84.3556 113.322C85.0169 112.789 85.7432 112.581 86.5346 112.699C87.4684 112.837 88.0994 113.327 88.4275 114.168C88.758 114.993 88.8388 115.976 88.6698 117.115C88.4445 118.635 88.1131 119.669 87.6758 120.219C87.2384 120.769 86.7269 121.001 86.1413 120.914C85.714 120.85 85.4232 120.629 85.2691 120.251C85.1308 119.874 85.1591 119.248 85.3538 118.371C85.5556 117.446 85.5964 116.789 85.4763 116.399C85.3562 116.009 85.1062 115.786 84.7263 115.73C84.2674 115.662 83.8441 115.898 83.4566 116.439C83.0872 116.967 82.8403 117.65 82.7159 118.489C82.6666 118.821 82.644 119.247 82.648 119.765C82.6521 120.283 82.657 120.85 82.6627 121.465C82.6709 122.065 82.6711 122.664 82.6634 123.261C82.6557 123.858 82.6154 124.402 82.5427 124.893C82.4136 125.763 82.1864 126.369 81.861 126.709C81.5356 127.048 81.1276 127.182 80.637 127.109C80.083 127.027 79.6815 126.79 79.4324 126.397C79.1857 125.988 79.043 125.369 79.0045 124.538C78.9858 123.791 78.9871 122.91 79.0083 121.894C79.0296 120.878 79.0781 119.842 79.1539 118.786C79.2296 117.729 79.3297 116.782 79.4541 115.943ZM95.3901 129.321C94.124 129.134 93.0572 128.692 92.1897 127.998C91.3404 127.289 90.732 126.374 90.3647 125.252C90.0131 124.132 89.9441 122.852 90.1577 121.412C90.3806 119.909 90.8366 118.634 91.5255 117.587C92.2144 116.541 93.0806 115.772 94.1241 115.28C95.1834 114.79 96.3462 114.639 97.6123 114.826C98.9735 115.028 100.107 115.512 101.012 116.277C101.92 117.026 102.57 117.988 102.962 119.162C103.354 120.336 103.442 121.651 103.226 123.108C103.006 124.595 102.539 125.836 101.825 126.83C101.112 127.824 100.205 128.539 99.1052 128.974C98.0054 129.41 96.7671 129.525 95.3901 129.321ZM96.1978 126.166C97.179 126.311 98.012 126.038 98.6968 125.347C99.3998 124.643 99.8475 123.642 100.04 122.344C100.235 121.03 100.097 119.942 99.6262 119.08C99.1714 118.22 98.4534 117.717 97.4722 117.572C96.4592 117.421 95.6025 117.691 94.9019 118.379C94.2013 119.068 93.7536 120.069 93.5588 121.383C93.3663 122.681 93.5042 123.769 93.9725 124.647C94.4431 125.509 95.1848 126.015 96.1978 126.166ZM104.424 135.635C103.79 135.541 103.241 135.322 102.774 134.978C102.307 134.633 101.954 134.233 101.715 133.777C101.475 133.321 101.387 132.879 101.45 132.452C101.504 132.088 101.641 131.817 101.862 131.64C102.082 131.462 102.343 131.396 102.644 131.44C103.166 131.518 103.698 131.799 104.241 132.284C104.784 132.768 105.273 133.399 105.707 134.175L105.358 134.075C105.418 131.819 105.527 129.668 105.685 127.621C105.861 125.561 106.069 123.723 106.308 122.109C106.526 120.637 106.808 119.554 107.153 118.862C107.517 118.155 107.984 117.844 108.553 117.929C109.202 118.025 109.642 118.608 109.871 119.677C110.101 120.746 110.037 122.484 109.681 124.89C109.523 125.95 109.33 127.037 109.1 128.152C108.872 129.25 108.621 130.289 108.347 131.267C108.088 132.248 107.805 133.063 107.499 133.713C107.123 134.498 106.687 135.04 106.19 135.339C105.709 135.639 105.12 135.738 104.424 135.635ZM108.466 115.902C107.959 115.827 107.564 115.655 107.28 115.387C107.015 115.105 106.917 114.726 106.988 114.251C107.068 113.713 107.317 113.289 107.735 112.979C108.171 112.656 108.729 112.544 109.41 112.645C109.979 112.73 110.394 112.937 110.652 113.266C110.913 113.58 111.009 113.966 110.941 114.425C110.857 114.995 110.585 115.408 110.127 115.663C109.668 115.919 109.115 115.998 108.466 115.902ZM118.738 132.905C116.982 132.644 115.62 132.176 114.653 131.498C113.685 130.821 113.045 129.958 112.732 128.909C112.418 127.859 112.362 126.654 112.564 125.293C112.82 123.568 113.354 122.151 114.165 121.042C114.995 119.919 116.02 119.117 117.239 118.635C118.475 118.155 119.813 118.022 121.253 118.235C122.947 118.486 124.131 119.066 124.805 119.975C125.481 120.868 125.725 121.947 125.538 123.213C125.387 124.226 124.988 125.065 124.34 125.729C123.709 126.379 122.898 126.833 121.906 127.091C120.913 127.348 119.808 127.386 118.589 127.205C117.908 127.104 117.264 126.92 116.657 126.652C116.05 126.384 115.515 126.062 115.053 125.686L115.778 124.726C115.674 125.099 115.594 125.475 115.538 125.855C115.374 126.963 115.603 127.814 116.227 128.408C116.853 128.986 117.807 129.37 119.089 129.56C120.086 129.708 120.898 129.739 121.525 129.655C122.153 129.57 122.684 129.479 123.119 129.381C123.556 129.268 123.973 129.241 124.368 129.3C124.59 129.333 124.778 129.425 124.934 129.578C125.107 129.717 125.233 129.905 125.311 130.143C125.404 130.383 125.428 130.662 125.381 130.978C125.31 131.453 125.005 131.877 124.464 132.25C123.926 132.607 123.169 132.858 122.193 133.005C121.235 133.138 120.084 133.104 118.738 132.905ZM118.513 124.938C119.636 125.104 120.574 125.001 121.325 124.627C122.076 124.253 122.503 123.718 122.606 123.021C122.688 122.467 122.565 121.988 122.237 121.584C121.927 121.166 121.376 120.898 120.585 120.781C119.841 120.67 119.147 120.713 118.504 120.909C117.878 121.091 117.366 121.379 116.968 121.773C116.57 122.167 116.332 122.625 116.255 123.147C116.187 123.606 116.348 123.994 116.737 124.31C117.145 124.614 117.737 124.823 118.513 124.938ZM133.349 135.144C131.165 134.82 129.643 134.012 128.783 132.72C127.939 131.431 127.668 129.773 127.968 127.747C128.2 126.18 128.706 124.84 129.486 123.726C130.284 122.599 131.303 121.78 132.544 121.268C133.803 120.743 135.231 120.599 136.83 120.836C138.27 121.05 139.327 121.449 140 122.034C140.692 122.606 140.984 123.256 140.876 123.984C140.81 124.427 140.615 124.762 140.29 124.989C139.983 125.202 139.561 125.269 139.023 125.189C138.722 125.144 138.421 125.051 138.118 124.909C137.832 124.77 137.513 124.625 137.163 124.476C136.813 124.327 136.385 124.215 135.879 124.14C134.565 123.946 133.524 124.147 132.756 124.745C132.004 125.345 131.531 126.302 131.336 127.616C131.15 128.866 131.332 129.823 131.881 130.486C132.431 131.134 133.253 131.539 134.345 131.701C134.883 131.781 135.358 131.795 135.77 131.743C136.201 131.677 136.598 131.615 136.963 131.556C137.346 131.483 137.719 131.474 138.083 131.528C138.447 131.582 138.73 131.745 138.932 132.017C139.137 132.274 139.207 132.616 139.144 133.044C139.071 133.534 138.804 133.972 138.343 134.356C137.881 134.741 137.234 135.017 136.4 135.184C135.569 135.336 134.552 135.323 133.349 135.144ZM147.299 122.34L146.825 122.27C146.88 121.566 146.994 120.912 147.164 120.306C147.337 119.685 147.579 119.203 147.888 118.861C148.216 118.505 148.625 118.364 149.116 118.436C149.559 118.502 149.862 118.693 150.026 119.008C150.189 119.323 150.233 119.734 150.158 120.241C150.01 121.238 149.694 122.064 149.208 122.72L148.788 122.609C149.687 122.435 150.675 122.428 151.751 122.588C152.432 122.689 152.95 122.903 153.306 123.231C153.68 123.545 153.821 124.011 153.729 124.628C153.642 125.214 153.339 125.622 152.82 125.852C152.301 126.082 151.685 126.145 150.973 126.039C150.545 125.976 150.089 125.892 149.603 125.787C149.135 125.669 148.679 125.529 148.234 125.366L148.711 124.927C148.764 125.55 148.797 126.258 148.808 127.052C148.838 127.833 148.847 128.643 148.836 129.483C148.825 130.322 148.794 131.134 148.742 131.919C148.69 132.704 148.619 133.405 148.527 134.023C148.377 135.035 148.1 135.811 147.697 136.35C147.293 136.889 146.783 137.112 146.166 137.021C145.675 136.948 145.31 136.74 145.069 136.397C144.845 136.056 144.703 135.647 144.645 135.169C144.604 134.678 144.606 134.177 144.649 133.666C144.709 133.157 144.769 132.697 144.83 132.285C144.933 131.589 145.081 130.81 145.273 129.949C145.468 129.072 145.69 128.175 145.939 127.258C146.204 126.343 146.481 125.462 146.768 124.615L147.183 125.089C146.315 125.381 145.287 125.438 144.1 125.262C143.372 125.154 142.83 124.937 142.474 124.609C142.119 124.281 141.983 123.832 142.067 123.263C142.159 122.645 142.451 122.203 142.943 121.937C143.438 121.654 144.058 121.568 144.801 121.679C145.292 121.751 145.746 121.851 146.164 121.978C146.6 122.091 146.979 122.212 147.299 122.34Z" fill="#E0FFDF"/>
</svg>
