<svg width="158" height="174" viewBox="0 0 158 174" fill="none" xmlns="http://www.w3.org/2000/svg">
<path d="M142.439 170.353L12.6125 155.374C6.83507 154.707 2.84301 149.27 3.93728 143.558L29.152 11.9428C30.123 6.87411 34.7918 3.37694 39.929 3.8701L66.2083 6.39293C69.0285 6.66366 71.6015 8.11796 73.288 10.3945L151.621 116.133C152.897 117.855 153.585 119.942 153.585 122.086L153.585 160.419C153.585 166.396 148.377 171.038 142.439 170.353Z" fill="#345D33" stroke="#E0FFDF" stroke-width="7" stroke-dasharray="14 28 42 56"/>
<path d="M60.5245 78.726C60.2101 78.282 60.1626 77.8549 60.382 77.4448C60.6236 77.0385 61.1139 76.5541 61.8528 75.9918L61.8936 76.257C59.9524 76.5334 58.2608 75.6531 56.8185 73.6159C56.1621 72.6887 55.7799 71.8027 55.6719 70.9578C55.5769 70.1037 55.6973 69.3323 56.0331 68.6437C56.3913 67.9589 56.8968 67.3853 57.5497 66.9231C58.6728 66.128 59.8381 65.8911 61.0458 66.2124C62.2665 66.5244 63.3344 67.3268 64.2497 68.6196C64.8506 69.4684 65.2489 70.2941 65.4446 71.0966C65.6402 71.899 65.6732 72.6794 65.5435 73.4378L65.347 73.077C66.6012 72.0519 67.338 71.0989 67.5575 70.2182C67.7992 69.3413 67.6104 68.4654 66.991 67.5905C66.6304 67.0812 66.2193 66.6666 65.7575 66.3466C65.2957 66.0266 64.8505 65.7438 64.4218 65.4984C64.0155 65.2567 63.7014 64.9792 63.4795 64.6658C63.2577 64.3524 63.1865 64.0303 63.266 63.6996C63.3547 63.3819 63.5624 63.1075 63.8888 62.8764C64.3589 62.5435 64.9601 62.4512 65.6923 62.5994C66.4338 62.7606 67.1986 63.1209 67.9867 63.6803C68.7748 64.2398 69.4786 64.957 70.098 65.8319C70.8469 66.8897 71.2348 67.9775 71.2617 69.0955C71.2886 70.2135 70.951 71.315 70.249 72.4001C69.6536 73.3313 68.8909 74.2339 67.961 75.1079C67.031 75.982 65.9784 76.835 64.8031 77.667C63.9152 78.2957 63.1972 78.7353 62.6493 78.986C62.1014 79.2367 61.6602 79.3334 61.3257 79.2762C61.0134 79.2228 60.7463 79.0394 60.5245 78.726ZM59.6536 72.8439C59.9587 73.2748 60.3272 73.6707 60.759 74.0314C61.2039 74.383 61.6568 74.6211 62.1175 74.7458C62.5783 74.8705 62.9915 74.8034 63.3571 74.5446C63.6705 74.3227 63.8327 74.0118 63.8437 73.612C63.877 73.2159 63.7979 72.772 63.6066 72.2802C63.4244 71.8014 63.167 71.3269 62.8342 70.8568C62.2702 70.0602 61.7032 69.5501 61.1331 69.3263C60.5723 69.1157 60.0634 69.1721 59.6063 69.4957C59.1101 69.847 58.8589 70.3091 58.8528 70.8819C58.8689 71.4586 59.1359 72.1126 59.6536 72.8439ZM65.9373 86.5379C65.0313 85.2581 64.8007 83.9217 65.2455 82.5286C65.7034 81.1262 66.9183 79.727 68.8901 78.331C70.8489 76.9443 72.5285 76.2845 73.9288 76.3518C75.3513 76.4229 76.5341 77.1244 77.4771 78.4564C78.0133 79.2138 78.3235 79.9842 78.4076 80.7676C78.501 81.5641 78.4176 82.3877 78.1573 83.2385L77.968 83.1372C78.4202 82.6407 78.9051 82.121 79.4226 81.5782C79.94 81.0354 80.4388 80.5353 80.9187 80.0779C81.4209 79.6243 81.8288 79.2866 82.1422 79.0647C82.5862 78.7503 82.9765 78.5818 83.3133 78.559C83.6631 78.527 83.949 78.6677 84.1708 78.9811C84.4852 79.4251 84.5501 79.9183 84.3655 80.4606C84.194 80.9937 83.7877 81.6244 83.1467 82.3527C82.5748 83.0124 81.8584 83.7451 80.9976 84.5505C80.1498 85.3468 79.2378 86.1492 78.2616 86.9579C77.3078 87.7704 76.3607 88.5095 75.4205 89.1752C74.1146 90.0997 73.0452 90.749 72.2122 91.123C71.4015 91.5009 70.7647 91.6675 70.3018 91.6228C69.8481 91.5911 69.5057 91.412 69.2745 91.0856C68.9879 90.6808 68.9962 90.2632 69.2993 89.833C69.6025 89.4027 70.2203 88.8771 71.1529 88.2561L71.3609 88.5499C70.3017 88.7705 69.2901 88.7123 68.3262 88.3753C67.3715 88.0514 66.5752 87.4389 65.9373 86.5379ZM69.1012 85.8565C69.434 86.3266 69.8567 86.6743 70.3691 86.8996C70.9038 87.1288 71.509 87.1806 72.1847 87.0551C72.8696 86.9427 73.6039 86.6091 74.3874 86.0544C75.3929 85.3426 76.0473 84.5362 76.3505 83.6354C76.6668 82.7254 76.5199 81.8394 75.9097 80.9775C75.429 80.2985 74.7553 79.9422 73.8887 79.9088C73.0313 79.8885 72.0346 80.2805 70.8985 81.0848C69.893 81.7967 69.2117 82.5927 68.8546 83.4728C68.5198 84.3567 68.602 85.1513 69.1012 85.8565ZM87.5382 97.4444C88.1661 97.196 88.811 97.0824 89.4731 97.1038C90.1444 97.1383 90.7705 97.3027 91.3514 97.5972C91.9547 97.8954 92.4597 98.3319 92.8665 98.9064C93.3472 99.5855 93.6092 100.302 93.6526 101.055C93.6959 101.809 93.4517 102.599 92.92 103.426C92.3975 104.267 91.516 105.126 90.2754 106.004C89.6356 106.457 88.9707 106.889 88.2808 107.299C87.5908 107.709 86.9374 108.074 86.3204 108.393C85.7034 108.712 85.1732 108.96 84.7298 109.137C84.115 109.376 83.5734 109.455 83.105 109.375C82.6459 109.308 82.273 109.072 81.9864 108.667C81.746 108.328 81.7067 107.954 81.8684 107.545C82.0301 107.137 82.3916 106.734 82.9532 106.336C83.2143 106.151 83.5705 105.948 84.0215 105.727C84.4856 105.496 84.987 105.249 85.5256 104.986C86.0773 104.713 86.6309 104.429 87.1864 104.133C87.742 103.838 88.2482 103.529 88.7053 103.205C89.3844 102.724 89.8096 102.217 89.9811 101.684C90.1657 101.142 90.0823 100.623 89.731 100.126C89.3427 99.578 88.7318 99.3243 87.8984 99.3654C87.0873 99.4104 86.1166 99.7839 84.9865 100.486C83.9832 101.118 83.089 101.682 82.3038 102.179C81.5318 102.667 80.8487 103.004 80.2546 103.189C79.8411 103.325 79.4801 103.355 79.1717 103.279C78.8725 103.217 78.6119 103.029 78.3901 102.715C78.1404 102.363 78.0723 101.989 78.1855 101.596C78.308 101.215 78.6408 100.813 79.1838 100.389C79.6354 100.03 80.1858 99.6306 80.8349 99.1907C81.4841 98.7507 82.122 98.3089 82.7488 97.8651C83.398 97.4252 83.9222 97.0442 84.3216 96.7223C85.1204 96.0783 85.6278 95.4937 85.8439 94.9682C86.0693 94.4558 86.0109 93.958 85.6689 93.4748C85.2713 92.9133 84.6912 92.6477 83.9285 92.6779C83.175 92.7213 82.3069 93.032 81.3243 93.61C80.9271 93.852 80.4478 94.1718 79.8862 94.5693C79.347 94.9706 78.8078 95.372 78.2686 95.7733C77.7294 96.1747 77.2677 96.4917 76.8835 96.7245C76.0908 97.2661 75.4414 97.5396 74.9355 97.5449C74.4388 97.5633 74.0471 97.3701 73.7606 96.9652C73.4185 96.4821 73.3256 96.0185 73.4818 95.5747C73.6473 95.1438 74.053 94.6508 74.6989 94.0955C75.2757 93.6088 75.8552 93.1397 76.4374 92.6883C77.0326 92.2277 77.6306 91.7847 78.2313 91.3595C78.8451 90.9249 79.5203 90.4665 80.257 89.9841C81.003 89.5148 81.719 89.0863 82.4051 88.6986C83.1135 88.3147 83.7591 88.0636 84.3418 87.9451C84.9244 87.8267 85.3775 87.996 85.7011 88.453C85.9692 88.8317 85.9694 89.2335 85.7016 89.6583C85.4469 90.0738 84.9344 90.5544 84.1639 91.0998C83.9027 91.2847 83.6473 91.4362 83.3975 91.5541L83.7477 91.218C84.7814 90.8783 85.7367 90.8293 86.6136 91.071C87.5036 91.3036 88.1981 91.7724 88.6974 92.4776C89.3538 93.4047 89.5665 94.3421 89.3356 95.2898C89.1178 96.2281 88.505 97.0932 87.4973 97.8851L87.5382 97.4444ZM101.733 104.661C102.103 105.183 102.223 105.657 102.093 106.082C101.972 106.521 101.722 106.874 101.343 107.142C100.873 107.475 100.406 107.59 99.9414 107.488C99.4992 107.389 99.0978 107.085 98.7372 106.576C98.3859 106.08 98.2595 105.61 98.3581 105.168C98.4697 104.717 98.7149 104.357 99.0936 104.089C99.5898 103.737 100.068 103.624 100.529 103.749C100.99 103.874 101.391 104.177 101.733 104.661ZM97.4484 107.871C97.7442 108.288 97.5836 108.892 96.9665 109.682C96.3586 110.485 95.1993 111.492 93.4886 112.703C91.3862 114.191 89.765 115.114 88.6252 115.47C87.4854 115.826 86.6983 115.697 86.2638 115.083C85.9309 114.613 86.0255 114.027 86.5474 113.324C87.0823 112.612 88.2051 111.65 89.9158 110.439C92.0183 108.951 93.699 108.016 94.9579 107.634C96.2392 107.256 97.0693 107.335 97.4484 107.871ZM103.319 112.923C103.615 113.341 103.644 113.742 103.406 114.126C103.177 114.523 102.73 114.957 102.064 115.429C101.907 115.54 101.728 115.647 101.527 115.75C101.348 115.857 101.173 115.942 101.001 116.005L101.365 115.688C102.436 115.401 103.438 115.417 104.37 115.737C105.316 116.048 106.047 116.569 106.565 117.3C107.138 118.11 107.386 118.944 107.308 119.803C107.239 120.675 106.886 121.533 106.248 122.377C105.619 123.233 104.743 124.059 103.62 124.854C102.928 125.344 102.22 125.797 101.494 126.212C100.791 126.632 100.122 126.988 99.4866 127.281C98.8734 127.578 98.3489 127.792 97.9131 127.924C97.3582 128.082 96.8819 128.115 96.4842 128.024C96.0996 127.924 95.7871 127.704 95.5468 127.365C95.3064 127.025 95.2456 126.676 95.3642 126.318C95.4829 125.959 95.7512 125.632 96.1691 125.336C96.6131 125.022 97.1716 124.676 97.8446 124.297C98.5307 123.909 99.2188 123.51 99.9087 123.1C100.621 122.694 101.245 122.302 101.78 121.923C103.608 120.628 104.097 119.38 103.247 118.179C102.794 117.539 102.127 117.207 101.248 117.183C100.381 117.15 99.3745 117.431 98.2281 118.027C97.8478 118.237 97.3965 118.527 96.8741 118.897C96.3518 119.267 95.8294 119.637 95.3071 120.007C94.807 120.38 94.3668 120.672 93.9865 120.883C93.166 121.385 92.4982 121.632 91.983 121.625C91.4771 121.63 91.0762 121.424 90.7803 121.006C90.4383 120.523 90.4014 120 90.6697 119.437C90.9511 118.866 91.6272 118.201 92.6981 117.443C93.2465 117.055 93.8695 116.633 94.5671 116.178C95.2646 115.724 95.9668 115.276 96.6736 114.834C97.4027 114.396 98.0711 114.011 98.6788 113.679C99.829 113.061 100.799 112.659 101.588 112.472C102.391 112.277 102.968 112.427 103.319 112.923Z" fill="#E0FFDF"/>
</svg>
