<svg width="222" height="143" viewBox="0 0 222 143" fill="none" xmlns="http://www.w3.org/2000/svg">
<path d="M3.78955 96.1L10.9437 12.754C11.4361 7.01814 16.6577 2.88148 22.354 3.71451L209.094 31.0228C214.006 31.741 217.647 35.9536 217.647 40.9175L217.647 129.338C217.647 135.518 212.096 140.219 206 139.201L12.1056 106.819C6.96334 105.96 3.34367 101.294 3.78955 96.1Z" fill="#83C082" stroke="#E0FFDF" stroke-width="7" stroke-dasharray="14 28 42 56"/>
<path d="M61.9622 70.0351C60.4119 69.7999 59.2894 69.0389 58.5945 67.7521C57.9021 66.4495 57.737 64.6039 58.0994 62.2152C58.4594 59.8424 59.1493 58.175 60.1691 57.2131C61.2072 56.2377 62.5329 55.8725 64.1465 56.1173C65.064 56.2565 65.834 56.5675 66.4567 57.0503C67.0951 57.5356 67.6304 58.167 68.0627 58.9447L67.8585 59.0108C67.8145 58.3406 67.7765 57.6309 67.7445 56.8816C67.7126 56.1323 67.6983 55.4262 67.7018 54.7632C67.7235 54.0868 67.7632 53.5588 67.8208 53.1791C67.9023 52.6413 68.0517 52.2432 68.269 51.9849C68.4886 51.7107 68.7882 51.6024 69.1678 51.66C69.7057 51.7416 70.1059 52.037 70.3685 52.5461C70.6335 53.0395 70.806 53.7696 70.8858 54.7365C70.9643 55.6061 70.995 56.6303 70.978 57.8091C70.9634 58.972 70.9088 60.1856 70.8141 61.4497C70.7376 62.7004 70.613 63.8952 70.4402 65.0342C70.2002 66.6161 69.926 67.8367 69.6176 68.6962C69.3274 69.5422 69.0057 70.1165 68.6523 70.4189C68.3148 70.7237 67.9483 70.8461 67.5528 70.7861C67.0624 70.7117 66.7674 70.4161 66.6678 69.8994C66.5682 69.3826 66.6182 68.5729 66.8178 67.4704L67.1737 67.5244C66.5978 68.4404 65.8542 69.1286 64.9428 69.5891C64.0472 70.052 63.0537 70.2007 61.9622 70.0351ZM63.6662 67.2835C64.2357 67.3699 64.7793 67.3068 65.2971 67.094C65.833 66.8679 66.2902 66.4679 66.6685 65.8942C67.0627 65.3228 67.3318 64.5626 67.4758 63.6134C67.6606 62.3954 67.5337 61.3647 67.0953 60.5214C66.6592 59.6623 65.9191 59.1535 64.8751 58.9951C64.0525 58.8703 63.3286 59.1084 62.7034 59.7094C62.094 60.3129 61.6849 61.3027 61.4761 62.6789C61.2913 63.897 61.392 64.9399 61.7782 65.8077C62.1826 66.662 62.812 67.1539 63.6662 67.2835ZM77.7758 53.4757C78.4085 53.5717 78.833 53.8141 79.0491 54.2029C79.281 54.5941 79.3622 55.0191 79.2926 55.4778C79.2062 56.0473 78.965 56.4639 78.569 56.7274C78.1912 56.9776 77.6938 57.0559 77.0769 56.9623C76.4758 56.8711 76.0501 56.6366 75.8 56.2588C75.5522 55.8652 75.4631 55.439 75.5327 54.9803C75.6239 54.3791 75.8742 53.9559 76.2837 53.7105C76.6931 53.4652 77.1905 53.3869 77.7758 53.4757ZM77.1154 58.7887C77.6216 58.8655 77.9451 59.4001 78.0858 60.3924C78.2424 61.3872 78.1635 62.9207 77.8491 64.993C77.4627 67.5398 77.0024 69.3472 76.4682 70.4152C75.9339 71.4831 75.2951 71.9607 74.5516 71.8479C73.9821 71.7615 73.6253 71.2866 73.4812 70.4232C73.3394 69.544 73.4258 68.0683 73.7401 65.996C74.1265 63.4491 74.619 61.59 75.2174 60.4185C75.8342 59.2336 76.4668 58.6903 77.1154 58.7887ZM81.791 61.7556C82.0214 60.237 82.3294 59.1671 82.7149 58.5459C83.1028 57.9089 83.5578 57.6299 84.0798 57.7091C84.4911 57.7715 84.789 57.9947 84.9735 58.3788C85.1604 58.747 85.2708 59.1926 85.3048 59.7156C85.3411 60.2228 85.3209 60.7294 85.2441 61.2357L85.1326 61.1702C85.5311 60.3568 86.054 59.6836 86.7013 59.1506C87.3644 58.6201 88.0914 58.4148 88.8823 58.5348C89.8156 58.6764 90.445 59.1684 90.7703 60.0107C91.0981 60.8372 91.1755 61.8199 91.0027 62.9589C90.7723 64.4775 90.4375 65.511 89.9983 66.0593C89.5591 66.6077 89.0469 66.8374 88.4616 66.7486C88.0344 66.6838 87.7445 66.4618 87.5916 66.0826C87.4546 65.7058 87.4849 65.0792 87.6826 64.203C87.8874 63.2793 87.9305 62.6223 87.8117 62.2321C87.6928 61.8418 87.4436 61.6179 87.064 61.5603C86.6052 61.4907 86.1812 61.7258 85.7918 62.2655C85.4207 62.7917 85.1715 63.4741 85.0443 64.3125C84.9939 64.6447 84.9698 65.0699 84.9721 65.5881C84.9744 66.1063 84.9775 66.6732 84.9812 67.2887C84.9873 67.8884 84.9855 68.4869 84.9758 69.0842C84.9661 69.6815 84.924 70.2254 84.8496 70.7157C84.7177 71.5858 84.4884 72.1902 84.1619 72.5291C83.8354 72.868 83.4269 73.0002 82.9365 72.9258C82.3828 72.8418 81.9821 72.603 81.7344 72.2094C81.489 71.7999 81.3484 71.1798 81.3126 70.3491C81.2965 69.6022 81.3007 68.7209 81.3254 67.7051C81.35 66.6893 81.402 65.6533 81.4813 64.5973C81.5606 63.5412 81.6638 62.594 81.791 61.7556ZM98.5422 75.439C96.7863 75.1726 95.4259 74.6992 94.461 74.0188C93.4962 73.3383 92.8588 72.4729 92.5488 71.4226C92.2388 70.3722 92.1871 69.1668 92.3934 67.8063C92.655 66.0821 93.1934 64.6668 94.0086 63.5606C94.8419 62.4409 95.8694 61.642 97.0909 61.1638C98.3283 60.688 99.6667 60.5593 101.106 60.7777C102.799 61.0345 103.981 61.6184 104.652 62.5293C105.325 63.4244 105.566 64.5047 105.374 65.7703C105.22 66.7827 104.818 67.6198 104.167 68.2817C103.535 68.9302 102.722 69.3814 101.729 69.6353C100.735 69.8892 99.6297 69.9237 98.4117 69.7389C97.7314 69.6357 97.0882 69.4491 96.4818 69.1791C95.8754 68.9091 95.3419 68.5854 94.8813 68.2081L95.6092 67.2504C95.5042 67.6229 95.4228 67.9989 95.3652 68.3786C95.1972 69.4859 95.4241 70.3376 96.0457 70.9335C96.6697 71.5137 97.6224 71.901 98.9038 72.0954C99.9004 72.2466 100.712 72.2808 101.34 72.1979C101.967 72.1151 102.499 72.0258 102.934 71.93C103.372 71.8184 103.788 71.7926 104.184 71.8526C104.405 71.8862 104.594 71.9795 104.748 72.1324C104.921 72.272 105.046 72.4609 105.124 72.6991C105.217 72.9398 105.239 73.2183 105.191 73.5347C105.119 74.0093 104.812 74.432 104.27 74.803C103.731 75.1581 102.973 75.4072 101.997 75.5504C101.038 75.6801 99.8868 75.643 98.5422 75.439ZM98.3431 67.471C99.4662 67.6413 100.404 67.5409 101.156 67.1695C101.908 66.7981 102.337 66.2644 102.443 65.5684C102.527 65.0147 102.405 64.5351 102.079 64.1294C101.77 63.7104 101.22 63.4409 100.429 63.3209C99.6856 63.2081 98.9917 63.2485 98.3474 63.442C97.7213 63.6222 97.2086 63.9085 96.8092 64.301C96.4098 64.6936 96.1705 65.1508 96.0913 65.6729C96.0217 66.1316 96.1812 66.5199 96.57 66.8378C96.9769 67.1423 97.5679 67.3534 98.3431 67.471ZM113.145 77.7272C110.962 77.396 109.443 76.583 108.588 75.288C107.748 73.9954 107.482 72.3368 107.789 70.3119C108.027 68.7458 108.537 67.4073 109.321 66.2962C110.122 65.1718 111.144 64.3558 112.386 63.8484C113.647 63.3275 115.076 63.1883 116.674 63.4307C118.113 63.6491 119.169 64.052 119.84 64.6393C120.53 65.2133 120.82 65.8641 120.709 66.5918C120.642 67.0347 120.446 67.369 120.12 67.5948C119.813 67.8071 119.39 67.8724 118.852 67.7908C118.552 67.7452 118.25 67.651 117.948 67.5081C117.662 67.3675 117.345 67.2222 116.995 67.0721C116.646 66.922 116.218 66.8086 115.712 66.7318C114.399 66.5326 113.357 66.7306 112.587 67.3258C111.833 67.9235 111.356 68.8788 111.157 70.1918C110.968 71.4415 111.146 72.399 111.692 73.0645C112.241 73.7142 113.061 74.1218 114.153 74.2874C114.691 74.369 115.166 74.3844 115.578 74.3337C116.008 74.2695 116.406 74.2085 116.771 74.1506C117.154 74.0792 117.527 74.0711 117.891 74.1263C118.255 74.1815 118.538 74.3458 118.739 74.619C118.943 74.8765 119.012 75.2188 118.947 75.6459C118.873 76.1363 118.604 76.573 118.142 76.9559C117.679 77.3388 117.03 77.6127 116.196 77.7774C115.365 77.9263 114.348 77.9096 113.145 77.7272ZM127.138 64.9697L126.664 64.8977C126.722 64.1945 126.837 63.5404 127.01 62.9355C127.185 62.3147 127.428 61.8337 127.739 61.4925C128.068 61.1378 128.477 60.9976 128.968 61.072C129.41 61.1392 129.713 61.3308 129.876 61.6467C130.038 61.9627 130.081 62.3738 130.004 62.88C129.853 63.8766 129.533 64.702 129.046 65.3562L128.626 65.244C129.526 65.073 130.514 65.0691 131.589 65.2323C132.269 65.3355 132.787 65.5516 133.142 65.8805C133.514 66.196 133.654 66.6622 133.56 67.2792C133.472 67.8645 133.167 68.2714 132.647 68.5C132.127 68.7285 131.511 68.7888 130.799 68.6808C130.372 68.616 129.916 68.5306 129.43 68.4246C128.963 68.3051 128.507 68.1631 128.062 67.9986L128.541 67.5615C128.593 68.1842 128.623 68.8928 128.632 69.6871C128.659 70.468 128.665 71.2782 128.651 72.1175C128.637 72.9569 128.603 73.769 128.549 74.5537C128.494 75.3384 128.42 76.0393 128.327 76.6562C128.173 77.6686 127.894 78.4435 127.489 78.9808C127.083 79.5181 126.572 79.74 125.955 79.6464C125.465 79.572 125.1 79.3629 124.861 79.0191C124.638 78.6778 124.498 78.2681 124.441 77.7902C124.402 77.2988 124.405 76.7976 124.45 76.2866C124.511 75.778 124.573 75.318 124.635 74.9068C124.741 74.2107 124.891 73.4325 125.087 72.572C125.284 71.6958 125.509 70.7994 125.762 69.8829C126.03 68.9687 126.309 68.0887 126.599 67.2426L127.013 67.718C126.143 68.0069 125.116 68.0613 123.929 67.8813C123.202 67.771 122.66 67.5513 122.306 67.2224C121.951 66.8935 121.817 66.4443 121.903 65.8748C121.997 65.2578 122.29 64.8169 122.784 64.5519C123.279 64.271 123.899 64.187 124.642 64.2998C125.133 64.3742 125.587 64.4754 126.004 64.6035C126.44 64.7182 126.818 64.8402 127.138 64.9697ZM139.519 81.5341C138.253 81.3421 137.188 80.8973 136.323 80.1996C135.476 79.4885 134.87 78.5714 134.507 77.4481C134.159 76.3273 134.094 75.0471 134.313 73.6076C134.541 72.1048 135.001 70.8314 135.693 69.7874C136.386 68.7435 137.254 67.9771 138.299 67.4883C139.36 67.002 140.524 66.8548 141.789 67.0468C143.15 67.2532 144.281 67.7404 145.184 68.5086C146.09 69.2609 146.736 70.2248 147.125 71.4003C147.513 72.5758 147.596 73.8912 147.375 75.3466C147.15 76.8336 146.679 78.0729 145.962 79.0646C145.245 80.0563 144.336 80.768 143.235 81.1997C142.133 81.6314 140.895 81.7429 139.519 81.5341ZM140.337 78.3811C141.317 78.5299 142.151 78.26 142.838 77.5712C143.544 76.8691 143.995 75.8694 144.192 74.5723C144.391 73.2593 144.257 72.1708 143.789 71.3069C143.337 70.4454 142.621 69.9402 141.64 69.7914C140.627 69.6378 139.77 69.9042 139.067 70.5905C138.364 71.2769 137.913 72.2765 137.714 73.5895C137.517 74.8867 137.651 75.9751 138.116 76.8549C138.584 77.7188 139.324 78.2275 140.337 78.3811ZM150.784 72.2226C151.015 70.7039 151.323 69.634 151.708 69.0128C152.096 68.3758 152.551 68.0969 153.073 68.1761C153.485 68.2385 153.782 68.4617 153.967 68.8457C154.154 69.2139 154.264 69.6595 154.298 70.1825C154.334 70.6897 154.314 71.1964 154.237 71.7026L154.126 71.6371C154.524 70.8237 155.047 70.1505 155.695 69.6176C156.358 69.087 157.085 68.8818 157.876 69.0018C158.809 69.1434 159.438 69.6353 159.764 70.4776C160.091 71.3042 160.169 72.2869 159.996 73.4259C159.766 74.9445 159.431 75.978 158.992 76.5263C158.552 77.0746 158.04 77.3044 157.455 77.2156C157.028 77.1508 156.738 76.9288 156.585 76.5496C156.448 76.1727 156.478 75.5462 156.676 74.6699C156.881 73.7462 156.924 73.0892 156.805 72.699C156.686 72.3088 156.437 72.0848 156.057 72.0272C155.599 71.9577 155.175 72.1927 154.785 72.7324C154.414 73.2587 154.165 73.941 154.038 74.7794C153.987 75.1116 153.963 75.5368 153.966 76.0551C153.968 76.5733 153.971 77.1401 153.975 77.7556C153.981 78.3554 153.979 78.9539 153.969 79.5512C153.959 80.1485 153.917 80.6923 153.843 81.1827C153.711 82.0527 153.482 82.6572 153.155 82.996C152.829 83.3349 152.42 83.4671 151.93 83.3927C151.376 83.3087 150.975 83.0699 150.728 82.6763C150.482 82.2669 150.342 81.6468 150.306 80.816C150.29 80.0691 150.294 79.1878 150.319 78.172C150.343 77.1562 150.395 76.1203 150.475 75.0642C150.554 74.0082 150.657 73.061 150.784 72.2226ZM162.553 89.7865C161.699 89.6569 161.341 89.1333 161.481 88.2158C161.557 87.7096 161.823 87.1349 162.276 86.4917C162.73 85.8484 163.35 85.1738 164.137 84.4679C164.939 83.7643 165.887 83.0665 166.979 82.3745L166.926 82.5607C165.139 80.1534 163.82 78.076 162.968 76.3285C162.133 74.5834 161.802 73.1335 161.978 71.9787C162.064 71.4092 162.274 70.9879 162.606 70.7147C162.955 70.4439 163.374 70.3457 163.865 70.4201C164.909 70.5785 165.83 71.495 166.628 73.1696C167.425 74.8443 168.048 77.3014 168.495 80.5411L168.59 80.5555C169.685 77.388 170.689 75.0966 171.599 73.6811C172.512 72.2499 173.435 71.6051 174.369 71.7466C174.812 71.8138 175.112 72.0212 175.269 72.3688C175.445 72.703 175.491 73.1469 175.407 73.7005C175.338 74.1593 175.142 74.7527 174.822 75.4808C174.519 76.1955 174.114 76.9999 173.606 77.8938C173.116 78.7743 172.557 79.6848 171.929 80.6252C171.317 81.568 170.66 82.4878 169.957 83.3846C168.163 85.7179 166.679 87.3942 165.504 88.4136C164.328 89.4489 163.344 89.9065 162.553 89.7865Z" fill="#E0FFDF"/>
</svg>
