<svg width="146" height="217" viewBox="0 0 146 217" fill="none" xmlns="http://www.w3.org/2000/svg">
<path d="M4.42383 202.868L4.42382 14.3181C4.42382 8.79529 8.90097 4.31813 14.4238 4.31813L131.793 4.31812C137.418 4.31812 141.937 8.95625 141.79 14.5796L136.858 203.129C136.716 208.548 132.282 212.868 126.861 212.868L14.4238 212.868C8.90098 212.868 4.42383 208.391 4.42383 202.868Z" fill="#BCE8BB" stroke="#E0FFDF" stroke-width="7" stroke-dasharray="14 28 42 56"/>
<path d="M49.4393 102.383C49.706 101.29 50.1726 100.303 50.8393 99.4232C51.5326 98.5432 52.3593 97.8499 53.3193 97.3432C54.306 96.8099 55.386 96.5432 56.5593 96.5432C57.946 96.5432 59.1726 96.8766 60.2393 97.5432C61.306 98.2099 62.146 99.3032 62.7593 100.823C63.3993 102.343 63.7193 104.37 63.7193 106.903C63.7193 108.21 63.666 109.53 63.5593 110.863C63.4526 112.197 63.3193 113.437 63.1593 114.583C62.9993 115.73 62.826 116.69 62.6393 117.463C62.3726 118.53 61.9593 119.343 61.3993 119.903C60.866 120.463 60.186 120.743 59.3593 120.743C58.666 120.743 58.1193 120.437 57.7193 119.823C57.3193 119.21 57.1193 118.33 57.1193 117.183C57.1193 116.65 57.186 115.97 57.3193 115.143C57.4526 114.29 57.5993 113.37 57.7593 112.383C57.9193 111.37 58.066 110.343 58.1993 109.303C58.3326 108.263 58.3993 107.277 58.3993 106.343C58.3993 104.957 58.1193 103.89 57.5593 103.143C56.9993 102.37 56.2126 101.983 55.1993 101.983C54.0793 101.983 53.146 102.57 52.3993 103.743C51.6793 104.89 51.2526 106.57 51.1193 108.783C51.0126 110.757 50.9193 112.517 50.8393 114.063C50.7593 115.583 50.5593 116.837 50.2393 117.823C50.026 118.517 49.7193 119.037 49.3193 119.383C48.946 119.73 48.4393 119.903 47.7993 119.903C47.0793 119.903 46.506 119.637 46.0793 119.103C45.6793 118.57 45.4526 117.73 45.3993 116.583C45.346 115.623 45.3326 114.49 45.3593 113.183C45.386 111.877 45.3993 110.583 45.3993 109.303C45.426 107.997 45.4126 106.917 45.3593 106.063C45.2526 104.357 44.946 103.103 44.4393 102.303C43.9593 101.503 43.226 101.103 42.2393 101.103C41.0926 101.103 40.1726 101.637 39.4793 102.703C38.8126 103.77 38.3993 105.25 38.2393 107.143C38.186 107.917 38.1593 108.877 38.1593 110.023C38.186 111.143 38.2126 112.263 38.2393 113.383C38.266 114.503 38.2526 115.437 38.1993 116.183C38.1726 117.783 37.9193 118.93 37.4393 119.623C36.986 120.317 36.346 120.663 35.5193 120.663C34.5326 120.663 33.8126 120.343 33.3593 119.703C32.9326 119.063 32.6526 118.037 32.5193 116.623C32.4126 115.37 32.3326 114.13 32.2793 112.903C32.226 111.65 32.1993 110.41 32.1993 109.183C32.1993 107.93 32.226 106.57 32.2793 105.103C32.3593 103.637 32.466 102.25 32.5993 100.943C32.7593 99.6099 33.0393 98.4899 33.4393 97.5832C33.8393 96.6766 34.506 96.2232 35.4393 96.2232C36.2126 96.2232 36.7593 96.6099 37.0793 97.3832C37.3993 98.1299 37.5593 99.2899 37.5593 100.863C37.5593 101.397 37.5193 101.89 37.4393 102.343L37.3193 101.543C37.8526 99.8099 38.706 98.4632 39.8793 97.5032C41.0526 96.5166 42.3593 96.0232 43.7993 96.0232C45.6926 96.0232 47.1726 96.6366 48.2393 97.8632C49.306 99.0632 49.8926 100.73 49.9993 102.863L49.4393 102.383ZM86.8856 121.103C85.9789 121.103 85.3522 120.757 85.0056 120.063C84.6856 119.343 84.4989 118.21 84.4456 116.663L84.8456 116.863C83.3522 119.77 80.5256 121.223 76.3656 121.223C74.4722 121.223 72.8989 120.89 71.6456 120.223C70.3922 119.53 69.4589 118.623 68.8456 117.503C68.2589 116.357 67.9656 115.117 67.9656 113.783C67.9656 111.49 68.7656 109.677 70.3656 108.343C71.9656 106.983 74.0856 106.303 76.7256 106.303C78.4589 106.303 79.9656 106.557 81.2456 107.063C82.5256 107.57 83.6189 108.277 84.5256 109.183L83.8456 109.103C83.6589 106.41 83.0722 104.49 82.0856 103.343C81.1256 102.17 79.7522 101.583 77.9656 101.583C76.9256 101.583 75.9656 101.743 75.0856 102.063C74.2056 102.383 73.3922 102.717 72.6456 103.063C71.9256 103.383 71.2456 103.543 70.6056 103.543C69.9656 103.543 69.4589 103.33 69.0856 102.903C68.7389 102.477 68.5656 101.93 68.5656 101.263C68.5656 100.303 69.0189 99.3966 69.9256 98.5432C70.8589 97.6899 72.0856 96.9966 73.6056 96.4632C75.1256 95.9299 76.7789 95.6632 78.5656 95.6632C80.7256 95.6632 82.5789 96.1832 84.1256 97.2232C85.6722 98.2632 86.8456 99.7832 87.6456 101.783C88.3389 103.49 88.8322 105.397 89.1256 107.503C89.4189 109.61 89.5656 111.863 89.5656 114.263C89.5656 116.077 89.4722 117.477 89.2856 118.463C89.0989 119.45 88.8056 120.143 88.4056 120.543C88.0322 120.917 87.5256 121.103 86.8856 121.103ZM78.0456 116.623C78.9256 116.623 79.8189 116.503 80.7256 116.263C81.6322 115.997 82.3922 115.61 83.0056 115.103C83.6189 114.597 83.9256 113.97 83.9256 113.223C83.9256 112.583 83.6589 112.063 83.1256 111.663C82.6189 111.237 81.9389 110.917 81.0856 110.703C80.2589 110.49 79.3656 110.383 78.4056 110.383C76.7789 110.383 75.5389 110.663 74.6856 111.223C73.8589 111.783 73.4456 112.53 73.4456 113.463C73.4456 114.477 73.8322 115.263 74.6056 115.823C75.4056 116.357 76.5522 116.623 78.0456 116.623ZM97.9646 95.9032C98.6846 95.9032 99.2846 96.3299 99.7646 97.1832C100.245 98.0099 100.578 99.3299 100.765 101.143L99.9246 101.903C100.405 100.037 101.298 98.6099 102.605 97.6232C103.911 96.6366 105.458 96.1432 107.245 96.1432C108.898 96.1432 110.365 96.5699 111.645 97.4232C112.925 98.2766 113.925 99.5699 114.645 101.303C115.391 103.01 115.765 105.157 115.765 107.743C115.765 111.93 115.005 115.023 113.485 117.023C111.991 118.997 109.951 119.983 107.365 119.983C105.498 119.983 104.031 119.583 102.965 118.783C101.898 117.983 101.151 117.01 100.725 115.863L101.205 115.623C101.418 117.223 101.591 118.81 101.725 120.383C101.885 121.93 101.965 123.29 101.965 124.463C101.965 125.663 101.751 126.677 101.325 127.503C100.898 128.33 100.218 128.743 99.2846 128.743C98.378 128.743 97.698 128.397 97.2446 127.703C96.7913 127.01 96.458 126.09 96.2446 124.943C96.0846 123.77 95.9246 122.263 95.7646 120.423C95.6046 118.583 95.4713 116.597 95.3646 114.463C95.2846 112.33 95.2446 110.25 95.2446 108.223C95.2446 106.143 95.3113 104.197 95.4446 102.383C95.6046 100.543 95.7913 99.0499 96.0046 97.9032C96.1913 97.2366 96.4313 96.7432 96.7246 96.4232C97.0446 96.0766 97.458 95.9032 97.9646 95.9032ZM105.605 100.743C104.165 100.743 103.005 101.463 102.125 102.903C101.271 104.317 100.845 106.13 100.845 108.343C100.845 110.61 101.271 112.303 102.125 113.423C103.005 114.543 104.138 115.103 105.525 115.103C107.125 115.103 108.271 114.477 108.965 113.223C109.685 111.943 110.045 110.29 110.045 108.263C110.045 105.677 109.605 103.783 108.725 102.583C107.845 101.357 106.805 100.743 105.605 100.743Z" fill="#345D33"/>
</svg>
