<svg width="81" height="81" viewBox="0 0 81 81" fill="none" xmlns="http://www.w3.org/2000/svg">
<g clip-path="url(#clip0_408_248)">
<path d="M17.878 2.62814C17.878 2.62814 33.7494 7.69269 39.9875 17.5177C46.2256 27.3426 36.2089 35.0585 28.8204 34.0998C21.4318 33.1411 15.0019 24.7938 17.878 2.62814Z" fill="#9DCC6B"/>
<path d="M34.4796 33.3315C27.5708 32.1496 21.7497 24.4373 23.5971 4.87281C45.6694 15.0694 45.8708 28.9194 34.4796 33.3315Z" fill="#B5E08C"/>
<path d="M14.5622 39.7627C18.0481 38.9528 23.8472 38.7286 27.3818 40.5546C35.8062 44.8783 23.7954 61.2457 14.5622 39.7627Z" fill="#9DCC6B"/>
<path d="M27.9628 49.5103C24.9594 49.4962 21.3491 46.864 17.9764 39.2741C21.1669 38.8397 24.4155 39.2612 27.3895 40.4955C31.7775 42.8078 30.5709 47.4746 27.9628 49.5103Z" fill="#B5E08C"/>
<path d="M67.8161 34.6518C57.9085 45.1166 52.2829 45.3934 48.252 42.9921C41.5764 38.9705 42.3674 31.485 49.3097 29.0501C54.6265 27.2156 63.459 31.6373 67.8161 34.6518Z" fill="#9DCC6B"/>
<path d="M64.1483 32.463C58.0924 38.6041 50.7807 44.1166 44.1915 38.6186C42.6157 34.8981 44.4908 30.7538 49.3078 29.0648C53.7177 27.5034 60.1644 30.2782 64.1483 32.463Z" fill="#B5E08C"/>
<path d="M32.3741 64.6127L35.6337 39.4916C36.8685 29.9751 25.5482 18.4389 25.4434 18.3202C25.1926 18.0356 25.0597 17.6662 25.0718 17.2871C25.084 16.908 25.2402 16.5478 25.5087 16.2799C25.7773 16.012 26.1378 15.8566 26.517 15.8453C26.8961 15.8341 27.2653 15.9678 27.5492 16.2193C28.068 16.7374 40.008 28.94 38.5891 39.8751L35.3295 64.9962C35.2787 65.3881 35.0742 65.7438 34.7612 65.9849C34.4481 66.2261 34.052 66.333 33.6601 66.2822C33.2682 66.2313 32.9125 66.0269 32.6714 65.7138C32.4302 65.4007 32.3233 65.0046 32.3741 64.6127Z" fill="#84B749"/>
<path d="M34.7229 46.5107C36.0651 36.1668 53.2656 34.4618 53.996 34.3913C54.1955 34.3738 54.3966 34.3957 54.5877 34.4559C54.7788 34.5161 54.9562 34.6134 55.1097 34.7421C55.2633 34.8709 55.3899 35.0286 55.4825 35.2063C55.575 35.384 55.6317 35.5782 55.6492 35.7778C55.6667 35.9774 55.6447 36.1785 55.5845 36.3696C55.5243 36.5607 55.4271 36.7381 55.2983 36.8916C55.1696 37.0451 55.0119 37.1718 54.8342 37.2643C54.6565 37.3569 54.4623 37.4136 54.2627 37.4311C54.1187 37.3823 38.7099 38.9441 37.6783 46.8942C37.6275 47.2861 37.423 47.6418 37.1099 47.883C36.7968 48.1241 36.4008 48.231 36.0089 48.1802C35.6169 48.1293 35.2613 47.9249 35.0201 47.6118C34.779 47.2987 34.672 46.9027 34.7229 46.5107ZM34.2004 53.8958C34.2004 53.8958 29.2398 47.5423 22.5577 45.3079C22.176 45.1787 21.8612 44.9031 21.6826 44.5418C21.5041 44.1805 21.4764 43.763 21.6056 43.3813C21.7349 42.9995 22.0105 42.6848 22.3718 42.5062C22.7331 42.3277 23.1505 42.3 23.5323 42.4292C31.0594 44.9836 36.3562 51.7564 36.5749 52.0402C36.8209 52.355 36.9318 52.7548 36.8832 53.1514C36.8345 53.5481 36.6303 53.9091 36.3154 54.1552C36.0006 54.4013 35.6008 54.5122 35.2042 54.4636C34.8076 54.4149 34.4465 54.2107 34.2004 53.8958Z" fill="#84B749"/>
<path d="M53.3894 76.3551L12.0134 70.9864C21.6803 59.8293 46.9866 63.3984 53.3894 76.3551Z" fill="#A87E6B"/>
<path d="M51.2312 73.0699L24.2186 69.5649C23.709 69.4868 23.2359 69.2532 22.864 68.8962C22.4921 68.5391 22.2395 68.0759 22.1408 67.5699C22.042 67.0638 22.1019 66.5397 22.3123 66.0689C22.5227 65.5982 22.8732 65.204 23.3161 64.94C27.2906 64.2274 31.3619 64.2464 35.3296 64.9962C41.4463 65.6277 47.1119 68.5042 51.2312 73.0699Z" fill="#BE927C"/>
</g>
<defs>
<clipPath id="clip0_408_248">
<rect width="71.5248" height="71.5248" fill="white" transform="translate(9.20343) rotate(7.39302)"/>
</clipPath>
</defs>
</svg>
