<svg width="136" height="184" viewBox="0 0 136 184" fill="none" xmlns="http://www.w3.org/2000/svg">
<path d="M113.077 178.561L21.4238 178.561C15.9009 178.561 11.4238 174.084 11.4238 168.561L11.4238 11.8069C11.4238 7.4953 14.919 4.00009 19.2305 4.00009C21.7098 4.00009 24.0416 5.1777 25.5132 7.17293L129.74 148.484C132.831 152.675 132.189 158.536 128.264 161.958L120.823 168.444C119.567 169.54 118.846 171.125 118.846 172.792C118.846 175.978 116.263 178.561 113.077 178.561Z" fill="#4C6B50" stroke="#E0FFDF" stroke-width="7" stroke-dasharray="14 28 42 56"/>
<path d="M42.6415 72.9705C43.489 74.1148 43.9314 75.0614 43.9685 75.8105C44.0056 76.5595 43.7605 77.1292 43.2334 77.5197C42.9248 77.7482 42.5867 77.8294 42.2191 77.7632C41.8739 77.7003 41.5584 77.476 41.2727 77.0903C40.9775 76.6917 40.7259 76.231 40.5178 75.7082C40.3193 75.1982 40.0105 74.6603 39.5915 74.0946C39.1058 73.4388 38.6154 73.0455 38.1201 72.9145C37.6249 72.7835 37.178 72.8656 36.7794 73.1609C36.4066 73.437 36.2156 73.7975 36.2065 74.2422C36.2198 74.6903 36.4798 75.3639 36.9864 76.263C37.5597 77.252 37.9496 78.128 38.1563 78.8908C38.3853 79.657 38.3843 80.3546 38.1533 80.9837C37.9352 81.6032 37.4404 82.1986 36.6689 82.77C35.4475 83.6747 34.222 83.9153 32.9925 83.4919C31.7631 83.0685 30.5865 82.0982 29.4628 80.5811C28.7485 79.6168 28.2591 78.7946 27.9943 78.1146C27.7296 77.4346 27.6435 76.8613 27.7359 76.3946C27.8378 75.9408 28.0816 75.5711 28.4673 75.2854C28.8016 75.0378 29.1397 74.9566 29.4816 75.0419C29.8459 75.1305 30.1423 75.329 30.3709 75.6376C30.5899 75.9333 30.7846 76.2769 30.9551 76.6684C31.1384 77.0503 31.3295 77.4562 31.5286 77.8862C31.7276 78.3162 31.9747 78.7305 32.2699 79.1291C33.2222 80.4148 34.0969 80.7625 34.8941 80.1721C35.1641 79.9721 35.3351 79.7459 35.407 79.4935C35.4789 79.2412 35.4425 78.9097 35.2978 78.4993C35.1659 78.0793 34.894 77.524 34.4821 76.8335C33.9879 76.005 33.6213 75.2411 33.3823 74.5421C33.1561 73.8335 33.1409 73.1678 33.3367 72.545C33.5453 71.9126 34.0289 71.3155 34.7875 70.7537C35.9832 69.868 37.2808 69.6038 38.6803 69.961C40.0926 70.3087 41.413 71.3118 42.6415 72.9705ZM41.4143 96.3142C41.1572 95.967 41.0729 95.6113 41.1615 95.247C41.2725 94.8861 41.4906 94.5354 41.8158 94.1949C42.1539 93.845 42.5351 93.5128 42.9594 93.1986L43.108 93.2379C42.4599 93.5188 41.7985 93.6204 41.1237 93.5428C40.449 93.4651 39.8214 93.2629 39.2409 92.9362C38.6733 92.6 38.2086 92.1876 37.8467 91.6991C37.3611 91.0433 37.0725 90.3312 36.9811 89.5626C36.8898 88.7941 37.056 88.0238 37.4798 87.252C37.9422 86.4515 38.6258 85.5868 39.5306 84.6578C40.4483 83.7193 41.4536 82.8453 42.5464 82.0359C43.1379 81.5978 43.7034 81.2188 44.2429 80.8989C44.7824 80.5789 45.2558 80.3577 45.6629 80.2354C46.0734 80.0906 46.432 80.064 46.7386 80.1554C47.0581 80.2374 47.3369 80.439 47.575 80.7605C47.8512 81.1333 47.9176 81.5321 47.7742 81.9569C47.6532 82.385 47.3546 82.8152 46.8784 83.2475C46.4922 83.6132 45.9889 84.0358 45.3684 84.5153C44.7703 84.9981 44.161 85.4793 43.5405 85.9587C42.9424 86.4416 42.4455 86.8594 42.0498 87.2122C41.3354 87.8607 40.9109 88.4838 40.7761 89.0814C40.6542 89.6695 40.7646 90.1949 41.1074 90.6578C41.6122 91.3393 42.255 91.6695 43.0359 91.6486C43.8169 91.6277 44.6702 91.2744 45.5959 90.5888C46.0588 90.2459 46.5605 89.8345 47.101 89.3546C47.6543 88.8651 48.1836 88.3835 48.6889 87.9097C49.2037 87.4488 49.6411 87.085 50.0011 86.8183C50.6054 86.3708 51.1123 86.1546 51.5218 86.1699C51.9442 86.1756 52.2887 86.3585 52.5553 86.7185C52.7839 87.0271 52.8907 87.3461 52.876 87.6756C52.8707 88.018 52.7678 88.363 52.5673 88.7106C52.3149 89.1763 51.9021 89.721 51.3287 90.3448C50.7554 90.9685 50.073 91.6333 49.2815 92.3389C48.49 93.0446 47.625 93.745 46.6864 94.4402C45.2464 95.5068 44.095 96.2103 43.2321 96.5507C42.3821 96.8816 41.7762 96.8027 41.4143 96.3142ZM57.222 92.8983C57.4791 93.2454 57.4877 93.6871 57.2477 94.2232C57.0205 94.7499 56.5031 95.382 55.6955 96.1196L55.029 95.9859C56.1005 95.5508 57.1074 95.472 58.0497 95.7497C58.9921 96.0273 59.7823 96.5969 60.4203 97.4583C61.0107 98.2555 61.3288 99.115 61.3744 100.037C61.4201 100.959 61.1536 101.903 60.575 102.869C60.0188 103.838 59.1171 104.785 57.8699 105.709C55.8513 107.204 54.0884 107.942 52.5813 107.923C51.0966 107.908 49.8924 107.277 48.9686 106.03C48.302 105.13 47.9711 104.28 47.9759 103.48C47.9807 102.68 48.1834 101.972 48.5839 101.357L48.871 101.503C48.1757 102.177 47.4726 102.827 46.7617 103.453C46.0731 104.083 45.4459 104.607 44.8802 105.026C44.3016 105.455 43.7368 105.714 43.1859 105.803C42.6349 105.893 42.1928 105.712 41.8595 105.262C41.5357 104.825 41.46 104.373 41.6324 103.907C41.8048 103.441 42.1294 102.952 42.6061 102.439C43.1147 101.943 43.784 101.328 44.614 100.594C45.444 99.8597 46.3543 99.0859 47.3448 98.2727C48.3448 97.4722 49.3334 96.7102 50.3106 95.9864C51.3134 95.2436 52.2758 94.5806 53.1977 93.9973C54.142 93.4174 54.9287 92.9741 55.5578 92.6675C55.9459 92.5194 56.2694 92.4589 56.5285 92.4861C56.8099 92.5166 57.0411 92.654 57.222 92.8983ZM57.6167 98.3103C57.1025 97.616 56.3411 97.3139 55.3325 97.4038C54.3464 97.4971 53.3197 97.9389 52.2525 98.7293C51.1596 99.5388 50.4956 100.349 50.2603 101.161C50.0345 101.985 50.1693 102.731 50.6644 103.4C51.2358 104.171 51.9475 104.5 52.7994 104.387C53.6736 104.277 54.5994 103.86 55.5765 103.137C56.8237 102.213 57.5794 101.325 57.8438 100.472C58.1209 99.6094 58.0453 98.8889 57.6167 98.3103ZM66.282 105.131C66.5392 105.478 66.5477 105.919 66.3077 106.456C66.0805 106.982 65.5631 107.614 64.7555 108.352L64.0891 108.218C65.1605 107.783 66.1674 107.704 67.1097 107.982C68.0521 108.26 68.8423 108.829 69.4803 109.691C70.0708 110.488 70.3888 111.347 70.4345 112.269C70.4801 113.191 70.2137 114.135 69.635 115.101C69.0788 116.071 68.1771 117.017 66.9299 117.941C64.9113 119.436 63.1485 120.174 61.6413 120.156C60.1566 120.141 58.9524 119.509 58.0287 118.262C57.362 117.362 57.0311 116.512 57.0359 115.712C57.0408 114.912 57.2434 114.205 57.6439 113.589L57.931 113.735C57.2358 114.409 56.5327 115.059 55.8217 115.686C55.1331 116.315 54.5059 116.839 53.9402 117.258C53.3616 117.687 52.7969 117.946 52.2459 118.035C51.695 118.125 51.2528 117.945 50.9195 117.495C50.5958 117.057 50.5201 116.606 50.6925 116.14C50.8649 115.673 51.1894 115.184 51.6661 114.672C52.1747 114.176 52.844 113.56 53.674 112.826C54.504 112.092 55.4143 111.318 56.4048 110.505C57.4048 109.705 58.3934 108.943 59.3706 108.219C60.3735 107.476 61.3359 106.813 62.2578 106.23C63.2021 105.65 63.9888 105.206 64.6178 104.9C65.0059 104.752 65.3295 104.691 65.5885 104.718C65.8699 104.749 66.1011 104.886 66.282 105.131ZM66.6768 110.543C66.1625 109.848 65.4011 109.546 64.3926 109.636C63.4064 109.729 62.3797 110.171 61.3125 110.962C60.2197 111.771 59.5556 112.582 59.3203 113.393C59.0946 114.217 59.2293 114.964 59.7245 115.632C60.2959 116.404 61.0075 116.733 61.8594 116.619C62.7337 116.51 63.6594 116.093 64.6365 115.369C65.8837 114.445 66.6395 113.557 66.9038 112.704C67.181 111.842 67.1053 111.121 66.6768 110.543ZM65.8266 129.637C65.0648 128.609 64.6232 127.542 64.5018 126.437C64.4028 125.336 64.6205 124.259 65.1548 123.206C65.6987 122.166 66.5556 121.213 67.7256 120.346C68.9471 119.441 70.1714 118.863 71.3985 118.611C72.6256 118.36 73.782 118.429 74.8677 118.819C75.9629 119.223 76.8914 119.939 77.6533 120.967C78.4723 122.073 78.931 123.217 79.0295 124.398C79.1409 125.57 78.9196 126.709 78.3658 127.817C77.8119 128.924 76.9435 129.915 75.7607 130.791C74.5521 131.687 73.344 132.233 72.1363 132.43C70.9287 132.628 69.7823 132.491 68.6971 132.021C67.6119 131.55 66.6551 130.756 65.8266 129.637ZM68.6302 127.979C69.2206 128.776 70.0023 129.173 70.9751 129.169C71.9703 129.169 72.9951 128.778 74.0494 127.997C75.1166 127.207 75.789 126.34 76.0666 125.398C76.3538 124.468 76.2022 123.605 75.6118 122.808C75.0023 121.985 74.2064 121.569 73.224 121.56C72.2417 121.551 71.2169 121.942 70.1497 122.732C69.0954 123.513 68.423 124.379 68.1325 125.331C67.8548 126.273 68.0207 127.156 68.6302 127.979ZM80.3807 130.981C81.615 130.066 82.5878 129.525 83.2993 129.356C84.0235 129.178 84.5428 129.301 84.8571 129.726C85.1047 130.06 85.1585 130.428 85.0184 130.831C84.8913 131.224 84.6553 131.617 84.3105 132.012C83.9786 132.397 83.6069 132.742 83.1955 133.047L83.1627 132.922C84.0188 132.626 84.8643 132.518 85.6991 132.596C86.5433 132.688 87.2035 133.055 87.6797 133.698C88.2415 134.457 88.3408 135.249 87.9774 136.076C87.6269 136.893 86.9888 137.644 86.063 138.33C84.8287 139.244 83.8625 139.741 83.1644 139.82C82.4663 139.899 81.9411 139.7 81.5888 139.225C81.3317 138.878 81.2826 138.516 81.4417 138.139C81.6103 137.775 82.0736 137.352 82.8317 136.871C83.6284 136.36 84.1222 135.925 84.3132 135.564C84.5042 135.204 84.4854 134.869 84.2568 134.561C83.9807 134.188 83.5143 134.055 82.8576 134.163C82.2233 134.275 81.5654 134.583 80.884 135.088C80.614 135.288 80.2971 135.572 79.9333 135.941C79.5694 136.31 79.1718 136.714 78.7404 137.153C78.3218 137.583 77.8984 138.006 77.4703 138.422C77.0422 138.839 76.6289 139.195 76.2303 139.49C75.5231 140.014 74.9343 140.281 74.4638 140.291C73.9934 140.301 73.6105 140.106 73.3153 139.708C72.982 139.258 72.8663 138.806 72.9683 138.352C73.083 137.889 73.4207 137.35 73.9812 136.736C74.4964 136.195 75.121 135.573 75.8548 134.87C76.5887 134.167 77.3561 133.47 78.157 132.777C78.958 132.084 79.6992 131.485 80.3807 130.981ZM92.7861 141.641L92.5004 141.255C93.0376 140.798 93.5807 140.415 94.1297 140.108C94.6916 139.791 95.2031 139.622 95.664 139.599C96.1473 139.579 96.5366 139.769 96.8318 140.167C97.0985 140.528 97.178 140.877 97.0703 141.215C96.9627 141.554 96.7032 141.876 96.2917 142.18C95.4817 142.78 94.6731 143.14 93.866 143.26L93.6475 142.884C94.406 143.398 95.109 144.092 95.7566 144.966C96.1661 145.519 96.3806 146.037 96.4001 146.52C96.442 147.007 96.2122 147.436 95.7107 147.807C95.235 148.16 94.7322 148.233 94.2022 148.029C93.6722 147.824 93.1929 147.432 92.7644 146.854C92.5073 146.506 92.244 146.124 91.9745 145.706C91.7274 145.292 91.5043 144.87 91.3053 144.44L91.9531 144.468C91.5502 144.945 91.0719 145.469 90.5181 146.038C89.9866 146.611 89.4199 147.19 88.818 147.776C88.2161 148.361 87.6192 148.912 87.0272 149.43C86.4353 149.948 85.8886 150.393 85.3872 150.765C84.5643 151.374 83.8198 151.726 83.1536 151.822C82.4874 151.917 81.9686 151.714 81.5972 151.212C81.302 150.814 81.1909 150.408 81.2637 149.996C81.3461 149.596 81.5357 149.207 81.8324 148.828C82.1514 148.452 82.5071 148.099 82.8995 147.769C83.3014 147.451 83.6696 147.169 84.0038 146.921C84.5696 146.502 85.2251 146.056 85.9703 145.584C86.7284 145.102 87.5201 144.625 88.3453 144.153C89.1801 143.694 89.9987 143.267 90.8011 142.872L90.7589 143.501C89.9389 143.093 89.1718 142.406 88.4576 141.442C88.0196 140.851 87.7908 140.313 87.7713 139.83C87.7518 139.347 87.9735 138.933 88.4363 138.591C88.9378 138.219 89.4568 138.114 89.9935 138.274C90.543 138.424 91.0415 138.802 91.4891 139.406C91.7843 139.804 92.0348 140.196 92.2405 140.582C92.4685 140.97 92.6504 141.323 92.7861 141.641Z" fill="#E0FFDF"/>
</svg>
