<svg width="177" height="119" viewBox="0 0 177 119" fill="none" xmlns="http://www.w3.org/2000/svg">
<path d="M161.115 114.899L12.8857 93.6686C7.26427 92.8634 3.44072 87.5442 4.46881 81.9592L17.2772 12.3784C18.2259 7.22494 22.9917 3.67774 28.2006 4.24817L163.621 19.0781C168.692 19.6334 172.533 23.9171 172.533 29.0187L172.533 105C172.533 111.087 167.14 115.762 161.115 114.899Z" fill="#BCE8BB" stroke="#E0FFDF" stroke-width="7" stroke-dasharray="14 28 42 56"/>
<path d="M87.1867 64.9683L90.9659 65.5876L89.2249 95.5114L79.237 93.8746L87.1867 64.9683Z" fill="#93642D"/>
<path d="M87.1596 64.9639L90.9141 65.5792L89.9517 81.681L82.9323 80.5307L87.1596 64.9639Z" fill="#714D22"/>
<path fill-rule="evenodd" clip-rule="evenodd" d="M74.616 48.6514C75.3346 44.2659 79.4724 41.2933 83.858 42.012C88.2435 42.7306 91.2161 46.8684 90.4974 51.254L90.4045 51.8212C90.3556 52.1192 90.291 52.4107 90.2116 52.695C93.3591 54.1972 95.2746 57.6437 94.6822 61.2585L94.5892 61.8257C93.8706 66.2113 89.7328 69.1839 85.3472 68.4652C82.9755 68.0765 81.0171 66.6879 79.8322 64.8009C78.107 66.211 75.8078 66.9019 73.4361 66.5132C69.0506 65.7946 66.078 61.6568 66.7967 57.2712L66.8897 56.704C67.5146 52.8904 70.7251 50.1452 74.4356 49.9667C74.453 49.7185 74.482 49.469 74.523 49.2186L74.616 48.6514Z" fill="#66A865"/>
<path fill-rule="evenodd" clip-rule="evenodd" d="M88.5004 75.8003C85.2782 78.5967 80.3992 78.2514 77.6029 75.0293C74.8065 71.8071 75.1518 66.9281 78.3739 64.1318L78.7907 63.7701C79.0097 63.5801 79.2363 63.4045 79.4694 63.2434C78.0679 60.2027 78.7692 56.4828 81.4251 54.1779L81.8418 53.8163C85.064 51.0199 89.943 51.3652 92.7393 54.5873C94.2516 56.3299 94.845 58.557 94.5616 60.6772C96.7006 60.6951 98.8219 61.5962 100.334 63.3388C103.13 66.561 102.785 71.4399 99.5631 74.2363L99.1463 74.5979C96.3443 77.0296 92.2895 77.0856 89.4408 74.9401C89.2756 75.1126 89.1011 75.279 88.9171 75.4387L88.5004 75.8003Z" fill="#66A865"/>
<path fill-rule="evenodd" clip-rule="evenodd" d="M90.9861 48.7067C91.7128 44.2724 95.8966 41.2668 100.331 41.9935C104.765 42.7202 107.771 46.9039 107.044 51.3382L106.95 51.9117C106.901 52.2131 106.835 52.5078 106.755 52.7953C109.937 54.3142 111.874 57.799 111.275 61.454L111.181 62.0275C110.455 66.4618 106.271 69.4674 101.837 68.7407C99.4385 68.3477 97.4583 66.9437 96.2603 65.0357C94.5159 66.4615 92.1912 67.16 89.7931 66.767C85.3589 66.0404 82.3533 61.8566 83.0799 57.4223L83.1739 56.8488C83.8058 52.9928 87.052 50.2171 90.8037 50.0366C90.8213 49.7857 90.8507 49.5333 90.8921 49.2802L90.9861 48.7067Z" fill="#66A865"/>
<path fill-rule="evenodd" clip-rule="evenodd" d="M89.9113 36.9423C90.638 32.508 94.8217 29.5024 99.256 30.2291C103.69 30.9557 106.696 35.1395 105.969 39.5738L105.875 40.1473C105.826 40.4486 105.761 40.7434 105.68 41.0308C108.863 42.5497 110.799 46.0345 110.2 49.6895L110.106 50.263C109.38 54.6972 105.196 57.7028 100.762 56.9762C98.3638 56.5832 96.3836 55.1792 95.1855 53.2713C93.4412 54.697 91.1164 55.3956 88.7183 55.0026C84.284 54.276 81.2784 50.0922 82.0051 45.6579L82.0991 45.0844C82.731 41.2284 85.9771 38.4527 89.7289 38.2722C89.7465 38.0213 89.7758 37.7689 89.8173 37.5158L89.9113 36.9423Z" fill="#66A865"/>
<path fill-rule="evenodd" clip-rule="evenodd" d="M77.8928 38.3614C78.489 34.723 81.9218 32.2569 85.5602 32.8531C89.1986 33.4494 91.6647 36.8822 91.0685 40.5206L90.9914 40.9912C90.9509 41.2384 90.8972 41.4803 90.8313 41.7162C93.4426 42.9624 95.0317 45.8218 94.5403 48.8207L94.4632 49.2913C93.8669 52.9297 90.4341 55.3958 86.7957 54.7996C84.8281 54.4771 83.2033 53.3251 82.2203 51.7596C80.789 52.9295 78.8815 53.5027 76.9139 53.1803C73.2755 52.584 70.8094 49.1512 71.4056 45.5128L71.4827 45.0423C72.0012 41.8783 74.6647 39.6009 77.7431 39.4528C77.7575 39.2468 77.7816 39.0397 77.8156 38.832L77.8928 38.3614Z" fill="#66A865"/>
<path fill-rule="evenodd" clip-rule="evenodd" d="M100.1 35.4808C102.165 38.5348 101.364 42.685 98.3097 44.7505C95.2557 46.816 91.1055 46.0146 89.04 42.9606L88.7729 42.5656C88.6325 42.358 88.5053 42.1453 88.3912 41.9286C85.6373 42.8162 82.5184 41.8294 80.8159 39.3121L80.5488 38.9171C78.4833 35.8631 79.2846 31.7129 82.3387 29.6474C83.9903 28.5303 85.9625 28.2518 87.7522 28.7145C87.989 26.8813 88.9818 25.1546 90.6334 24.0376C93.6874 21.9721 97.8376 22.7735 99.9031 25.8275L100.17 26.2225C101.966 28.8782 101.595 32.3629 99.4588 34.5848C99.5898 34.7444 99.7145 34.9114 99.8324 35.0858L100.1 35.4808Z" fill="#83C082"/>
<path fill-rule="evenodd" clip-rule="evenodd" d="M111.076 58.1552C109.623 59.6931 107.592 60.643 105.4 60.7062C104.962 61.8621 104.239 62.9292 103.241 63.7961L102.824 64.1578C100.022 66.5895 95.9669 66.6455 93.1182 64.4999C92.9531 64.6724 92.7785 64.8389 92.5945 64.9985L92.1778 65.3602C88.9556 68.1565 84.0766 67.8113 81.2803 64.5891C79.6432 62.7027 79.0828 60.2483 79.5462 57.9765C78.2776 58.4494 76.8723 58.6082 75.4406 58.3736C72.2485 57.8505 69.805 55.516 68.9886 52.593C67.9038 53.726 67.1383 55.1872 66.8654 56.852L66.7725 57.4192C66.0538 61.8048 69.0264 65.9426 73.4119 66.6612C74.4899 66.8379 75.553 66.7915 76.554 66.5559C75.1394 69.2846 75.4416 72.7148 77.5787 75.1773C80.375 78.3995 85.254 78.7447 88.4762 75.9484L88.8929 75.5868C89.0769 75.4271 89.2515 75.2606 89.4167 75.0881C92.2654 77.2336 96.3202 77.1775 99.1222 74.7459L99.5389 74.3842C101.192 72.9498 102.088 70.9674 102.191 68.9418C106.482 69.4429 110.451 66.4834 111.157 62.1755L111.251 61.602C111.446 60.4146 111.373 59.2451 111.076 58.1552Z" fill="#458244"/>
</svg>
