<svg width="80" height="77" viewBox="0 0 80 77" fill="none" xmlns="http://www.w3.org/2000/svg">
<path d="M18.1682 39.5389C16.7059 41.0012 -0.842248 73.4653 0.912564 75.2201C2.66738 76.9749 36.8862 75.2201 36.8862 75.2201H42.4431C42.4431 75.2201 76.662 76.9749 78.4168 75.2201C80.1716 73.4653 62.331 40.7088 61.1611 39.5389C59.9912 38.369 42.4431 39.5389 42.4431 39.5389H36.8862C36.8862 39.5389 19.6306 38.0766 18.1682 39.5389Z" fill="#83C082" stroke="#B5E08C"/>
<path d="M10 55L33.0841 47.728L35.1314 39.5388H40.1034L38.0561 47.728C38.0561 47.728 70 57 70.5 57.5C71 58 72.5 61.5 72.5 61.5L63.5 59L61.5 75.2051H52.5L58.5 57.3715L35.7163 50.6527L8 59L10 55Z" fill="#E0FFDF"/>
<ellipse opacity="0.64" cx="34" cy="64" rx="11" ry="4" fill="black"/>
<path d="M32.3666 39.1414H35.6585L38.3415 64.7674H29.6413L32.3666 39.1414Z" fill="#93642D"/>
<path d="M32.343 39.1414H35.6134L37.0353 52.9341H30.921L32.343 39.1414Z" fill="#714D22"/>
<path fill-rule="evenodd" clip-rule="evenodd" d="M19.4347 27.0474C19.4347 23.2273 22.5315 20.1305 26.3516 20.1305C30.1717 20.1305 33.2685 23.2273 33.2685 27.0474V27.5415C33.2685 27.8011 33.2542 28.0574 33.2264 28.3096C36.1052 29.1463 38.2092 31.8037 38.2092 34.9525V35.4466C38.2092 39.2667 35.1124 42.3635 31.2923 42.3635C29.2264 42.3635 27.372 41.4578 26.1046 40.0218C24.8372 41.4578 22.9828 42.3635 20.9169 42.3635C17.0968 42.3635 14 39.2667 14 35.4466V34.9525C14 31.6306 16.3418 28.8556 19.4645 28.1883C19.4448 27.9754 19.4347 27.7596 19.4347 27.5415V27.0474Z" fill="#66A865"/>
<path fill-rule="evenodd" clip-rule="evenodd" d="M34.9868 48.1475C32.6422 50.9675 28.4554 51.3529 25.6354 49.0083C22.8153 46.6637 22.4299 42.4769 24.7746 39.6569L25.0778 39.2922C25.2371 39.1005 25.405 38.9201 25.5803 38.751C23.9687 36.3665 24.0465 33.1134 25.9791 30.789L26.2823 30.4243C28.6269 27.6042 32.8137 27.2188 35.6337 29.5635C37.1588 30.8314 37.9718 32.6381 38.0261 34.4761C39.8431 34.1939 41.7678 34.6635 43.2929 35.9314C46.1129 38.276 46.4983 42.4628 44.1537 45.2828L43.8505 45.6475C41.8116 48.0998 38.3797 48.711 35.6649 47.287C35.5488 47.4563 35.4239 47.6218 35.29 47.7828L34.9868 48.1475Z" fill="#66A865"/>
<path fill-rule="evenodd" clip-rule="evenodd" d="M33.329 24.8186C33.329 20.9561 36.4602 17.8249 40.3228 17.8249C44.1853 17.8249 47.3166 20.9561 47.3166 24.8186V25.3182C47.3166 25.5807 47.3021 25.8398 47.2739 26.0948C50.1847 26.9409 52.3121 29.6278 52.3121 32.8115V33.3111C52.3121 37.1737 49.1809 40.3049 45.3183 40.3049C43.2295 40.3049 41.3545 39.3891 40.073 37.9372C38.7915 39.3891 36.9165 40.3049 34.8276 40.3049C30.9651 40.3049 27.8339 37.1736 27.8339 33.3111V32.8115C27.8339 29.4527 30.2017 26.6469 33.3592 25.9722C33.3392 25.7569 33.329 25.5387 33.329 25.3182V24.8186Z" fill="#66A865"/>
<path fill-rule="evenodd" clip-rule="evenodd" d="M30.7818 14.9885C30.7818 11.126 33.913 7.99475 37.7756 7.99475C41.6382 7.99475 44.7694 11.126 44.7694 14.9885V15.4881C44.7694 15.7506 44.7549 16.0097 44.7267 16.2647C47.6375 17.1108 49.7649 19.7977 49.7649 22.9814V23.481C49.7649 27.3435 46.6337 30.4748 42.7711 30.4748C40.6823 30.4748 38.8073 29.559 37.5258 28.107C36.2443 29.559 34.3693 30.4748 32.2805 30.4748C28.4179 30.4748 25.2867 27.3435 25.2867 23.481V22.9814C25.2867 19.6226 27.6545 16.8167 30.812 16.1421C30.792 15.9268 30.7818 15.7086 30.7818 15.4881V14.9885Z" fill="#66A865"/>
<path fill-rule="evenodd" clip-rule="evenodd" d="M20.7839 17.8631C20.7839 14.6938 23.3531 12.1246 26.5224 12.1246C29.6917 12.1246 32.2609 14.6938 32.2609 17.8631V18.273C32.2609 18.4884 32.249 18.701 32.2259 18.9102C34.6143 19.6044 36.3598 21.809 36.3598 24.4214V24.8313C36.3598 28.0005 33.7906 30.5697 30.6213 30.5697C28.9074 30.5697 27.3689 29.8183 26.3174 28.627C25.2659 29.8183 23.7275 30.5697 22.0136 30.5697C18.8443 30.5697 16.2751 28.0005 16.2751 24.8312V24.4213C16.2751 21.6654 18.2179 19.3631 20.8087 18.8096C20.7923 18.6329 20.7839 18.4539 20.7839 18.273V17.8631Z" fill="#66A865"/>
<path fill-rule="evenodd" clip-rule="evenodd" d="M39.2212 12.3324C41.3979 14.6359 41.2951 18.2679 38.9915 20.4446C36.688 22.6213 33.056 22.5184 30.8794 20.2149L30.5978 19.9169C30.4499 19.7604 30.3125 19.5977 30.1856 19.4297C27.9729 20.5655 25.19 20.162 23.3958 18.2633L23.1143 17.9653C20.9376 15.6618 21.0404 12.0298 23.344 9.85314C24.5897 8.67599 26.224 8.16552 27.8065 8.30925C27.7525 6.72116 28.3547 5.11841 29.6004 3.94126C31.904 1.76457 35.5359 1.86741 37.7126 4.17096L37.9941 4.46888C39.887 6.47203 40.056 9.4797 38.5532 11.6614C38.6864 11.7786 38.8155 11.9029 38.9397 12.0344L39.2212 12.3324Z" fill="#83C082"/>
<path fill-rule="evenodd" clip-rule="evenodd" d="M51.6845 30.041C50.6657 31.5475 49.0751 32.6356 47.2241 32.994C47.0133 34.0354 46.5488 35.0411 45.8219 35.9154L45.5186 36.2801C43.4798 38.7323 40.0479 39.3436 37.3331 37.9195C37.217 38.0888 37.092 38.2543 36.9581 38.4153L36.6549 38.78C34.3103 41.6 30.1235 41.9854 27.3035 39.6408C25.6525 38.2682 24.836 36.2642 24.9133 34.2726C23.9029 34.8502 22.7328 35.1802 21.4857 35.1802C18.7052 35.1802 16.3079 33.5396 15.209 31.1736C14.4463 32.2854 14 33.6314 14 35.0816V35.5756C14 39.3957 17.0968 42.4926 20.9169 42.4926C21.8559 42.4926 22.7512 42.3054 23.5676 41.9665C22.747 44.4778 23.4802 47.3456 25.6353 49.1374C28.4554 51.482 32.6421 51.0966 34.9867 48.2766L35.29 47.9119C35.4238 47.7509 35.5488 47.5854 35.6649 47.4161C38.3797 48.8401 41.8116 48.2289 43.8504 45.7766L44.1537 45.4119C45.3564 43.9653 45.8407 42.1591 45.6466 40.4264C49.3567 40.255 52.3121 37.1927 52.3121 33.4402V32.9406C52.3121 31.9063 52.0875 30.9244 51.6845 30.041Z" fill="#458244"/>
</svg>
