<svg width="108" height="95" viewBox="0 0 108 95" fill="none" xmlns="http://www.w3.org/2000/svg">
<path d="M9.39349 74.6501C8.91227 73.6944 8.79346 72.7914 9.03703 71.941C9.27611 71.0816 9.91368 70.3911 10.9498 69.8694C11.575 69.5546 12.2073 69.3874 12.8468 69.3677C13.4773 69.3525 14.0793 69.5252 14.6527 69.8858C15.2128 70.242 15.6974 70.8265 16.1067 71.6393C16.6193 72.6575 16.7269 73.5382 16.4294 74.2814C16.1229 75.0292 15.474 75.6526 14.4826 76.1518C14.036 76.3767 13.5803 76.539 13.1154 76.6386C12.6506 76.7383 12.1967 76.7486 11.7538 76.6693C11.2974 76.5856 10.8719 76.3856 10.4775 76.0692C10.0696 75.7483 9.7083 75.2753 9.39349 74.6501Z" fill="#345D33"/>
<path d="M14.6035 59.872C14.8859 61.2943 14.7403 62.409 14.1665 63.2162C13.5928 64.0234 12.6781 64.5517 11.4226 64.801C10.4516 64.9938 9.55441 64.9681 8.73106 64.7238C7.89595 64.4716 7.19349 64.0147 6.6237 63.353C6.04215 62.6834 5.64716 61.8239 5.43875 60.7744C5.24787 59.8132 5.28815 59.0405 5.55959 58.4565C5.83102 57.8724 6.30023 57.5142 6.96721 57.3817C7.43801 57.2882 7.8419 57.3711 8.17887 57.6305C8.50408 57.882 8.72414 58.297 8.83906 58.8757C8.88386 59.1013 8.9218 59.3181 8.9529 59.526C8.97419 59.7359 8.99745 59.9301 9.02271 60.1086C9.04796 60.2871 9.07617 60.4548 9.10733 60.6117C9.1794 60.9747 9.31338 61.2386 9.50927 61.4036C9.70321 61.5588 9.95712 61.6052 10.271 61.5429C10.5554 61.4864 10.7468 61.3465 10.8452 61.123C10.9436 60.8996 10.9596 60.6211 10.8934 60.2876C10.8642 60.1405 10.8164 59.9767 10.7499 59.7962C10.6717 59.6078 10.5965 59.4086 10.5242 59.1987C10.452 58.9887 10.3954 58.7808 10.3545 58.5748C10.2649 58.1236 10.3184 57.7256 10.515 57.3807C10.7017 57.0377 11.0354 56.8185 11.516 56.7231C11.9967 56.6277 12.4447 56.6763 12.8602 56.8691C13.2659 57.0638 13.6204 57.4114 13.9237 57.9119C14.2153 58.4046 14.4419 59.0579 14.6035 59.872Z" fill="#345D33"/>
<path d="M14.106 50.1789C14.1186 50.7587 13.997 51.1465 13.7412 51.3421C13.4751 51.5279 13.0521 51.6221 12.472 51.6248L12.5415 51.3682C13.6429 51.8843 14.2103 52.9072 14.2436 54.4369C14.2588 55.1367 14.1515 55.7192 13.9215 56.1843C13.6814 56.6396 13.3638 56.9866 12.9689 57.2253C12.5738 57.4539 12.1313 57.5736 11.6414 57.5842C10.8116 57.6023 10.1502 57.3116 9.657 56.7122C9.15363 56.103 8.89086 55.2885 8.86867 54.2688C8.85519 53.6489 8.93831 53.102 9.11804 52.6279C9.29778 52.1539 9.55412 51.7532 9.88708 51.4259L9.86753 51.9065C9.08771 51.9234 8.536 52.0805 8.21238 52.3776C7.88877 52.6747 7.73305 53.1032 7.74523 53.663C7.75045 53.903 7.7961 54.1621 7.88217 54.4403C7.95802 54.7087 8.0391 54.987 8.12539 55.2752C8.20168 55.5636 8.24308 55.8577 8.24961 56.1577C8.25831 56.5576 8.16019 56.8748 7.95524 57.1093C7.74007 57.334 7.46253 57.4501 7.12261 57.4575C6.66272 57.4675 6.24858 57.2815 5.88018 56.8994C5.51178 56.5173 5.21565 56.0086 4.99178 55.3733C4.76769 54.7281 4.64749 54.0305 4.63118 53.2807C4.60986 52.3009 4.77633 51.4471 5.13058 50.7192C5.47484 49.9916 6.02372 49.4745 6.77724 49.168C7.32232 48.9361 7.9388 48.7677 8.62668 48.6627C9.31434 48.5477 10.0481 48.4817 10.8279 48.4648C11.6777 48.4463 12.3388 48.4919 12.8113 48.6017C13.2838 48.7114 13.618 48.8992 13.8138 49.165C13.9994 49.421 14.0968 49.759 14.106 50.1789ZM11.9804 53.1658C11.9761 52.9659 11.9417 52.7666 11.8774 52.5679C11.8028 52.3595 11.7041 52.1866 11.581 52.0492C11.448 51.9121 11.2915 51.8455 11.1116 51.8494C10.9316 51.8533 10.7879 51.9115 10.6803 52.0238C10.5727 52.1362 10.496 52.2879 10.4501 52.4789C10.404 52.66 10.3833 52.8555 10.3879 53.0654C10.3961 53.4453 10.4827 53.7485 10.6477 53.975C10.8127 54.2015 11.0151 54.3121 11.2551 54.3069C11.475 54.3021 11.6528 54.1982 11.7884 53.9952C11.9238 53.7822 11.9878 53.5057 11.9804 53.1658Z" fill="#345D33"/>
<path d="M8.75204 41.3277C8.36806 41.1526 8.03836 40.9064 7.76295 40.5892C7.48755 40.2719 7.29121 39.9138 7.17394 39.5147C7.04872 39.1039 7.0283 38.6776 7.11266 38.2355C7.21389 37.7051 7.42666 37.257 7.75096 36.8914C8.07527 36.5257 8.53987 36.2784 9.14475 36.1495C9.74964 36.0206 10.5187 36.0452 11.4518 36.2233C11.9037 36.3095 12.3616 36.4173 12.8256 36.5466C13.2797 36.674 13.7026 36.8056 14.094 36.9414C14.4757 37.0753 14.7926 37.202 15.0447 37.3213C15.5035 37.5311 15.8198 37.8205 15.9937 38.1896C16.1695 38.549 16.2133 38.9595 16.1252 39.4211C16.0408 39.8631 15.8515 40.1884 15.5572 40.3969C15.2629 40.6055 14.8898 40.6666 14.4379 40.5804C14.271 40.5485 14.0497 40.4808 13.7742 40.3773C13.4889 40.272 13.1849 40.158 12.8622 40.0353C12.5395 39.9126 12.2256 39.7967 11.9207 39.6876C11.6059 39.5767 11.3405 39.5005 11.1244 39.4593C10.81 39.3993 10.5581 39.4123 10.3687 39.4983C10.1712 39.5726 10.0528 39.7129 10.0135 39.9192C9.96096 40.1942 10.0956 40.449 10.4173 40.6835C10.7391 40.9179 11.2302 41.1186 11.8906 41.2853C12.3958 41.4123 12.8401 41.5378 13.2237 41.6619C13.6091 41.7762 13.925 41.9077 14.1715 42.0566C14.5105 42.2536 14.75 42.4928 14.8897 42.774C15.0215 43.0434 15.049 43.3796 14.9722 43.7823C14.8878 44.2243 14.6975 44.5545 14.4013 44.7728C14.0953 44.9893 13.6752 45.0567 13.1411 44.9752C12.8445 44.9287 12.4949 44.8671 12.0921 44.7902C11.6913 44.7036 11.2944 44.6227 10.9015 44.5477C10.5105 44.4629 10.1854 44.406 9.92623 44.3769C9.55904 44.3272 9.27977 44.3502 9.08841 44.446C8.88911 44.5302 8.7679 44.6852 8.72478 44.9111C8.67791 45.1567 8.76905 45.3726 8.99819 45.5588C9.22734 45.7451 9.56806 45.9068 10.0204 46.0441C10.2444 46.097 10.5234 46.1554 10.8574 46.2191C11.1914 46.2828 11.5253 46.3466 11.8593 46.4103C12.1853 46.4624 12.4604 46.5148 12.6844 46.5678C13.3879 46.7224 13.8656 46.9663 14.1177 47.2994C14.3697 47.6326 14.4488 48.0447 14.3551 48.5359C14.2501 49.0859 14.02 49.4645 13.6649 49.6716C13.3098 49.8787 12.7877 49.9471 12.0987 49.8767C11.7081 49.8428 11.3194 49.7992 10.9326 49.7457C10.5457 49.6922 10.1608 49.629 9.7777 49.5558C9.39462 49.4827 8.98978 49.3902 8.56321 49.2782C8.12681 49.1644 7.71591 49.0504 7.3305 48.9361C6.68738 48.7319 6.17221 48.4707 5.785 48.1525C5.38985 47.8225 5.24383 47.3874 5.34693 46.8472C5.44067 46.3561 5.65059 46.0296 5.97669 45.8679C6.29297 45.7043 6.74088 45.6778 7.32042 45.7884C7.51687 45.8259 7.69578 45.8753 7.85714 45.9366L7.55402 45.9246C6.95304 45.6063 6.5198 45.1826 6.25429 44.6534C5.97896 44.1224 5.89472 43.5769 6.00158 43.017C6.13843 42.3 6.47121 41.7832 6.99992 41.4667C7.5188 41.1483 8.1749 41.0445 8.96822 41.1552L8.75204 41.3277Z" fill="#345D33"/>
<path d="M8.27196 35.6884C8.43121 35.3106 8.71605 35.0725 9.12645 34.9742C9.53153 34.8628 10.0891 34.8917 10.7992 35.0608L10.8289 35.4151C10.2538 34.9774 9.89089 34.4608 9.74027 33.8656C9.58965 33.2704 9.64446 32.664 9.90471 32.0467C10.1533 31.4569 10.5202 30.9984 11.0054 30.6712C11.4906 30.344 12.0871 30.1776 12.7948 30.172C13.4972 30.1534 14.2953 30.3325 15.1891 30.7092C16.6358 31.3191 17.5902 32.0415 18.0521 32.8765C18.5087 33.6984 18.5448 34.5654 18.1602 35.4777C17.9 36.0951 17.5559 36.5252 17.128 36.7681C16.7039 37.0017 16.2646 37.1041 15.8101 37.0753L15.7971 36.8745C16.3442 37.0183 16.8809 37.174 17.4071 37.3415C17.928 37.496 18.3774 37.6529 18.7552 37.8121C19.2252 38.0102 19.5709 38.297 19.7924 38.6726C20.0232 39.052 20.0298 39.4997 19.8123 40.0157C19.6103 40.4949 19.2983 40.7975 18.8762 40.9234C18.4672 41.044 17.9761 41.0378 17.4028 40.9046C17.0017 40.8007 16.4992 40.654 15.8954 40.4645C15.2823 40.2712 14.6271 40.0493 13.9296 39.7987C13.2361 39.5389 12.5576 39.2692 11.8941 38.9895C11.2399 38.7138 10.6368 38.4324 10.0849 38.1455C9.52768 37.8455 9.08491 37.5829 8.75661 37.3577C8.45062 37.1311 8.25936 36.8768 8.18283 36.595C8.11019 36.3039 8.1399 36.0017 8.27196 35.6884ZM11.7724 34.1036C11.6287 34.4446 11.6826 34.7929 11.9342 35.1485C12.1897 35.495 12.5893 35.7828 13.133 36.0119C13.6951 36.2489 14.1571 36.3243 14.519 36.2381C14.8809 36.1519 15.1317 35.9429 15.2716 35.6112C15.4425 35.2057 15.4062 34.854 15.1628 34.5561C14.9233 34.2489 14.5548 33.9905 14.0572 33.7807C13.4306 33.5166 12.9232 33.433 12.5351 33.5298C12.1509 33.6175 11.8967 33.8087 11.7724 34.1036Z" fill="#345D33"/>
<path d="M23.1893 27.9609C22.9649 28.304 22.7172 28.5183 22.4461 28.6039C22.1667 28.684 21.8837 28.6782 21.5972 28.5864C21.3079 28.4808 21.0251 28.3377 20.7489 28.157L20.7397 28.0614C21.0175 28.4223 21.2013 28.8173 21.291 29.2465C21.3862 29.6672 21.3983 30.0873 21.3271 30.5068C21.253 30.9124 21.1092 31.2783 20.8957 31.6047C20.5728 32.0985 20.1972 32.4443 19.769 32.6423C19.3325 32.8347 18.8115 32.8823 18.206 32.785C17.6977 32.7035 17.0774 32.5009 16.3451 32.1773C15.6183 31.8453 14.8992 31.4467 14.1878 30.9814C13.8614 30.7679 13.5725 30.5611 13.3211 30.3608C13.0669 30.1467 12.8668 29.9502 12.721 29.7711C12.4687 29.4627 12.3438 29.1421 12.3464 28.8092C12.3545 28.468 12.4681 28.13 12.687 27.7953C12.9443 27.4019 13.2765 27.1771 13.6837 27.1208C14.0881 27.0507 14.5299 27.1425 15.0092 27.3962C15.2767 27.5353 15.5791 27.7033 15.9164 27.9C16.2454 28.0912 16.5702 28.2798 16.8907 28.4656C17.2113 28.6513 17.4901 28.8098 17.727 28.9408C18.0586 29.1099 18.338 29.1851 18.5652 29.1664C18.7841 29.1423 18.962 29.0256 19.0989 28.8164C19.2576 28.5737 19.2608 28.313 19.1086 28.0342C18.9535 27.7415 18.6667 27.4584 18.2483 27.1847C18.0223 27.0369 17.7588 26.8825 17.4579 26.7215C17.1624 26.5522 16.8753 26.3883 16.5965 26.2298C16.3094 26.066 16.0779 25.9265 15.9022 25.8116C15.3331 25.4394 14.9984 25.0651 14.898 24.6888C14.8031 24.3041 14.887 23.9109 15.1497 23.5092C15.3632 23.1828 15.6177 22.949 15.9132 22.8077C16.2004 22.6609 16.5093 22.618 16.8399 22.6789C17.1592 22.7204 17.5555 22.8362 18.0286 23.0262C18.5018 23.2162 19.0185 23.4585 19.5785 23.7531C20.1303 24.0423 20.699 24.3784 21.2849 24.7616C22.2222 25.3746 22.8595 25.9349 23.1968 26.4422C23.5257 26.9441 23.5232 27.4503 23.1893 27.9609Z" fill="#345D33"/>
<path d="M19.5382 18.6262C20.2771 17.8385 20.9459 17.4033 21.5446 17.3205C22.1429 17.2236 22.6572 17.377 23.0875 17.7807C23.3573 18.0338 23.4942 18.3336 23.4982 18.6802C23.509 19.0194 23.3639 19.3495 23.0629 19.6704C22.8439 19.9038 22.5714 20.1212 22.2454 20.3226C21.9188 20.5099 21.5948 20.7749 21.2732 21.1177C21.1227 21.2781 21.0355 21.4295 21.0118 21.5717C20.9949 21.7067 21.0338 21.8186 21.1286 21.9076C21.2234 21.9965 21.3447 22.028 21.4924 22.0021C21.6397 21.962 21.8787 21.8023 22.2094 21.5229C22.7731 21.0097 23.2985 20.625 23.7856 20.3689C24.2795 20.1055 24.7573 20.0054 25.2192 20.0685C25.6738 20.1247 26.1417 20.3786 26.6231 20.8302C27.3305 21.4938 27.5949 22.2424 27.4164 23.0758C27.2447 23.902 26.7175 24.7854 25.8349 25.7262C25.226 26.3753 24.6748 26.8386 24.1813 27.1161C23.6806 27.3868 23.2351 27.5036 22.8448 27.4665C22.4472 27.4226 22.0989 27.2604 21.7999 26.9799C21.5082 26.7062 21.371 26.3993 21.3885 26.0592C21.4055 25.7049 21.5371 25.3965 21.7834 25.134C21.9408 24.9662 22.134 24.8115 22.3629 24.6698C22.5845 24.5212 22.8201 24.3651 23.0696 24.2015C23.319 24.0379 23.5464 23.8467 23.7516 23.6279C24.0253 23.3362 24.0783 23.1116 23.9105 22.9543C23.8522 22.8995 23.784 22.8699 23.7061 22.8653C23.6277 22.8466 23.5189 22.8748 23.3798 22.95C23.2403 23.011 23.0569 23.1407 22.8298 23.339C22.313 23.7729 21.8287 24.1138 21.3768 24.3616C20.9248 24.6095 20.4861 24.719 20.0607 24.6902C19.628 24.6545 19.2002 24.4382 18.7772 24.0414C18.0917 23.3982 17.8042 22.5938 17.9149 21.6281C18.0255 20.6624 18.5667 19.6618 19.5382 18.6262Z" fill="#345D33"/>
<path d="M29.8074 11.2213C30.7213 10.6649 31.6119 10.4739 32.4791 10.6484C33.3549 10.8177 34.0944 11.3977 34.6976 12.3885C35.0616 12.9864 35.2791 13.6033 35.3501 14.2391C35.4159 14.8664 35.2921 15.4803 34.9787 16.0809C34.6686 16.6677 34.125 17.1977 33.3477 17.6709C32.3739 18.2637 31.5047 18.4417 30.74 18.2048C29.9701 17.9594 29.2965 17.3626 28.7193 16.4145C28.4593 15.9875 28.2609 15.5463 28.1242 15.091C27.9875 14.6356 27.9409 14.184 27.9843 13.7361C28.031 13.2745 28.1963 12.8344 28.48 12.4158C28.767 11.9835 29.2095 11.5853 29.8074 11.2213Z" fill="#345D33"/>
<path d="M40.9312 6.81142L40.7869 6.85236C40.6187 6.44271 40.5199 6.03937 40.4904 5.64234C40.4582 5.2357 40.5344 4.88145 40.719 4.5796C40.9009 4.26812 41.2276 4.04552 41.699 3.91178C42.18 3.77531 42.5625 3.78633 42.8466 3.94482C43.1306 4.10331 43.3286 4.37977 43.4405 4.77421C43.5824 5.27446 43.5884 5.73532 43.4585 6.15678L43.3349 6.16067C43.6198 5.88236 43.9642 5.68588 44.3683 5.57125C44.8685 5.42932 45.3019 5.43631 45.6683 5.59221C46.0417 5.73576 46.3089 6.09133 46.4699 6.65893C46.62 7.18805 46.5615 7.64123 46.2943 8.01848C46.0244 8.3861 45.6297 8.64361 45.1102 8.79099C44.9274 8.84285 44.7275 8.88918 44.5104 8.92999C44.3002 8.95844 44.0907 8.9711 43.8819 8.96797L43.909 8.78876C44.1159 9.04189 44.329 9.33486 44.5481 9.66768C44.7646 9.99088 44.972 10.3374 45.1705 10.7073C45.3759 11.0648 45.5559 11.4243 45.7104 11.7859C45.8718 12.1351 45.9935 12.454 46.0754 12.7426C46.2501 13.3583 46.234 13.8878 46.0271 14.3311C45.8299 14.7716 45.4186 15.0806 44.7933 15.258C44.4084 15.3672 44.0671 15.3913 43.7691 15.3303C43.4711 15.2693 43.2111 15.1404 42.9889 14.9436C42.7668 14.7467 42.5756 14.4943 42.4155 14.1863C42.2526 13.8687 42.1166 13.5175 42.0074 13.1327C41.9146 12.8056 41.8349 12.4332 41.7684 12.0155C41.7088 11.5855 41.6691 11.1342 41.6494 10.6616C41.6296 10.189 41.6346 9.73027 41.6643 9.28527L41.9109 9.60509C41.674 9.94256 41.3199 10.1782 40.8485 10.3119C40.3194 10.462 39.8689 10.4495 39.497 10.2744C39.1223 10.0896 38.8572 9.72305 38.7016 9.17469C38.5406 8.60709 38.5751 8.12433 38.8053 7.72641C39.045 7.32576 39.4391 7.04765 39.9874 6.89208C40.1606 6.84295 40.3296 6.81579 40.4944 6.8106C40.6566 6.7958 40.8022 6.79607 40.9312 6.81142Z" fill="#345D33"/>
<path d="M46.7799 8.40096C46.6477 7.24852 46.6966 6.40243 46.9266 5.86271C47.1555 5.31306 47.5282 5.00861 48.0448 4.94936C48.3926 4.90949 48.6833 4.98687 48.917 5.18151C49.1495 5.36622 49.3287 5.6124 49.4546 5.92006C49.5893 6.21665 49.6748 6.5239 49.7113 6.84182L49.6334 6.82056C49.7407 6.26471 49.9411 5.77368 50.2345 5.34748C50.5278 4.92128 50.9179 4.68027 51.4047 4.62444C52.0505 4.55039 52.5564 4.74904 52.9225 5.2204C53.2886 5.69175 53.5155 6.30993 53.6032 7.07491C53.7183 8.07834 53.6402 8.80194 53.369 9.24573C53.1066 9.67845 52.7171 9.92443 52.2005 9.98367C51.8031 10.0292 51.4975 9.95357 51.2836 9.75665C51.0786 9.54866 50.9648 9.21445 50.9422 8.75403C50.9233 8.41396 50.8822 8.18717 50.8189 8.07365C50.7643 7.94905 50.6923 7.89188 50.6029 7.90214C50.4738 7.91695 50.3879 8.00228 50.3454 8.15814C50.3017 8.30407 50.2947 8.50618 50.3244 8.76449C50.3471 8.96319 50.4005 9.20871 50.4843 9.50106C50.5682 9.79341 50.6604 10.115 50.761 10.4658C50.8605 10.8067 50.955 11.1482 51.0446 11.4902C51.1341 11.8322 51.1954 12.1473 51.2285 12.4354C51.2991 13.0513 51.2002 13.5056 50.9318 13.7981C50.6634 14.0905 50.2609 14.2676 49.7244 14.3291C49.2178 14.3872 48.7857 14.3059 48.4282 14.0852C48.0807 13.8633 47.8187 13.4656 47.6422 12.892C47.5415 12.5411 47.4306 12.1009 47.3095 11.5713C47.1983 11.0405 47.0953 10.4936 47.0006 9.93078C46.9047 9.35797 46.8311 8.84803 46.7799 8.40096Z" fill="#345D33"/>
<path d="M58.5422 14.3824C57.314 14.3159 56.3444 14.0981 55.6333 13.7291C54.9222 13.3602 54.4187 12.8572 54.1227 12.2203C53.8367 11.5839 53.7169 10.8363 53.7634 9.97757C53.8223 8.88916 54.097 7.97768 54.5874 7.24312C55.0884 6.49911 55.7443 5.94376 56.5554 5.57707C57.3764 5.21092 58.2911 5.05514 59.2996 5.10974C60.4979 5.17461 61.3636 5.46184 61.8969 5.97141C62.4306 6.47099 62.6767 7.10522 62.6351 7.8741C62.6021 8.48321 62.4037 9.00324 62.0399 9.4342C61.686 9.86571 61.203 10.1851 60.5909 10.3923C59.9888 10.6 59.2984 10.6828 58.5195 10.6407C58.16 10.6212 57.8119 10.5773 57.4751 10.509C57.1383 10.4407 56.8372 10.3593 56.572 10.2648L56.9768 9.44551C56.9339 9.68354 56.906 9.92238 56.893 10.162C56.8697 10.5914 57.008 10.9043 57.3078 11.1008C57.6176 11.2979 58.0521 11.4115 58.6113 11.4418C59.1505 11.471 59.6128 11.4409 59.9982 11.3516C60.3841 11.2524 60.7249 11.1556 61.0204 11.0615C61.3165 10.9573 61.5943 10.9123 61.8539 10.9263C62.0337 10.9361 62.216 10.991 62.4008 11.0911C62.5857 11.1913 62.7379 11.3397 62.8574 11.5365C62.9769 11.7332 63.0281 11.9914 63.0108 12.3109C62.987 12.7503 62.8009 13.1358 62.4524 13.4674C62.104 13.7991 61.5998 14.0472 60.94 14.2117C60.2901 14.3768 59.4909 14.4337 58.5422 14.3824ZM57.9565 9.10798C58.4358 9.13393 58.8564 9.04153 59.2184 8.83079C59.5808 8.61006 59.7712 8.32995 59.7896 7.99044C59.8015 7.77076 59.7314 7.5867 59.5792 7.43826C59.427 7.28981 59.2111 7.20802 58.9315 7.19289C58.6219 7.17613 58.3241 7.22009 58.038 7.32478C57.762 7.43001 57.5339 7.57289 57.3539 7.75342C57.1738 7.93395 57.0776 8.13905 57.0652 8.36871C57.0533 8.58839 57.124 8.76247 57.2773 8.89094C57.4405 9.01996 57.6669 9.0923 57.9565 9.10798Z" fill="#345D33"/>
<path d="M65.5718 15.8437C64.3755 15.558 63.4606 15.17 62.8272 14.6795C62.1938 14.1889 61.7886 13.6038 61.6116 12.9242C61.4443 12.2468 61.4606 11.4899 61.6603 10.6534C61.9134 9.59318 62.3471 8.74572 62.9613 8.11101C63.5875 7.46889 64.3324 7.04016 65.1961 6.82484C66.0694 6.61184 66.9973 6.62261 67.9797 6.85717C69.1469 7.13585 69.9471 7.57366 70.3803 8.17059C70.8158 8.75779 70.9442 9.42586 70.7654 10.1748C70.6237 10.7681 70.3353 11.2442 69.9 11.6029C69.4746 11.964 68.9421 12.1915 68.3028 12.2856C67.6732 12.3821 66.9791 12.3397 66.2204 12.1586C65.8702 12.0749 65.5356 11.9693 65.2165 11.8418C64.8974 11.7142 64.6159 11.5801 64.3718 11.4396L64.9171 10.7062C64.8321 10.9326 64.7618 11.1626 64.7061 11.396C64.6062 11.8143 64.6861 12.1469 64.9459 12.394C65.2153 12.6434 65.6224 12.8331 66.1671 12.9632C66.6923 13.0886 67.1525 13.1419 67.5477 13.1232C67.9451 13.0947 68.2977 13.0606 68.6053 13.021C68.9153 12.9716 69.1967 12.9771 69.4496 13.0375C69.6246 13.0793 69.7941 13.166 69.958 13.2977C70.1219 13.4294 70.245 13.6027 70.3274 13.8177C70.4097 14.0327 70.4137 14.2958 70.3394 14.6071C70.2372 15.035 69.985 15.3809 69.5827 15.6447C69.1805 15.9085 68.64 16.0622 67.9613 16.1058C67.2924 16.1517 66.4959 16.0643 65.5718 15.8437ZM65.9414 10.5498C66.4083 10.6612 66.8386 10.6458 67.2325 10.5033C67.6286 10.3512 67.8662 10.1097 67.9452 9.77904C67.9962 9.56506 67.9602 9.3714 67.8371 9.19807C67.714 9.02474 67.5163 8.90556 67.2439 8.84054C66.9424 8.76854 66.6415 8.75839 66.3413 8.81009C66.0508 8.8641 65.8009 8.96377 65.5914 9.1091C65.3819 9.25443 65.2505 9.43894 65.1971 9.66266C65.146 9.87664 65.1843 10.0606 65.3121 10.2144C65.4495 10.3706 65.6593 10.4824 65.9414 10.5498Z" fill="#345D33"/>
<path d="M79.3791 11.9457C80.3125 12.4688 80.916 13.151 81.1897 13.9921C81.4721 14.8382 81.3298 15.7672 80.7627 16.7791C80.4204 17.3898 79.9898 17.8821 79.4707 18.256C78.9565 18.6213 78.3608 18.8148 77.6838 18.8365C77.0203 18.8545 76.2917 18.641 75.4978 18.1961C74.5034 17.6388 73.9216 16.9688 73.7526 16.1863C73.5885 15.3951 73.7778 14.5153 74.3204 13.547C74.5649 13.1108 74.8519 12.7214 75.1815 12.3788C75.511 12.0362 75.8816 11.7739 76.2931 11.5918C76.7183 11.406 77.1828 11.3339 77.6868 11.3756C78.2043 11.4134 78.7684 11.6035 79.3791 11.9457Z" fill="#345D33"/>
<path d="M88.2247 18.6328C88.5141 18.9232 88.6265 19.277 88.5621 19.6941C88.5119 20.1112 88.274 20.6163 87.8487 21.2095L87.5095 21.1028C88.1324 20.7362 88.7478 20.596 89.3558 20.682C89.9637 20.7679 90.5042 21.0483 90.977 21.5229C91.4287 21.9763 91.7142 22.4895 91.8333 23.0624C91.9524 23.6354 91.8806 24.2505 91.6177 24.9076C91.369 25.5647 90.9011 26.2356 90.2139 26.9202C89.1017 28.0283 88.0717 28.6381 87.124 28.7494C86.1904 28.8608 85.3742 28.5659 84.6755 27.8645C84.2026 27.3899 83.9348 26.9086 83.8721 26.4205C83.8164 25.9396 83.888 25.4943 84.0867 25.0845L84.2775 25.1485C83.9373 25.6004 83.59 26.0382 83.2356 26.4618C82.8954 26.8854 82.5801 27.2419 82.2896 27.5313C81.9283 27.8912 81.532 28.1026 81.1005 28.1655C80.662 28.2354 80.2451 28.0719 79.8498 27.6752C79.4828 27.3069 79.321 26.9035 79.3642 26.4652C79.4074 26.041 79.5992 25.5888 79.9395 25.1086C80.1876 24.7767 80.5136 24.3672 80.9176 23.8801C81.3286 23.3858 81.7821 22.8634 82.2781 22.3128C82.7812 21.7693 83.2878 21.2434 83.7978 20.7352C84.3008 20.2341 84.7895 19.7825 85.2641 19.3803C85.7527 18.9782 86.1634 18.6678 86.4962 18.4492C86.8218 18.2519 87.1295 18.1711 87.4194 18.207C87.7163 18.25 87.9847 18.3919 88.2247 18.6328ZM88.366 22.4726C88.1049 22.2105 87.7621 22.1286 87.3377 22.2268C86.9203 22.3321 86.5026 22.5929 86.0846 23.0093C85.6525 23.4399 85.4078 23.8389 85.3505 24.2065C85.2933 24.5741 85.3917 24.8854 85.6458 25.1404C85.9563 25.4521 86.2956 25.5518 86.6635 25.4393C87.0384 25.3339 87.4172 25.0907 87.7997 24.7096C88.2815 24.2296 88.551 23.7917 88.6083 23.3959C88.6726 23.0071 88.5919 22.6993 88.366 22.4726Z" fill="#345D33"/>
<path d="M90.5094 25.7852C91.4567 25.1157 92.2222 24.7521 92.8061 24.6946C93.3981 24.6313 93.8442 24.8119 94.1443 25.2366C94.3463 25.5224 94.4181 25.8145 94.3597 26.113C94.3094 26.4057 94.1796 26.6812 93.9702 26.9393C93.7748 27.1999 93.5464 27.4226 93.2851 27.6073L93.2663 27.5287C93.8054 27.3559 94.3323 27.2957 94.847 27.3483C95.3617 27.4008 95.7605 27.6272 96.0433 28.0273C96.4185 28.5581 96.4873 29.0973 96.2497 29.6448C96.0122 30.1923 95.579 30.6883 94.9502 31.1327C94.1254 31.7156 93.4533 31.9948 92.9338 31.9701C92.4282 31.9478 92.0253 31.7244 91.7252 31.2997C91.4943 30.9731 91.4139 30.6687 91.4839 30.3865C91.5678 30.1068 91.8063 29.8464 92.1992 29.6054C92.4884 29.4255 92.6676 29.2805 92.7367 29.1704C92.8198 29.0627 92.8354 28.9721 92.7834 28.8986C92.7084 28.7925 92.5923 28.7582 92.4352 28.7958C92.2862 28.8276 92.1056 28.9185 91.8933 29.0686C91.7299 29.184 91.5402 29.3487 91.3241 29.5627C91.108 29.7767 90.8702 30.0121 90.6109 30.2688C90.3597 30.5199 90.1056 30.7668 89.8486 31.0096C89.5917 31.2525 89.3448 31.4576 89.108 31.625C88.6017 31.9828 88.1558 32.1143 87.7703 32.0194C87.3848 31.9244 87.0363 31.6565 86.7246 31.2155C86.4302 30.799 86.294 30.381 86.3158 29.9615C86.3435 29.5501 86.5664 29.1292 86.9847 28.6989C87.2441 28.4421 87.5769 28.1333 87.9833 27.7727C88.3954 27.4202 88.8255 27.0672 89.2737 26.7137C89.73 26.3544 90.1419 26.0449 90.5094 25.7852Z" fill="#345D33"/>
<path d="M90.7349 38.4284C90.3459 37.6168 90.1644 36.8333 90.1904 36.0778C90.2297 35.3271 90.467 34.6422 90.9022 34.0233C91.3418 33.4134 91.9718 32.9117 92.7924 32.5184C93.6491 32.1077 94.4775 31.9158 95.2777 31.9425C96.0779 31.9692 96.8031 32.1982 97.4534 32.6295C98.1081 33.0698 98.6299 33.6957 99.0189 34.5073C99.4339 35.373 99.6168 36.2057 99.5677 37.0055C99.532 37.81 99.2873 38.5373 98.8337 39.1872C98.38 39.8371 97.7384 40.3609 96.9088 40.7586C96.0612 41.165 95.2443 41.3347 94.4582 41.268C93.6764 41.2102 92.9653 40.9412 92.3247 40.4609C91.6842 39.9806 91.1542 39.3031 90.7349 38.4284ZM93.6121 37.2821C93.7807 37.6338 94.05 37.8485 94.4199 37.9262C94.7942 38.0129 95.2068 37.9482 95.6576 37.7321C96.1085 37.516 96.4173 37.2349 96.5841 36.8888C96.7552 36.5517 96.7565 36.2073 96.5879 35.8556C96.415 35.4949 96.1414 35.2712 95.7671 35.1845C95.3972 35.1067 94.9868 35.1759 94.5359 35.3921C94.085 35.6082 93.774 35.8848 93.6029 36.2219C93.4362 36.568 93.4392 36.9214 93.6121 37.2821Z" fill="#345D33"/>
<path d="M89.03 42.7793C88.9042 42.3681 88.8725 41.9908 88.9349 41.6476C88.9877 41.3073 89.115 41.0226 89.3169 40.7936C89.5158 40.555 89.7587 40.3918 90.0456 40.3041C90.3994 40.1959 90.703 40.1972 90.9565 40.3079C91.21 40.4186 91.3806 40.6174 91.4683 40.9043C91.5502 41.1721 91.543 41.4566 91.4469 41.7579C91.3508 42.0591 91.1433 42.3892 90.8243 42.7482L90.8024 42.6765C91.8351 41.9842 92.8478 41.3975 93.8404 40.9162C94.8331 40.4348 95.7454 40.067 96.5774 39.8126C97.6006 39.4997 98.407 39.3838 98.9965 39.465C99.5955 39.5432 99.9799 39.8597 100.149 40.4143C100.322 40.9785 100.168 41.5172 99.6868 42.0303C99.2087 42.5529 98.2859 43.0233 96.9184 43.4415C96.3255 43.6228 95.7047 43.7812 95.056 43.9168C94.4198 44.0591 93.805 44.1687 93.2115 44.2456C92.6181 44.3225 92.0938 44.3521 91.6388 44.3344C90.8867 44.3029 90.3035 44.1571 89.8893 43.8968C89.4656 43.6395 89.1791 43.267 89.03 42.7793ZM100.611 39.9751C100.485 39.5639 100.475 39.2062 100.581 38.902C100.69 38.6074 100.926 38.4045 101.289 38.2934C101.729 38.1589 102.141 38.1897 102.525 38.386C102.922 38.5888 103.203 38.9628 103.37 39.5079C103.513 39.9765 103.51 40.3592 103.36 40.6559C103.214 40.9622 102.959 41.171 102.595 41.2821C102.136 41.4225 101.726 41.3648 101.366 41.109C101.018 40.8599 100.766 40.4819 100.611 39.9751Z" fill="#345D33"/>
<path d="M93.7052 50.5815C93.5256 49.3647 93.5458 48.3711 93.7657 47.6008C93.9856 46.8304 94.3781 46.2367 94.9433 45.8198C95.5099 45.4127 96.2186 45.1463 97.0694 45.0208C98.1477 44.8617 99.0957 44.9492 99.9132 45.2834C100.742 45.6261 101.417 46.1583 101.938 46.8799C102.46 47.6115 102.795 48.4769 102.943 49.4761C103.118 50.6632 103.009 51.5688 102.616 52.1929C102.233 52.8155 101.66 53.183 100.898 53.2954C100.295 53.3845 99.7459 53.2937 99.2511 53.023C98.7577 52.7623 98.3485 52.3526 98.0235 51.7941C97.6999 51.2454 97.4812 50.5853 97.3673 49.8137C97.3148 49.4575 97.2884 49.1076 97.2882 48.764C97.2881 48.4203 97.3078 48.1091 97.3476 47.8303L98.2311 48.0638C97.9893 48.0692 97.7497 48.0894 97.5123 48.1244C97.0869 48.1872 96.8078 48.385 96.675 48.718C96.5436 49.0608 96.5188 49.5093 96.6006 50.0633C96.6794 50.5975 96.801 51.0445 96.9653 51.4044C97.1395 51.7628 97.3021 52.0774 97.4533 52.3483C97.6143 52.6176 97.7138 52.8809 97.7518 53.1381C97.7781 53.3162 97.7606 53.5058 97.6993 53.7069C97.638 53.908 97.5228 54.0867 97.3539 54.2431C97.1849 54.3994 96.9421 54.501 96.6255 54.5477C96.1902 54.6119 95.7754 54.5063 95.3809 54.231C94.9865 53.9556 94.6429 53.511 94.3502 52.8972C94.0589 52.2932 93.8439 51.5214 93.7052 50.5815ZM98.7571 48.9566C98.8272 49.4314 99.0015 49.8252 99.2802 50.1379C99.5687 50.4491 99.8811 50.5799 100.217 50.5302C100.435 50.4981 100.602 50.3927 100.717 50.214C100.832 50.0352 100.869 49.8074 100.828 49.5304C100.783 49.2237 100.68 48.9406 100.521 48.6811C100.363 48.4315 100.177 48.2365 99.9644 48.0961C99.7516 47.9557 99.5315 47.9022 99.3039 47.9358C99.0863 47.9679 98.9298 48.0719 98.8344 48.2477C98.7405 48.4334 98.7148 48.6697 98.7571 48.9566Z" fill="#345D33"/>
<path d="M93.6651 57.0081C93.7053 55.5587 94.0947 54.5041 94.8333 53.8443C95.5719 53.1846 96.581 52.8725 97.8605 52.908C98.8501 52.9355 99.7192 53.1597 100.468 53.5806C101.226 54.0118 101.81 54.6133 102.218 55.3849C102.637 56.1668 102.831 57.0926 102.802 58.1622C102.774 59.1418 102.564 59.8862 102.169 60.3955C101.775 60.9047 101.238 61.1499 100.558 61.131C100.078 61.1177 99.703 60.9472 99.432 60.6196C99.1707 60.3022 99.0483 59.8486 99.0647 59.2589C99.071 59.029 99.0821 58.8092 99.098 58.5995C99.1238 58.3902 99.1442 58.1957 99.1592 58.016C99.1742 57.8364 99.1839 57.6666 99.1883 57.5066C99.1986 57.1368 99.1266 56.8497 98.9722 56.6453C98.8175 56.4509 98.5802 56.3493 98.2604 56.3404C97.9705 56.3324 97.7528 56.4264 97.6073 56.6224C97.4618 56.8184 97.3843 57.0864 97.3749 57.4263C97.3707 57.5762 97.381 57.7465 97.4057 57.9373C97.4401 58.1383 97.4693 58.3492 97.4932 58.57C97.5171 58.7907 97.5261 59.0061 97.5203 59.216C97.5075 59.6758 97.367 60.052 97.0988 60.3447C96.8405 60.6377 96.4665 60.7773 95.9767 60.7637C95.4869 60.7501 95.0608 60.6032 94.6984 60.3231C94.3461 60.0432 94.0776 59.6256 93.8929 59.0702C93.718 58.5252 93.642 57.8378 93.6651 57.0081Z" fill="#345D33"/>
<path d="M101.926 63.8592L101.955 63.712C102.397 63.7487 102.801 63.8443 103.168 63.9987C103.544 64.1551 103.825 64.3841 104.01 64.6859C104.204 64.9896 104.254 65.3818 104.159 65.8624C104.061 66.3528 103.877 66.6884 103.607 66.8692C103.337 67.05 103 67.1005 102.598 67.0206C102.088 66.9193 101.675 66.715 101.359 66.4075L101.412 66.2956C101.53 66.6759 101.548 67.0721 101.466 67.484C101.365 67.9941 101.161 68.3768 100.856 68.6321C100.558 68.8993 100.12 68.9754 99.5412 68.8605C99.0017 68.7533 98.6248 68.495 98.4105 68.0854C98.206 67.6777 98.1563 67.2091 98.2615 66.6794C98.2985 66.4931 98.3483 66.2939 98.4107 66.082C98.4811 65.8819 98.5651 65.6896 98.6629 65.5051L98.8102 65.6108C98.4906 65.6799 98.1327 65.7363 97.7366 65.78C97.3504 65.8256 96.9474 65.8526 96.5277 65.861C96.1159 65.8812 95.7138 65.8778 95.3216 65.8509C94.9372 65.8358 94.5978 65.799 94.3036 65.7405C93.6758 65.6159 93.2117 65.3606 92.9111 64.9746C92.6086 64.5985 92.5206 64.0917 92.6472 63.4541C92.7251 63.0618 92.859 62.7468 93.0489 62.5093C93.2388 62.2717 93.472 62.0988 93.7484 61.9906C94.0247 61.8823 94.3365 61.827 94.6836 61.8245C95.0405 61.8241 95.4152 61.8628 95.8075 61.9407C96.141 62.0069 96.5088 62.1054 96.9111 62.2363C97.3211 62.3789 97.7411 62.5489 98.1708 62.7464C98.6006 62.9439 99.0068 63.1571 99.3896 63.3861L98.9926 63.4602C98.7999 63.0956 98.7512 62.6731 98.8467 62.1925C98.9538 61.653 99.17 61.2575 99.4952 61.0061C99.8302 60.7565 100.277 60.6873 100.836 60.7983C101.415 60.9132 101.829 61.1637 102.079 61.5497C102.326 61.9455 102.395 62.423 102.284 62.982C102.249 63.1586 102.196 63.3214 102.126 63.4706C102.065 63.6217 101.998 63.7512 101.926 63.8592Z" fill="#345D33"/>
<path d="M97.111 77.5143C96.6298 78.47 95.9751 79.1032 95.1469 79.4139C94.3142 79.7335 93.3798 79.6325 92.3437 79.1108C91.7185 78.796 91.2076 78.3876 90.811 77.8856C90.4233 77.3881 90.2036 76.8016 90.1518 76.1262C90.1045 75.4642 90.2854 74.7268 90.6947 73.914C91.2074 72.8958 91.8509 72.2849 92.6251 72.0814C93.4083 71.8824 94.2956 72.0324 95.287 72.5316C95.7336 72.7565 96.1353 73.026 96.4922 73.34C96.8491 73.6541 97.1276 74.0126 97.3277 74.4157C97.5323 74.8322 97.6249 75.2931 97.6056 75.7984C97.5907 76.3171 97.4259 76.8891 97.111 77.5143Z" fill="#345D33"/>
<path d="M66.1397 75.0163C74.4988 76.263 86.6852 80.6012 86.6852 80.6012C86.6852 80.6012 74.8645 94.778 52.6303 94.5632C30.3961 94.3484 19.1383 80.6012 19.1383 80.6012C19.1383 80.6012 31.6863 76.3068 39.4023 75.0163C50.1387 73.2207 55.3526 73.4075 66.1397 75.0163Z" fill="#714D22"/>
<path d="M50.6114 49.8768H54.3355L57.3708 77.0034H47.5283L50.6114 49.8768Z" fill="#93642D"/>
<path d="M50.5847 49.8769H54.2846L55.8932 64.4773H48.9761L50.5847 49.8769Z" fill="#714D22"/>
<path fill-rule="evenodd" clip-rule="evenodd" d="M35.9815 37.3362C35.9815 33.1479 39.3767 29.7527 43.5649 29.7527H44.0482C48.2365 29.7527 51.6317 33.1479 51.6317 37.3362C51.6317 37.6858 51.608 38.0299 51.5622 38.367C54.8185 39.2188 57.2211 42.1809 57.2211 45.7041C57.2211 49.8924 53.8259 53.2876 49.6377 53.2876H49.1543C46.922 53.2876 44.9149 52.323 43.5272 50.7879C42.1394 52.323 40.1324 53.2876 37.9 53.2876H37.4167C33.2284 53.2876 29.8332 49.8924 29.8332 45.7041C29.8332 41.9876 32.5067 38.8955 36.0355 38.2461C35.9998 37.9478 35.9815 37.6441 35.9815 37.3362Z" fill="#66A865"/>
<path fill-rule="evenodd" clip-rule="evenodd" d="M53.6342 59.3444C50.9494 62.366 46.1867 62.8035 42.9964 60.3215C39.8061 57.8396 39.3963 53.3782 42.0811 50.3567L42.3071 50.1023C42.5076 49.8767 42.7197 49.6654 42.9419 49.4687C41.1201 46.9358 41.2285 43.4625 43.4438 40.9694L43.6697 40.7151C46.3545 37.6936 51.1172 37.2561 54.3075 39.738C56.0328 41.0802 56.9449 43.0014 56.9942 44.9606C59.0619 44.6482 61.2471 45.1366 62.9725 46.4789C66.1628 48.9608 66.5726 53.4222 63.8878 56.4438L63.6618 56.6981C61.3253 59.3277 57.4149 60.0001 54.3369 58.4943C54.1905 58.6982 54.0317 58.8971 53.8602 59.0901L53.6342 59.3444Z" fill="#66A865"/>
<path fill-rule="evenodd" clip-rule="evenodd" d="M51.7001 34.9798C51.7001 30.745 55.133 27.3121 59.3678 27.3121H59.8565C64.0913 27.3121 67.5242 30.745 67.5242 34.9798C67.5242 35.3333 67.5003 35.6813 67.454 36.0221C70.7464 36.8834 73.1757 39.8784 73.1757 43.4408C73.1757 47.6755 69.7427 51.1085 65.508 51.1085H65.0193C62.7621 51.1085 60.7327 50.1332 59.3295 48.581C57.9264 50.1332 55.897 51.1085 53.6398 51.1085H53.1511C48.9163 51.1085 45.4834 47.6755 45.4834 43.4408C45.4834 39.6829 48.1867 36.5564 51.7547 35.8999C51.7186 35.5982 51.7001 35.2912 51.7001 34.9798Z" fill="#66A865"/>
<path fill-rule="evenodd" clip-rule="evenodd" d="M48.8185 24.574C48.8185 20.3392 52.2515 16.9062 56.4863 16.9062H56.975C61.2097 16.9062 64.6427 20.3392 64.6427 24.574C64.6427 24.9275 64.6188 25.2755 64.5724 25.6163C67.8648 26.4776 70.2942 29.4726 70.2942 33.0349C70.2942 37.2697 66.8612 40.7027 62.6264 40.7027H62.1377C59.8806 40.7027 57.8512 39.7273 56.448 38.1752C55.0449 39.7273 53.0155 40.7027 50.7583 40.7027H50.2696C46.0348 40.7027 42.6019 37.2697 42.6019 33.0349C42.6019 29.2771 45.3052 26.1506 48.8732 25.4941C48.8371 25.1924 48.8185 24.8854 48.8185 24.574Z" fill="#66A865"/>
<path fill-rule="evenodd" clip-rule="evenodd" d="M37.5079 27.5694C37.5079 24.0947 40.3247 21.2779 43.7994 21.2779H44.2003C47.675 21.2779 50.4918 24.0947 50.4918 27.5694C50.4918 27.8595 50.4722 28.145 50.4342 28.4246C53.1356 29.1313 55.1289 31.5887 55.1289 34.5117C55.1289 37.9864 52.3121 40.8032 48.8374 40.8032H48.4364C46.5844 40.8032 44.9193 40.0029 43.768 38.7293C42.6166 40.0029 40.9515 40.8032 39.0995 40.8032H38.6985C35.2238 40.8032 32.407 37.9864 32.407 34.5117C32.407 31.4283 34.6251 28.863 37.5527 28.3243C37.5231 28.0768 37.5079 27.8249 37.5079 27.5694Z" fill="#66A865"/>
<path fill-rule="evenodd" clip-rule="evenodd" d="M58.3493 21.4813C60.8211 23.9289 60.7123 27.781 58.1063 30.0851C55.5003 32.3893 51.3839 32.273 48.9122 29.8254L48.6272 29.5432C48.4541 29.3718 48.2936 29.1934 48.1458 29.0092C45.6401 30.2108 42.4841 29.7776 40.4461 27.7595L40.1612 27.4774C37.6894 25.0297 37.7983 21.1777 40.4043 18.8735C41.8136 17.6275 43.6645 17.0893 45.4583 17.2448C45.3937 15.5603 46.0727 13.8615 47.4821 12.6155C50.0881 10.3113 54.2044 10.4276 56.6762 12.8752L56.9611 13.1574C59.111 15.2863 59.3086 18.4777 57.6088 20.7889C57.766 20.9175 57.9181 21.0542 58.0644 21.1991L58.3493 21.4813Z" fill="#83C082"/>
<path fill-rule="evenodd" clip-rule="evenodd" d="M72.4199 40.2539C71.2575 41.9006 69.4626 43.0689 67.3887 43.4054C67.1417 44.5167 66.6069 45.5914 65.7748 46.5279L65.5488 46.7822C63.2123 49.4118 59.3019 50.0842 56.2239 48.5785C56.0776 48.7823 55.9187 48.9812 55.7472 49.1742L55.5212 49.4285C52.8364 52.4501 48.0737 52.8875 44.8834 50.4056C43.0299 48.9636 42.1149 46.8535 42.2001 44.7457C41.1157 45.3437 39.8693 45.684 38.5434 45.684H38.0601C35.0672 45.684 32.4792 43.9502 31.2458 41.4322C30.3566 42.6746 29.8332 44.1967 29.8332 45.8411C29.8332 50.0293 33.2284 53.4245 37.4167 53.4245H37.9C38.8764 53.4245 39.8097 53.24 40.6669 52.9039C39.7599 55.5677 40.5818 58.58 42.9963 60.4583C46.1866 62.9403 50.9493 62.5028 53.6341 59.4812L53.8601 59.2269C54.0316 59.0339 54.1905 58.8349 54.3369 58.631C57.4149 60.1367 61.3252 59.4643 63.6617 56.8347L63.8877 56.5804C65.2676 55.0274 65.83 53.0939 65.6175 51.2444C69.8018 51.1858 73.1757 47.7756 73.1757 43.5774C73.1757 42.3867 72.9043 41.2594 72.4199 40.2539Z" fill="#458244"/>
</svg>
