<svg width="1280" height="832" viewBox="0 0 1280 832" fill="none" xmlns="http://www.w3.org/2000/svg">
<path d="M445.5 -2L954.5 103L1203.5 151.5L1312 163.5" stroke="#93642D" stroke-width="7" stroke-dasharray="14 28 42 56"/>
<path d="M1300 378H1093.23C1083.7 378 1079.57 365.933 1087.11 360.095L1211.53 263.691C1213.74 261.976 1215.13 259.412 1215.37 256.623L1219.63 205.833C1220.11 200.188 1225.17 196.063 1230.79 196.741L1291 204" stroke="#93642D" stroke-width="7" stroke-dasharray="14 28 42 56"/>
<path d="M1348 574.5H1077.24C1075.13 574.5 1073.08 575.164 1071.38 576.398L712.5 836" stroke="#93642D" stroke-width="7" stroke-dasharray="14 28 42 56"/>
<path d="M256 876V586C256 580.477 251.523 576 246 576H-40" stroke="#93642D" stroke-width="7" stroke-dasharray="14 28 42 56"/>
<path d="M-41 378H207.532C212.419 378 216.59 374.468 217.396 369.648L279 1" stroke="#93642D" stroke-width="7" stroke-dasharray="14 28 42 56"/>
</svg>
