<svg width="1280" height="771" viewBox="0 0 1280 771" fill="none" xmlns="http://www.w3.org/2000/svg">
<path d="M344 24L836 135L1039.32 185.208C1040.1 185.402 1040.91 185.5 1041.72 185.5H1306.5" stroke="#93642D" stroke-width="7" stroke-dasharray="14 28 42 56"/>
<path d="M1308.5 377.5H968.955C958.941 377.5 955.144 364.415 963.601 359.054L1057.48 299.551C1060.02 297.937 1061.7 295.261 1062.05 292.268L1066.97 250.337C1067.56 245.298 1071.82 241.5 1076.9 241.5H1308.5" stroke="#93642D" stroke-width="7" stroke-dasharray="14 28 42 56"/>
<path d="M1328.5 541H1057.74C1055.63 541 1053.58 541.664 1051.88 542.898L693 802.5" stroke="#93642D" stroke-width="7" stroke-dasharray="14 28 42 56"/>
<path d="M349 822V532C349 526.477 344.523 522 339 522H-91" stroke="#93642D" stroke-width="7" stroke-dasharray="14 28 42 56"/>
<path d="M-45 378H203.532C208.419 378 212.59 374.468 213.396 369.648L275 1" stroke="#93642D" stroke-width="7" stroke-dasharray="14 28 42 56"/>
</svg>
